<mxfile host="65bd71144e">
    <diagram id="V-kYW9GV2uXmBUqnUB78" name="Página-1">
        <mxGraphModel dx="2194" dy="1558" grid="0" gridSize="10" guides="0" tooltips="1" connect="1" arrows="1" fold="1" page="0" pageScale="1" pageWidth="827" pageHeight="1169" math="0" shadow="0">
            <root>
                <mxCell id="0"/>
                <mxCell id="1" parent="0"/>
                <mxCell id="37" value="" style="rounded=0;whiteSpace=wrap;html=1;fontSize=31;fillColor=none;" vertex="1" parent="1">
                    <mxGeometry x="12" y="34" width="459" height="767" as="geometry"/>
                </mxCell>
                <mxCell id="49" value="" style="rounded=0;whiteSpace=wrap;html=1;fontSize=31;fillColor=none;" vertex="1" parent="1">
                    <mxGeometry x="490" y="35" width="459" height="765" as="geometry"/>
                </mxCell>
                <mxCell id="19" style="edgeStyle=none;html=1;entryX=0.238;entryY=0.088;entryDx=0;entryDy=0;entryPerimeter=0;shape=link;" edge="1" parent="1" source="13" target="17">
                    <mxGeometry relative="1" as="geometry"/>
                </mxCell>
                <mxCell id="22" style="edgeStyle=none;shape=link;html=1;entryX=0.813;entryY=0.05;entryDx=0;entryDy=0;entryPerimeter=0;" edge="1" parent="1" source="13" target="18">
                    <mxGeometry relative="1" as="geometry"/>
                </mxCell>
                <mxCell id="13" value="" style="ellipse;whiteSpace=wrap;html=1;aspect=fixed;fillColor=#e3c800;fontColor=#000000;strokeColor=#B09500;" vertex="1" parent="1">
                    <mxGeometry x="179" y="93" width="80" height="80" as="geometry"/>
                </mxCell>
                <mxCell id="15" value="" style="ellipse;whiteSpace=wrap;html=1;aspect=fixed;fillColor=#60a917;fontColor=#ffffff;strokeColor=#2D7600;" vertex="1" parent="1">
                    <mxGeometry x="151" y="290" width="80" height="80" as="geometry"/>
                </mxCell>
                <mxCell id="16" value="" style="ellipse;whiteSpace=wrap;html=1;aspect=fixed;fillColor=#e3c800;fontColor=#000000;strokeColor=#B09500;" vertex="1" parent="1">
                    <mxGeometry x="333" y="306" width="80" height="80" as="geometry"/>
                </mxCell>
                <mxCell id="20" style="edgeStyle=none;shape=link;html=1;" edge="1" parent="1" source="17" target="16">
                    <mxGeometry relative="1" as="geometry"/>
                </mxCell>
                <mxCell id="23" style="edgeStyle=none;shape=link;html=1;" edge="1" parent="1" source="17" target="15">
                    <mxGeometry relative="1" as="geometry"/>
                </mxCell>
                <mxCell id="17" value="" style="ellipse;whiteSpace=wrap;html=1;aspect=fixed;fillColor=#e3c800;fontColor=#000000;strokeColor=#B09500;" vertex="1" parent="1">
                    <mxGeometry x="254" y="200" width="80" height="80" as="geometry"/>
                </mxCell>
                <mxCell id="18" value="" style="ellipse;whiteSpace=wrap;html=1;aspect=fixed;fillColor=#e3c800;fontColor=#000000;strokeColor=#B09500;" vertex="1" parent="1">
                    <mxGeometry x="84" y="187" width="80" height="80" as="geometry"/>
                </mxCell>
                <mxCell id="34" value="&lt;h1&gt;&lt;font style=&quot;font-size: 31px;&quot;&gt;Zone.js&lt;/font&gt;&lt;/h1&gt;" style="text;html=1;align=center;verticalAlign=middle;resizable=0;points=[];autosize=1;strokeColor=none;fillColor=none;" vertex="1" parent="1">
                    <mxGeometry x="175" y="430" width="127" height="81" as="geometry"/>
                </mxCell>
                <mxCell id="36" value="Con zone.js se debia recorrer&lt;br&gt;todo el arbol para detectar el&lt;br&gt;cambio susitado en el&lt;br&gt;componente" style="text;html=1;align=center;verticalAlign=middle;resizable=0;points=[];autosize=1;strokeColor=none;fillColor=none;fontSize=31;" vertex="1" parent="1">
                    <mxGeometry x="30" y="546" width="425" height="161" as="geometry"/>
                </mxCell>
                <mxCell id="38" style="edgeStyle=none;html=1;entryX=0.238;entryY=0.088;entryDx=0;entryDy=0;entryPerimeter=0;shape=link;" edge="1" parent="1" source="40" target="45">
                    <mxGeometry relative="1" as="geometry"/>
                </mxCell>
                <mxCell id="39" style="edgeStyle=none;shape=link;html=1;entryX=0.813;entryY=0.05;entryDx=0;entryDy=0;entryPerimeter=0;" edge="1" parent="1" source="40" target="46">
                    <mxGeometry relative="1" as="geometry"/>
                </mxCell>
                <mxCell id="40" value="" style="ellipse;whiteSpace=wrap;html=1;aspect=fixed;fillColor=#e3c800;fontColor=#000000;strokeColor=#B09500;" vertex="1" parent="1">
                    <mxGeometry x="657" y="94" width="80" height="80" as="geometry"/>
                </mxCell>
                <mxCell id="41" value="" style="ellipse;whiteSpace=wrap;html=1;aspect=fixed;fillColor=#60a917;fontColor=#ffffff;strokeColor=#2D7600;" vertex="1" parent="1">
                    <mxGeometry x="629" y="291" width="80" height="80" as="geometry"/>
                </mxCell>
                <mxCell id="42" value="" style="ellipse;whiteSpace=wrap;html=1;aspect=fixed;fillColor=none;fontColor=#000000;strokeColor=#B09500;" vertex="1" parent="1">
                    <mxGeometry x="811" y="307" width="80" height="80" as="geometry"/>
                </mxCell>
                <mxCell id="43" style="edgeStyle=none;shape=link;html=1;" edge="1" parent="1" source="45" target="42">
                    <mxGeometry relative="1" as="geometry"/>
                </mxCell>
                <mxCell id="44" style="edgeStyle=none;shape=link;html=1;" edge="1" parent="1" source="45" target="41">
                    <mxGeometry relative="1" as="geometry"/>
                </mxCell>
                <mxCell id="45" value="" style="ellipse;whiteSpace=wrap;html=1;aspect=fixed;fillColor=none;fontColor=#000000;strokeColor=#B09500;" vertex="1" parent="1">
                    <mxGeometry x="732" y="201" width="80" height="80" as="geometry"/>
                </mxCell>
                <mxCell id="46" value="" style="ellipse;whiteSpace=wrap;html=1;aspect=fixed;fillColor=none;fontColor=#000000;strokeColor=#B09500;" vertex="1" parent="1">
                    <mxGeometry x="562" y="188" width="80" height="80" as="geometry"/>
                </mxCell>
                <mxCell id="47" value="&lt;h1&gt;&lt;font style=&quot;font-size: 31px;&quot;&gt;Signals&lt;/font&gt;&lt;/h1&gt;" style="text;html=1;align=center;verticalAlign=middle;resizable=0;points=[];autosize=1;strokeColor=none;fillColor=none;" vertex="1" parent="1">
                    <mxGeometry x="653" y="423" width="128" height="81" as="geometry"/>
                </mxCell>
                <mxCell id="48" value="Con signals ya no se debe&lt;br&gt;recorrer todo el arbol, como&lt;br&gt;esta basado en un modelo de&lt;br&gt;reactividad, se dara la señal&lt;br&gt;que notificara que componente&lt;br&gt;se actualizo" style="text;html=1;align=center;verticalAlign=middle;resizable=0;points=[];autosize=1;strokeColor=none;fillColor=none;fontSize=31;" vertex="1" parent="1">
                    <mxGeometry x="498" y="490" width="444" height="235" as="geometry"/>
                </mxCell>
                <mxCell id="50" value="" style="shape=switch;whiteSpace=wrap;html=1;fontSize=31;fillColor=#d80073;rotation=-15;fontColor=#ffffff;strokeColor=#A50040;" vertex="1" parent="1">
                    <mxGeometry x="635" y="283" width="33" height="33" as="geometry"/>
                </mxCell>
                <mxCell id="51" value="" style="shape=image;verticalLabelPosition=bottom;labelBackgroundColor=default;verticalAlign=top;aspect=fixed;imageAspect=0;image=data:image/png,iVBORw0KGgoAAAANSUhEUgAAAjwAAAIfCAYAAAB0NwYCAAAAAXNSR0IArs4c6QAAAARnQU1BAACxjwv8YQUAAAAJcEhZcwAADsMAAA7DAcdvqGQAAABhaVRYdFNuaXBNZXRhZGF0YQAAAAAAeyJjbGlwUG9pbnRzIjpbeyJ4IjowLCJ5IjowfSx7IngiOjU3MiwieSI6MH0seyJ4Ijo1NzIsInkiOjU0M30seyJ4IjowLCJ5Ijo1NDN9XX1d2kW/AAC9iUlEQVR4Xuy9CXwV1fn//3GpWiE3CyEkQEwgkBIJgQiCgRBkSWu+oeaP+SIFqywFbBVbt1L+gn79KfinVMVWtC1YBRUo2iu/WPKNbVgkRBAFoyEYiiQkBkgIIcsNoWpd/uecObPd/Wa5ubk8b15DZs6ZOXNmuXM+8zzPmXNZXFzcdyAIgiAIgghiLpd/CYIgCIIggpbLhg8fThYegiAIgiCCmsuwrIwEDxEQDP/7LJw/f14uEURw0KdPH7qvCSIAoBgeImDo3bs3NQxE0EGChyACA4rhIQiCIAgi6CHBQxAEQRBE0EOChyAIgiCIoIcED0EQBEEQQQ8JHoIgCIIggh4SPARBEARBBD0keAiCIAiCCHpI8BAEQRAEEfSQ4CEIgiAIIujpkOD59nvfl3PmeYIgCIIgiEDC96ElLr8CFwel4cLIHITt+zOuOndCJH/VdwiaJy5GSOnb+H7lfqaAvhXpBOEt7RlaIjXkCmwY1ksuuWdReRtKLnwjlwjCP9DQEgQRGPhk4WllIufMT1/C+R8uBb75jyZ2OHz+sm++RkPmUtSydfi6nvktdlaVYsvP5KIrfrYFpVU72dpEQDItBznxct6eeJY3Tc53AY3/8V6vn/dy3ZjpD2PV/DFyyTVj5q/Cw9Nj5BLRccZgwaqH8eMBcrFT6cqyCYLoCfgkeGw3zsE3vfqIecvhN8RfIyElVvH3616RsI2eJeaJbuR3O1FVugWL5KKJThORN+CJX6/Bmo1/wl32oif+LvxpI8v79RNsra7h/H8US2LphW9w97GLTqcj0qrT+A2Nk9v9xODHD6/CAs960pEBP8bDqxYw6UIQBOE7Pgmey7+8IP5+r7Ea15z6WMx/GTUU/4m4Tsxf8/lhkcdR1yWCnY/w2N2rsAeTsfwvv9ctPfE5+P1flrPUPVh192Nsra6Ba5mvv/1O3MiHW7/GkGsvx2jLFaap39WX42umdS7w/wiCIIhLEp9ieM7e/gd81Scekf/8Lb5f8Z5Ia5z8S+C7bxHx7jqxfDEhXbi8rjpXgX5/e0CkuYa7tLJQ/2QK5vyFLXKrw6PjYVEyceLNeEz7NZsR6VEoeBOYNXOIklmxDfFTf6PMi3JmQcmxYb9angnjOvZl6/u0HViFlNkbxPxvd1Uhq34/6tPGK9uJfUIvx1CHRVtLsTyqANswC7MSRJK+DwkvT81judgWPw1iayfHZ6wHx7itnifP35tlSJ4pj0HWSdQnTT0qu7pwy496HhlqeaZtTOfXC4Q1hwmcb97B0gd2Y8raNbjlCiZ25v0cr1bJdTzQnhgezv+OCsE3332HH39yAa9e3wvX97pC5uic/eo7ZH/SKpfcw11aS/q+i+WvHBLL3HU1Qz1dTe9j3dN/Ry2b5ek3n9uOfw2bgZvCRSbef/Fp/P00n5flpIkMdgG2a+UZMa1jV7a2T1Rg+/KXIbbmVo57+uJfByJwk9hO2eehVLUcYx24G+dmnNv+L/xgxk1QqqjvQyDKk3mMpgPr8PQOJdfx+Az14Ji21fPU87cdM+QxqHXi9ZkB7SdgXxd39R2zAKtmaFsq9SwZ4/u50Jb9B8XwEERg4JuF56s2XNl8Bt+vPCCWec+si0Mniem7K68WaddW7seVredwWTssPIumRaHsyXjEx7PpzRMYMtPochmCWTccVvLiV2F/31ko3cqdNYuwpXQWwBp0Jc+12NHWeZKJGDWdiZ16bdtVKBu+HDt/JzIFlrQoHBZ523AiYRaqqkablo3rgi2P/kiWxfYRNVOPT+JiYlbf/VgltmUTFzcmd5Ph+Ni2SLvPvC2TUs7raMH4HwHPizy9Thtmp4hzCJuyT6Pwwq+niX3YhOiKV8QTE0HLh5fp9fNF7HCqXsXP5y3FO7gFv3/r9+x/Jnx8EDsdgcfx9L3yMjF/16dtGPOhzTRxC1Dj1+0Noh+DFNZ0L1++nE3r8D5uwh2GuJ3wtJuBrTyPTdsbcdM90uXCGuglw/6FdWI7NrkSO4Z1th/T02f0YQ29uu12YMbDP4a+1wT8AJtF3jr2U7zpnlW4w7g827huOG5iVdwsy9p+/iYs0eKTmAhggqVxu9wPO75/DVticjcZj2/7iQTMMG37A/zrRbmtfR2HzEDKESVPr9MhvMzPYROTR3yfJrGjYqzvdlSE34QsvstDL2P5i+8zCcOF1XJNlPl2LgiCuJTxSfDgiwuwlPxNWHQ4bUmZ+O6K7wmx0zZMRqayPMtHbwpx5CsbZk/TxcqvD7Pm2AhrnLVGeAPm/OMELMMnM8GwATXngKiBTiNVFH43GkMqtumN/l/mYA6bX7Q1y5wuyx1ygy6zbAe2KVYY9v/hCsdl037t9lFQYUHyNJ7/W8xKA/b/fg7bg+TX27AfyZisBWwbju8ve1BmsyBqGF+Q227Rj33PUZthvzZDuU7q5C3H6mGzRGkWsJ4Ej+O58vLLsGTg1ViZ8H2sH9ZLTHf0uwq9mRDieee/aq87izXSmlipxaFjrLU20HRgs24xOFTAGvMEpPAGuvYcmsL7wnWMbAzGsOv7/la90T+0g8+PQRa73sZ0US5r1sdohVXgXdng15b8S4gA07Jpv03mffyTiYYhKUKUxUy/GQkntuNlTYvV4u/vViBhhK54jMd36Ai7ufrECAGhbPuu4dhLmTgx7NdQrmOd3GGs7yGUsodARLQ7yeLLuSAI4lLGJ8HzveYa9Dq+Ry5BdEGP/eOtYupdli9TgWuP7cT3WtRHrC9wS0wVqsSku5+cwhtoOfubqYrVg2+nWH3MLBoYBVu9WT6pOKTzcvvGOg/09ZET9WoNOfWoMVmeuFBTRY09iojTsWD8o+p5qRJuJ0uU87Nj3qcPMIGWwq1OYh/tCGaWAcrcsvOr234lLD1OA5m7ALWn1tvn/oMzX36HG0KuEFMoEzuR0vLT2IH4HW5xWbVqlZg095NTalGrei5O/x1Pc6uH2M5ZoO0A9A1vRK1T94p9Oi83HH07w1RxupaVrtN0zq4CXKhJUeMAz5OzgiEztPOySriqIhDjTF3Y7dMXTp8zC0yCIIj24pPgsZS8BXzr+Tsml337NUK4JcgnZDyK6tLi7hmZ45RhUbCcq5GWjQ2Yk8K3cXRJqbgSCA7ppnI7xpAoC+pPqSVFIdbU/X4RYvvaUC/dGO5RXE/KeZGTry4nb+CuLl62g7vNA8b4nZ/9CnmlefjVz5binW8mY7kfRI/aUyv8e5dh/ekvMftoG24vu4D1Z75CBEvjNMp1fEW4nXg8j3CxcDeJuwaYCYU+TTinmVNeVrZzcEmpuBAIDul25XaEATGIaDoHVeaE97WrQExfhJ9nAksuuoPH0ajnRZn8Hx9DEAThLb7F8Bjics5lPYqaX7xtms7dslzm8nV9dGn9LJZJAoMVhLuh5KzCEGRp1hsmjmYOwYmP7Bt9g3vL0O16w84y2IzxNixvC49zsU9nTfyWHzkr10sSsvRvCv1uJ2YlnMBh4eLiriYLxv/KICJ+NwvjUYY9DvFG9vBth2DWro53IHfbTd2IT+6tG/DEn2VvLC521JidKi56ZO+tP3ddt3SO+n2d3ydei1UJ14ig5dTeV2D1kO/j2aHXijxvv8Fjz4C+4QYrCHdDmS084WlZmvUmZvoduAn/wiH7Rt/g3tK/3cPdNeGmGJMx05U4F/t0jMlyXq5XsLJ+qNUQP559E7u+h4SgES6fITMMMTss/+YEVBxxjDeyh2+LtDs64bs2HeimThAE4QO+xfBIvrv8CnwT5vi++k34QOCydhUpXCrPH4iSLhU2sRbSPoanDPdJt84sRB1YJeNleNCy3IZNPLjX2LtJwN01IohYrvdoMnvoO0mvWo6of9gF+PpCRRnwK1nWzCjsf1L2wmL8Zmo8tp0bj+WynlU/qseqFENMjxu4y44HaSt15JMXH2vkiDghZZ8OVi8RY8SEFMsTbkAuhtTy2fkpM9TdPR/hsd8tdR6gLAOZl/6u67qlc6q/+BY8RKf3FZdhavj38Gj8Nfh/47+Pm8OuFGlffsuqwtZpD4de2Y7GtCXSbXMH+p63j+E5hxTp1lmS1ojtaiAu71WkuntEcK+hd5Pk0CsyiFiuN6OvYlmxT1918zm73ky+0IT3z6XIuizBTee36wG/3O324vuImCH3w/L7vrvcENPjBuGy40Ha6rZs8uJjjUwqKXFCfJ9OrV5uYPt8lwdOs33RBx8JgvAV34eWULn8cly4/hbxMUJ89x0sH2xG72P/vGSHlFC7pXeJq+kSob3d0jncczU65EpMCL0CGUz0cMfre03/wXst3+BQ69fiOzyXHt3XFZvQoW7pBBEYtNMcw2DCpnfZ/yJ6y92I3rwYvT99h8bPIroN7rF63/Y1nqn5EjmlF3Abm/g8T6PvDRIEQRDtFzwSHqtz+X/+LZcIgiAIgiACj/a7tAiik+mIS4sgAhVyaRFEYNBhCw9BEARBEESgQ4KHIAiCIIighwQPQRAEQRBBDwkegiAIgiCCHhI8BEEQBEEEPSR4CIIgCIIIekjwEARBEAQR9NB3eIiAgX+HhyAIgiC6AhI8BEEQBEEEPeTSIgiCIAgi6CHBQxAEQRBE0EOChyAIgiCIoKfTY3j6DbwO1w0eiqj+A/Hdd9+h/swp1FR+hrOna+QaBEEQhK98+73v4/L//NthniCcMWDAFdg0/ypc9dEXWPy/3+GYTL+UuSIsLOxxOd8hvnfV1Zjy41xMy5mJ64Yk4oorr0RvSyh+kJKKETem4dpevYXw+fbbb+UWBEEQhFsuvwIXB09A0+T7cFX9cVxxsVEk/6dPPM7fskyInu81nwJ7uxTpBMERYmfuFTid/x80j7wad0V/g8/+BXwu8y9VOkXwXMnEzZxfPIjYwUNxcM8/8c6br+ODdwvx8YF9KDv0Pr75+j9ITcvAkOtH4NOPPiDR4yXZ96/BnUkN2PNxnUwJRLJx/5ps9Cl8H5/JlEAlYuLd+NX/E43PD36GFpnmT7p7/86JwKRFv8KMAZ/j/eOBU6v24NP5vWEBnnhgEq71cN+mzn8CD958LQrf79jd3Z5r3zoyB+d/uBRtSZm40lYHy0dvyhz24GbC52LiZNhGzcDFpGki7eqzrEVzh5+PmegMhmHmgwsx5utD+OTM1zLNPZrY+dtXmHv0O3zYANwx7Qp8U/Qt9sp1ugbeFtyJ68/vQUmtTAowOiWGJ/2WW2EJD8erf/gt3t/9D1xsu4DIfjFiunihFe8V/q/IC43ogwk/nC63Igj/0rivAEcwDgt/mY3rZJo/6e79O6cRe/95BLhxIe7/ceDUqj0E5vlVaE/dbDfOwTe9+oh5y+E3xF8jISVW8ffrXpGwjZ4l5onug7+gPjE/VS7Z8eP7seZ/FsBFrhuO4e/7ziB+xlLcdeM1Ms01JrFzXC7/5ApU/t//4P/IdbyFC1+Xx9PpcLG0Bmu06X6W0vl0WPBwV1Zq2kS8m/9/0Xy+AcNvGItfPLISd/5yqZh+sXwVho28AU0N58Q6o9i6fBuC8D+fI/8PL+Egb3iW/KgbGsXu3r8LqvPx3F8OCtGz5Ic9WfQE6PkV+F63y7+8IP5+r7Ea15z6WMx/GTUU/4lQtr7m88Mij6OuSwQfX3z4KtZsr0I8E02zPYiehROvQkjV19igip35V8K240vMLpMrGLhz2lUoWXEV/hwvE7oLLgbXTAL2LcXSpXL6qw1Du0BsdThoedAPrsf02fOw7v/8RgiZRb95HFddbRY0X/z7Il767f/B11//B0v+57d4+/W/oPqEB/Mr08IL/mc2hvVSlr4o34rHXunPVOBQfLb0OeQryUJVD61Yiuf+rsyPazmGxqRh6N92DFv/z8sAU6mzk+RNcmYvlj6nbMnVq5aOL3Dsr4/h5Y/kojO4Ofgnw6BucYZdHL5PJd2Cg/uASRP7izylriVinsPrNUnJYtvtBSbKY+Db/hjYzuqprM2PeQbwd6UuyvHIslztXyjjcbCVN2JYUn+HfWvIelaVR7D1eCnKMZeMVM+Dfg5M+xXIfRjynR4PX9OQB3kNStRzZLhu4vyHHhTXw+k2bFapx15UXTdJ3gfG6yTrtI89CCbK82LY1j3X4UdLFmIC3sNL6/7h0q9trJd6XpU6me8xlsrqMgnqIejXxhW+798v5yXuR1gybwJw4CWs+6fzWqnXbS8mGe4Bw/G6vE8ZxjxWp72fx7Pmf7t2n5l+k4bfqrnMM9hruI+c48X5tbsnzc8DfR++HW8n1U1y9vY/4Ks+8Yj852/x/Yr3RFrj5F8C332LiHfXieWLCenC7XXVuQr0+9sDIs0l/jxm3ojJ56FD2do+ndy38jnGEfuEXo6xDu5/Axzzb9Lh2W86PnfbGvLU8+fwrIeprbI/J+Zj1o/D2fPFHdfcOBv3/1ccqv/3OWz98AuZasdVl+HPi69GUsPX+GrwlQj59jsc+79f4a92URGDb/oeFg77Fv93NzD11suwa6WjBYjXe4bh96lhuv7G6+Lp2ePsvMptTOffEdOz0Hh+5TXxpl3j+++whee6hKE4e/pz0SMreuB1DmKHc833r0XUgFit11bs4CEyxxWK2In/fKtUfOzGljmeuCbJwhpftg0/yVwRX1eFrapqVB+gPD2pkZ00mf5XdoF+4t6EljqSndS/yvX3nUH/icb1+2NSwmeyrGNA0gwsuEHJ4TfNJPbTUo5jKT5LMPwIfcD9/q/BsFBl/+5/NP0Rz25gvt7WcmDYT9aIG1pb/rFics2vOINrrkvVza8/Hor+Zw6Km8b98WRjqJa3FccwDDO4Sv+oBFVt/TGUiTsFVjZ7ST1WxK+Hi20k1ySNA/6uHjd7GJquEztudp63y7rsbRmG2fd7Ywj9HP9Y9xJrciZg4T1TESVTjdgfp/G8mu4xVhv+I9beTtj1t8n1XON5/91yXqr/gXUbWcOathBLpjmvlaD/JPGSoR5vxMQn9Pvd5X3KztNP4vU89oAcZ2gExG/S8FvljZFiTrfbzlnj6oA359cIux9DDfs+w37PxvPl8ni7tm6Xf9WGK5vP4PuVB8Qy75l1cegkMX13pfKcvbZyP65sPYfLfLbwdOExC7ED7fm6tVz+Ijw+d/XnmHLvrMEa9bnq8Mxz9xvg7cckRDARIfLYpN9PEsPxGZ996rb679m+js6e9SV4+f/wc6gIF/tzUvLKY6L+ovFn23Fx4O754oovPtyK5/63GnH/xc6j/L058NV3uHvjlzhpuQK2d77ExxcvR8qtV+HxhYZpyTVC7Gzb+A36Z1zJHsTfYJfc3Bs8tkVOnz1253WpFCG8bWmrQokbsSPOVahy7pR9MsFpcg96165xOix4Lrv8CjnHuEz+dcLllyu74qLniu99T8y75IZUdgDHsF27CfLxshc3BOeL8r36zXbahi96WewEBjvxN/RnqtRwU370Mg6yH7zSIPMGTPcl3i8b6ZJXnlMuEOfvnzGNaYQpTlVMicb9GlgG8IVsTEpSG3aF/Of22m3rHe73z1SsYR/8BtF8oaYb4wwOyvNY8kkV28puWT1XvHzDectOYOergpfv6Xjy8Zx6HpgUKPlcfQtR5iMiZU3E9VVvclfbKHxRvt1w3HtxzCSc2HH/Xbdc5Bcdwxf9hxp+fF5wpaHRNVDS0AiE9jOcOx3TPSbE4F797ZfdSy+r897gYv/dfV5ke+ocu+M9eOYaxI9UzpSr+zR1/jhNNAvYdtvL1WOSv0mWptWZi+5QfgeegU37PbUDl+fXCGuwnjPv24TL4+3iun1xAZaSvwmLDocHL393xfeE2GkbpgQq8zwezMzFkW903TGL54Xh+Vryysts3tNzl2N4jol7x345Av0MDb3L38CPJ7HXA2P7ofwGYHyJMxyf6dknt92rHTt/nhv36+pZ7xvuni8eueIquG1BL3yHueu/xG3i3HyDD17/EuOe1qd1B74Bvr4MY+dcjaS6r/DI375FsdjQOzy2RU6fPSU42wK9DTDSclZb3xHZ5hjKFNeatSCphmviVbvG6LDgOXfmFPrGDBTz5+tqnfbA+vabb9BwVgnbjuo/gG1zWsy7ZIAF17g9CV7CflCPcTUoGn+jCv0CNrsqnGlRG2TW0KhKkk3aj55trQshd1Ya5cLqNOKsenN0CG/3z29I9kahHoM3rgwH8vGZQQAO7X8Gn2nnwf3xGMWW0YzLbzz1gZM6Mp696LJGXMlyuY0j9ufWjo/Ostp5g+JWmHTlQbz0h3zUy1QTf38OWz+Px2xeLzfBhqmREfiixa6x8IgX+2f4/bxwl9bPJuHKj17Cc/muauUI/+3ouL5PPZ0n8UavbstdBqJB4G/P3G2qpKsvIO7x7vya4FYJ477doB9v19bte8016HV8j1wCQkrfRuwfbxVT7zJNNuDaYzvxvZZ2dIvpkmNORb9Qx+ergrvnbkex+w3Ytx/8N+Dw8iux/330Gqb87sXEXVWuRI2H3507vHy+GBEurVuHov7va/BqB9qU13Z9hWePXYbIdogdBe/bIuO5zX9uK6qumy22M1nbPAo/+zaHn/f2Cc0OC5762tPCjcWDldsutGJX3pv46gv9AcjnC7dvw7/bLiB5zE0izufsGS8+Qthe9WsPu7FEw28ygzmerP6h16CxwZU04BeY+xlVIeSLlcb8VoIb+rEUX+nI/tsHV+YRCUwiCgvGZ/pbmZvj4Q20iMuRYmur9gbP4G9zLVyVK+6sqk+Uc+12GwfcPUwZvC5tNg/nRm9w/sTe1NzFUKjCUTyY3LiEFEuEt3i3f7+fF1XsfPgnJvLdnRVH9N+O+/vU/jzx7XTYm6G2nZw0sa6+hPCGVnefOcf766vBG/4bbAaTufs7yPys6Lq6WUre4m+Lcsk1l337NUK4JcgXuvSYXTVGvj53fcHuN2Dffnj1bJCc0V1N6qS/+HYe3j5fOJrYeXsNXnYVv+MDr+38ChsuXonnV1yFTYky0St8bItM552LZb6NInyEWOYWol5Ga40z7NocT887N3RY8DTUnUHlsaOY/OPbRLdz/t2dP65ajteeZyr0978V85+WfIjQ8D6Y9F//D058egTnz3r4row4CcaYhWwsEPPcnGowgbIf7SRv2xrNvaW4B0x+xxsWYJzJimGHaNQNKpOLADnrHm4puQbDMvSbOTtDD/ZS3jr0i506fwb0wDcD7d5/B+Dm2tChuD8hwuDCcn88/OGlv8VzYWO2SuRXNCI+YxLiW3TXhqdtrkmapF0ncX40VxjHWJdULPjxMJPlyJF2NIYMd+ZnYTLtP0l/02X30gKXb/re79+v58VXsdN/nN7Iid+g/O24uU+V82TYTvzm5Lz4TZp97c7x5E5p3/XlVjqjRYC7ZEy4Ol4TnV83Y8+rc1mPouYXb5umc7csl7l8Xd9cWp1+zFxAiRdKx+dr6vwFbL4dz10PuPwNOLQfynPK/bNBwrc1/p47AA+0NVkyXKA+X1zRMbFzGa6xXIasMPN0739dhQeHfIttb3+LQbd/D/8j1/aIx7bIm2ePYhlTPSp7RdyNnXBm98b94tzJNsf4bBBuR/dxP664Uv5tNzwmp+CN1zHnngdwx70P4Z/WrULUNNTpJtYhw1Pwo9tm44KtGf/422aZ6g7+BgGmJLn5a7ZI4ZHgnJc/moQ13Jw6kSfuFcF2Q0WOE/iPUDPV8jfIx1jJDKasRe+tNWswSeSZo+od+OhlbOdR3+r6Z86wLbyDm/H6/Q8/DrmnfUwR91drzC/2OMz+CTuen7AalnM/9DiZZ6AD+28//AE1QwSS7jXcWO6Oh8fzDNWu2ResmnY/TvYwaeTb7XtOJnje5otyG8tn50cs8etkdNGxa9oylG2r5Io3M4Pf3p6IabdinJcNjrCwaG4kfb92zYK4No+B9xSQ96S4z0SOA77s33/nJQJTfzzON8vOmSr221LuWeV45e/K3X3Kz9MA9nuU97ropVX+BdS7nb/t9mcNBN9W+cWzzUXvD/5GqZvNRW8WFw2kL+fXSMkr25FqvKdZvU24Ol7W3HZ13TjfXX4FvgmLkUs634QP5EGUWoyPL3T6MRsEAr+WpucrD9Z1li7uWzfPXQ+4/g04th/e9IJSYNv+tZ/h98ww9TRyDbeKj/uJck75cZngcSc3zFaOnd3XeyMdny/OScaMae0VO9/xnyD+a/pVMH1d+JrLcdWF/4ig5UFzrgaOfeUyaPmaJP0ccvhvcnu5i9+4wNWzh4kfdr9pL/SGZxK/L3gHI+3ZwBHnXF5N5WLqzwYvr4czOm0sLe6qmvRfOWIYiS+/+Lf4Js8VV1wJS1g4rrrmGpQefA9FBW/jP//5Sm5xicKUq7kreuDCG32n3RLbDX9Ymj8r4A6l66mrB5VqWnXfnTEY6c7zornaWMPdUfhxqJ+UIDxw+eW4cP0t4mOEfBgJyweb0fvYP4FL9Kv17n8DhDv493ceHPYdTn57BSLr2xvH0xPphG7pKv/56kvs/L9vYOsfn8OHe3ehpfE8ztfX4eC7hSxtLXa9/TcSOy5NfIEIj45v1KLdOwPeUyfC2MOJuHRx6SYhnMKETe+y/0X0lrsRvXkxen/6ziUrdoiOweN3XqvqSNByz6XTBI9K3alqfFi0C/l/3YT/3fYqDu3bzdJ8NeIGD/xNRIlm59NsDGvZG/BvJUqdJwnXU6eIE27V4ubI66pMXUWJSwh5D2i/hYkROPbXTrq/LiF4rA6Nkk50lGd3fIWMty4tscPpNJcWQRAEQRBEoNLpFh6CIAiCIIhAgwQPQRAEQRBBDwkegiAIgiCCHhI8BEEQBEEEPSR4CIIgCIIIekjwEARBEAQR9FC3dKf8BE/dnYX41k/wwpZn8Z5MDQqmtqH01w2w4Frs/11fzHH1TXGi+8ncjPuWjUdYxTY8uXiZTOxqVuPOXbMQL+ZtOLR6JAoKxYJXLHr8HJbfdBFoicSqWb2wQab7hvz9yaWLZX/CwvcOyKXuJBbPPJiOfiX5+Okem0zTmZc7Gzlxynybi3X8TcbkbDyQalEWqosxw+rFwM3thB//tMbAOG7BiHRszwzF4S35WOlh+Ebi0iDgLDwx4xcgZ9ZMJMrfKGGg74N46e4ncIdc9J1vsGVxA/D+QMTf4qvY4Q3hSTwqp/tWLpLpwU3q+kvnWBWW4bWpg/Dk1G2okim+sOHxvuzeisO28w2473HPI307445sJnZOFWDOn+eKKTDEjjssWLFQaexnPLuVTfk4lpCNZ0bI7G6kaI9Sp7UlXSxCoodjWlwNdgaK2CEIJwSQ4EnE2FkLENtSjlaZ0n38FY/wh22wWXfwNaJCr0XZvivkspdwSwN76w878BRrCHljOAhv4nZkZcp8omsovAPP8/PtN+tO5/GbT8JgifpaLvlCGgaEAlWVLkZgDQDONtg16iNSMLqp2GDZsGHlwRoMToyVy8FPRlI8UFKKjXI5cGjBKbLuEJKAcWnFjJ+JkLI3cZw98KZkDcSpAjbfDS8LEyb8EfcmX6ss8LfMfP3By/Pm4zPUJ49EPKqRXwRkZ8Tp6yU9gS2DP8ULzZO0MszmeLOpHiaXWRqWzvk5wkrm4ujgTcgeyNMu4uO3foE15+y201Dz5aJHvsTOd2yo99GVxa0c0+HOrWJ0gzBa9mPDbXeAP2eiV36CmShDc9p4ln8CO6zA9NwhgOqmuacQj446jA31WViUppj1mpmwen6F6gxxXbaSNxplq+uRzl0/DvkMXj7fn8DsolHqtg7FUY9geoKSVmUdhNdeVPLU+pjoNPfSImS99QjGsMZdgZ2bqZnaGGvinMs6mc+HgtP6ibpVsHKXAH8sQOQy9byZy3Y4p06Pia+ThQYfXVoad7egauQ1iL/napngLcq9jqK5eKRcJknuyN6Eyc1/wiu4S/t9VRnX4xbQ20ZC/noNv19e5vVoLuuLUWy7i2UFOB6XhVEhvv5+nMGtOxOBHfZuE+7+isORZ4uFCDC5lth9qLtZ5HpbmjBtTgrEYNK2Uqx96SjY40Vg3lYi3VMiL6JUd1VFD8frc8KxU+5XxWE9DcVNN1gumdxe3CU0rglrdwCL1bo5dYvxMlLQ5MR1ZF/3ysKteOiIMu8uz/O+zfVujwtx7jNW3Bp/Em/nPoxNMo0IbgLGwlO7v3sEjj3vvfcLYUZ/oeyiTDFzbfJQNL/1J3zcGofs1Ga88NYnuDjwet3NNDAL94btVczxLA/Jd2FpX57BBU0WopgAUkz1rAyMxL3Z6nj4CvEZykOdr5N/6lqMGsvzpcWJ74sLLbE9nzr6sPaG1UhmDW/Vx64aed5wG60/T+EQxmPR+tUyHwhLS2YNJ0tvGYLp0+qxYfV+NCeMRqrMR8IsLIoqULZneUhbIq1HnssGWJnLolAs8rehKnQ8Mu+RWdwylRvFRA7PY5O1HmOWFer7ZYSlPYL0eqX8DQdsiJ+2GdEsvW7FSJG2o0IRHMr+2dRJ1pbolUswpoEJDbVckyBhL8uLlXS+fwfYcc1Mg3ZcYh0u9LS6WdhxcrHC85Xznm5wy6WuZyJR2y87Z+z836mes+5CuGs3YYsU9vx3sEUsm1241yb/XPt98d9ofOqDmCBymKhhYqeeCSDlt1GAKvZbfGkCO1GCOIzi2xVVszKyxIsF/30lJqr57SQ6FsNQhSLW0PMGfPuDs8X0zIgWNKnPMyZCcrBPuru4ewkYPX04MmQ2b7xzhEjh+cWotKQgR3WHsW0Xsxv28BZl27xqlsYFkYPoaB/zcrkoU8oW+45LN7viWF0eUOu2pRRtcSlYwX8gBjImp2BwdakLsdOCPK18s6Ax5RXWYHBmtrlsl/vmIlOJpVLrfTY1MFyIRGBDvbR85dReTWRUlThxeXGrjWoVOncAx1uvRVgkm0/ib5TV2KNZew5gTaGdWOKwt1LVIrS5kj3dQvvLB3onMPVrROEq1HRmoPI9t2NM6AkUaxaIDSj4o52gqSjQrARVOw3WFxVjY134Lk60WBA5lM17U7aw2qhiYRnKWOMf1l9p3KMnJbPTvE63ULz4hmj8k42Ne8U2zXpSt7cMzaFRiBFLfsB0HN7DjyuspQwl8rhKPj7B7hNzvausqmVmA0o+tSEsSpqLGCWLjeLKfM46jRNXwjb4C/xWLnrk3LNYqAoVtsgtN4pweQyblTUUDL+v945/hoshYUIgTZgwSXQyyNesQuwlgYubuDT5+7mIjz+Qv0vTeh2kbzh6MWVTJIQJb8DzcdhmQ5PxRaTuKB4yWB+KyqvQZgnXrSrC4qNaZGpwhP3s+0Uqlg/uKuplUwQVZ+NxJnRM23aMjVajJci8bwVD3epqcMxmQbh4gVOxICPBgkpeLxNMxKWy9EKzpUmBCZZxsWgzusCOFDMxZ8GwJC/2LURmKdZr57QGeSU2n12Imx7KRS5Zdy4pSPD4gagI+RbZ2uwxENQUu1D+WCfFEXFXVjWqFgPP3xKK38jUTqOlHrVytrPQGuAOlB0TZREWHDXQ+tFdRhdS98ItSDsqhmB6O4LA687UM4GTjFQZQ5U6irsID5ssRG7hbj7tnOius05lVy+k/O5KZPH77sUvZWLHuVh9QP89CJFkEEQtZ7ol5q6tscUQwxKKcIt93IgS1Kxaf7arLhovKGpoYZvHI0NaPubxRr262omIaCfcdaTWi01qLzMNg9jiAmTlSwYrDYfHLzHxkWdM40Rb0I+tbxJ+djjEQtnjat9cZHLrj6HeDi4/gnACCR4/UN8orTrybVQjMkyPN+hSrsa0W+IQvx64750W79+6BRXgz9z4UUY3kh32VpGhUUo8TQdoPiOtOh0s2+SOkhOP0QkEVLcVdys1M2Hmtej5rB7Nwm2lCpYT2OGtq024+YaIWCX1fDh1m3UUHsMjBDa773yO42kndtbQCREmU0SXkBGpKOjBEbLB5Q29rQmVXPiA/+Vuo2whCtaq7hvunlHW9sy5JrauBaPnqIKkBnmd5M4S8T6ZsSJ2RnU5CZeZD3AB1lZRo8UbadTZcFbOusJsSbJgYLic9Qbu1lPPpzp11nkhghYSPF3IhAl3CTfWUW4+L/8UVYjDZC2mIA1LU+NEAKXJZO+Oc2dQz8oYniSXfWXXlWz7rxA7VS57xQYU7Dwh4myMcR7RKwuVOJsXD7PjMsaILELWtCFMaLzhvcXBgIhtCT2BMi5KOlg2d/WEafFA7aO23oaw628WcT3O4IGPVqsVT8+XCe1CEZXekjpzPGAScub4H8/Y0PCZnL2nsGssPJzzV7bzOzy+o7i3RiJb+238BNnJ1zp3O3ciwgJjQLig+MyIOAzmri6RytDmLVgx3XsLz7wJKexGVmNV+OTERRRukfFAsXjGB+uRgsEKMyLd0cLjDiaYXHdF5+4xJtRMsUoq7FxU2NArNQXzZIqwFFm87NZ+pFrEOS2e3DGrjvLbfRXLJ8kEIugJGMETMnwmcmYtQE5WEkLYv6Ss7vgeDw8sVoIlRS+QgVlK4KRdYLFb2EP3XhFsycs4h3zN5M4DjwtQn/xzGYz5c4xq0eN1vEOJS9ADOv8oA6K7mBcz8aT1BOJzdTfITLwhY0T4d1sUC4WS94gIxrXvVeSW0PFYJMtdlFZv6FHUwbJFvXmgsl7vR3eZg5Y9UbdinRIorW5vCpgGNpWdFH+j+k0Uf72DB2Mb62R/XLyHlJLHxYjqllMtQCVv8sBuo6uOT14eV+EdKK7QrUOPTqvHIaOFR3N38V5c6nqfBP4nCLh7661PEKX9NrJEBwH7nl5dQa+IUBFb0yuV94SqwmGk4AH+wbv3FIvDxvd4wK3qOspGeIX3Fh6+LVi5qutGmdI1oVC0Z5+yP5GegqZCY9m6K024fNQ65MpYl7qj2MlFibQe8V5Rh32w8Ahx58a9ttG6FXlNZteTGljMvw+0tiQUOWqe+ECgs3gfZ9TgIRmorJZrLNtbKs/xM9ULP0jz5bdL9GToS8udCe+WzntuBez3e9rXLb1L4Q0s77ll7Erek5i0HK/+8gbU78jFw6/ItC6Gd1nnPcuMws/zpwP8TLu7pfcwuFvISTfwzsLZ14vFF53RtV9N9ozrrug9hvlPwzo9Ch/94S6s2ivTiKCGXFqXFFeivuUiotTP0hAdYCKWv2KF1c9ih1uHonmvPxPKpwOa67siGKd9/HZkM2z1V8qlIEZYSWKRo1pNGBmT0x26brcPZ3EtsdxbJgKluxduZempYmcunray3y6JnUsOsvB0JgFv4WEE2lhaPd3C0x2oY2zJRY6zjxN2B9pYWqx227qiR2BAwl1H2Ritut/tPhzYIYQFyRyXEyjjdBFET4MED0EQBEEQQQ+5tAiCIAiCCHpI8BAEQRAEEfSQ4CEIgiAIIughwUMQBEEQRNBDgocgCIIgiKCHemk55Sd46u4sMfpyQHcxbw+B1i29B+Hsg38uMXUdP2H4enRnwD8gWQf+OaUT2+Mw7c9Kqq9MmPBH5YvigmrDV8G7l4zJ2XhAjDzu5GN+pm7aNc7X8Tv8I3zpcgRzPsJ3F36fpos/dOh3+OCl4ivLPfgDhkSPIYAsPH2QKIaTkNP4RJlOaPR9EC/d/QTukIu+8w22LG4A3h+I+Ft8FTv6cAd88mV07+6CCxTTkAtchPir7oV34Hk+ztXq/WiWSZ2HHAz2d5GImuHrYLASdi/NTwY+fmsu5vyZT4EhdtzCG0fR2MtxpQqBnIXOxmryN/wjfMo4V3yw0K5EGVuLj8pOEISvBIzgCRk+BQM/z0PetpfZVIza2HRMGd5H5vobPu4VawSCzbqDrxEVei3K9l0hl71ECIVZCDMMWPkmbg/w8ZX4F4ltaG6JQrSsZ/Qk1sK3BNEH23Zdg7IWXweDlfCR+ls/w3vqwJGBhhhx3IgFK8bZjbd0pBSHEY+MTvmqcU+Af2XZywE2exQtOEXWHcIPBKxLK2b8AoxFMfL2H5cp/sFk5j9VgDn5f1XmGTxvPj5DffJI9pitRn4RkJ0Rp6/Hv7Q8+FO80DxJK+Ni2Z8MA4RKV5lcgsllxgcu/TnCSubi6OBNyB7I0y6yN/BfYM05u+001Hy56JH2jaXleZwmbv3hg01KWvZrX06OXvkJZqIMzWnjWf4J7LAC03OHABW8vApkvbUE+LQeY9KUtB2YJQbMrLIOwmt8xHQ3ZSt5o1G2uh7pqvtIy+cDdCplD8EbeH4FkLX+ZtTVJ2N6VIF2LOLYtNHCbTi0eqQcFJXDy3gEY0LlIkP7orHDF6J5XbLQYNqeIVxbUSh2cGnZlS3Oh6/jYH2DLdsagfW+uybFfR73maPLllsRbwvDnj9/iuHqPWfn2r0jW70/Ofo96PH30RG4dSex2mH8KO7+Wox98svDRtcSo1ofb0pdb2dEtjYieGXhVjx0RJl32Faguqccx41yNsaVUobz8aUUN532KWaDC0f5SnP4wa04kjhb1s25W0yUEVHqZAwtu7qbvvTsOk85J1U4m5rC8muQxy1mmbHyvIFtF4emklCMZvVuKynGsYR0jLYY6+Zpv3E4sqUJ01QXZDu+QM1HNL81/iTezn0Ym2QaQbQXClq24733fiFM/C+U8c/jO3Jt8lA0v/UnfNwah2w+jMRbn+DiwOt1N9PALNwbtldxE7A8JN8lRzTngkYZwVlxIbAyMBL32o3EzkdCn9ysrJN/6lqMGsvzpcWJ70vEWvDt+eSL2GkvyjhNVR+7aox5w220/jyljC5uGFU8LC2ZCQGW3jIE07lI4G6ehNHS1WTBmOvVtFkiRmbDARviR/HtPZcNJmemC0HB87ehKnQ8Mu+RWZy9h9F8/c2IzrwZkfXvolYmc7gYmx7JBJK0Wm1gunTMMt0FlrpeGcVctWrt6MShqsxls+OKnOUXVxsXK8pI/kyQG0b2f2lCmlyDw+7tuyex+5zfYwWoYutlJyk5XNRkhzIBJO/BF8qAUbfpblaPv492Mi8xFpXHeUPPG1I5QvbC4UCDPqbUvFzWwKruLu5eiks3jaDNRzPnIoXnry2xYfA43R02L5c13Lyh59tuUUYcryx0FB3tIno4cpjYUurF9w2Mnm52xQ3OVAQUz8/jI5hP0MfmUohFDrsx1RHYdRTR0a9E2VZMmqjgYsqYl6+MrG4Y96tXarwQaIdtrPxxTVjLjz0uTo7GHovRXGAV8pHg04Uo43UblsSFm+eyRZ01FyS7HpYU5Pg4ojlBdCaBKXgGZGFsbCvKy/xr3fGKU3s1kVFV4sTlxd+G1bfZcwdwvPVahPHBHpOyMCqkGns0a88BrCl00hiwt2HVIrS5shoI7Y8JYqkTmPo1onAVajozUPme2zEm9ASKtUDeDSj4o1HQMCoKNKtH1U7HMbP0NGM5DG/KFlYZ1XqyDGVMlIT158IhAZHCesLSGpKROTMKDXuNwcarkZlmMdWnbsU6IcqSuWDK3Iz0hBPY0SWjj3MRaSybHdfOEwjjwkymeMcVqDl/EckTv5HLntmcrwoVJuj5vSqFi26FVKgqUsX0X3H0FBAVwQXRT5DNhJLxvn/vvVeFuBkuBZHH30e74INo2tDEyuXCRDSyrBFGk81kLdhoNQby1uAI+/n0i1StKgwmaFSLTFF5Fdos4dI6oQzIqQgqRl0NjrHVTNt2hLqjeMhgCTLvW2Ko20Zej3CLOTaJVXCwrQpFdj+ejMkpLL0U602WJsmIFIy2GF1gNqzcYRQ0jOpSTdRVHrS3vth0gcX2kadZwxjelC0sVeo1cXI9vGDTQ7nIJesO0UkEnuCxpGFKegxqi9/EcSe/4Z6I0lgwWptRpcy5pKrSYPovf6yT4oi4K6saVYuB57tiQMeWepPlpFPphLJLPq5HfGQ9SpjoqjtTL1M5NjR8Jmf9SWYswrhlyhAE/ih387WD39wTh4KoU6h65xy2tCeWxynVOFouZxlcJOmC6CKaG+SsX+FxHnoMSwZTsw4jhnO3l2r9YZPquvJMC9dOGJworRPRsRhmseFYeWc9gLg1RK/XdrvBQDma2OIcKTZYaTg8finWiSBhdY5gAsJO+JlwiIXqRLqybILoAgJL8HCxk8VeFcvy8MFpmRYE1DfKxiIkTI9F4fDAUTnbtchePeuB+97xtVdPhfAaKC4mF4RGIUbOCoZGmUby7hAdKrseddyy9GImnjSOxh4ZKy0pFkQOFTMS1SrkD3hXdcVVpk3GOnoFj+GpxuhP2LX1uddde5EWS404hIXI2S4jlBs8mBCxoJ+SIBr6sw2K8OF/RXdtJiR5XI7q2smrlit7xIZTTexPnBRMTJCgZF/nuLMY83KzMRqlWCvrpbrMvEYIsBocMVpYJJWNHkSZvSWpb7iD2Go3XVk2QXQBgSN4DGJn99HzMrFnM2HCXcKNJd6Wyz9FFWscJmuxEmlYmhqHi2UF3ncHPneGNeEG94Gv7LqSbe9rrx7F3YKEWbjTEBsTvbJQ6aX14mF2XEOQrsWfLELWtCFoPvBGx78705VlS/dX/LTNmhspemUW4lv2o5AHSxfWoJntW7i3RN4nhuBmiSbGlFgjx6ByFxS+ixM8nskUi9RerkU9uzz+QXFvxac+qLlZJ0yYJL5XlW+wCHU+igVGR3FBccGawa4Jd3UpKG4vwYh07y08TCxNi+Pf9NHFkjkYmWNBuIjFU4J9vbceSTQrjAUrpjtaeNzhriu6cI/ZxSppHKlGJTtX0yarbiTFUtTWGd3au7JsAzxo2Wp9FcsnyQSC6AABI3hikpPAXxRDknP0b/HMmolE31y+HYQHFhuCOgdmifktdoHFbjEEgt6bfM7wMTceeFyA+uSfK2Xe/XOMatHjdbyDlVFULQKblTL+KAOiuxhuIbGeQHyu7oKZiTdkXM4yvDZ1G5rTHpF5SjCuVx/n80gHyhZuI/eULB6EHQ3jsUge06K0euzQrCxs34ZjXhRVIIKpNdg52VGhuqUeQeTObSZ3JRdIos6i95i6nhoQzUTkbUqgsnJcytQTvm3E3Vv5LXb3uF8+3xCKgeCxNbHI4T2hSmowODMbo5tkDErdUezkwb5zpNtoXBMOe2vhEdvycuW2cnpda8xr8BATwDywmKfznlIm65HmSuM9ltQ6ZGOFVNIb3+OxLeo62Qiv8MXCw8WdG/caq/tPt5Sin6ybmLRvE/HvAxXjbGq2tu/RTXqsUMfoyrJ1Ks/xM9ULP0ibqCQQRAegLy13JrxbOu+Z4pcGoD20r1s6Eai0v1t6T8N5N/BOwtnXi0VaPI456R7uT1x3Rb9EmP80rNOj8NEf7sKqvTKNINpJYPbSIrqIK1HfchFR7YuPJQKNqV8gObSTe90FKNxKgtSJmtWEWz6eMXWB7gBOYk8ykuJZWvd/EK9oT/4lKnbm4mmrlcQO0amQhaczCXgLD4PG0goC9LG0bO8PRMrjPn45u6fCXUf8w3gS84cDOwa3IJnjcgJlnC6CIDoLEjwEQRAEQQQ95NIiCIIgCCLoIcFDEARBEETQQ4KHIAiCIIighwQPQRAEQRBBDwkegiAIgiCCHhI8BEEQBEEEPYHTLX1AFnLSDcNE1hQjb/9xuUAQBEEQBNF+AvQ7PH2QmJWDgZ8Hz0CiBEEQBEF0HwHq0jqP1hY5SxAEQRAE0UECVPAkIja2FadqyLpDEARBEETHCSiXVsjwmZiSHKIsUAwPQRAEQRCdRMCOpSXEz3WnsLvgAFplGkEQBEEQRHsI2G7prTWn0GoJQ2+5TBAEQRAE0V4CVvDEJCchpKYCtXKZIAiCIAiivQSMS8sUv8OhGB6CIAiCIDqJgI3hIQiCIAiC6CxoaAmCIAiCIIIeEjwEQRAEQQQ9JHgIgiAIggh6SPAQBEEQBBH0kOAhCIIgCCLoIcFDEARBEETQQ4KHIAiCIIighwQPQRAEQRBBDwkeZ0xajletVljF9DTmymTCC+5uQdW2NiySiyb6r0PhjAI2rcPdMokgCIIg/EEAfmm5DxKzcpBkaUV5wZs4bpPJ/mL+07BOB97OfRib1OWMJjw3fxX2iRWAq5Y+iaQxFrlUhYrb1+KCXApa5j6AkRPPo3zhq/hKJjkwtQ2lv76Ist/1xZxdMk1jIf44Ixc4mIVfnJFJBEEQBOEnAs7CEzJ8CpJaartp0NCJWJ4RhY/+IMUO55U8fIQfIGOSsth7ze+Z2GlkIudX+ERMRxG65odK5iXNN9iyuAF4P8KJ2GGEXIdoVOBjEjsEQRBENxBYFh5LGqZkDcSpgk8QljUSzf628HBrTvIR5D6kyR3BxGWvYhE24K79gzB0yVA0rXsUDUUy0w6z9QdoyP8VTvPiuIVk+HmcjhiNARYbTud/hvDs0bjWdlhaTX6IAW8MR8u684hZwtL5xlqegsuyGTwvDq+hNvJeJMQracZ8IBGRL93L9i0Xq/LxydJ/KvOibkdR3jBRK//ioRfw2ZrjQMZd7JhlfUzYWba4K2vKlVg1qxc7U04IeQLbp0Xgne1L8GeZRBAEQRD+IoAsPH2QOCEJKNvtfzeWZG7yIJwsE+oET6sxPK8sB87Wi/yrbhrKBMpnsLkQO1w4mKw/+VWIzH4SkRkyP340rt73K1RUWTAguw9qb89Hg2UoLGo+4pGwhKfz7V/AaYxG3NJEJctT2Yxrx9yLmIYXRH75IRsiJ96Fq2Re7zVM7DQykaOWHZGNoWrZnPhsJEXu08q+dkw2evP0olfxmUwTAkxszyezG++3I5thK7/GudghCIIgiG4mcATPgLFIQjk+PHpeJvifgRFtaKpk2uKZWxH14XPI3XESaDylxe64J5EJjHhcPJSvC4FNa4W4Cb9JCgsmGM5Ji4tpPQ0bTq9ThcRx2JjyuzaSm2u8KJtTla9YZRhfvf8ZLlr6SMHzQ4TGV6FCteiwshv2MVGTeJMmiISYUfM3HUUDInCNQUy55xvE9gHqa6+Qy04IiUDv1kZ8JhcJgiAIwp8EiOBJxNj03ih/7wBaZUr3UI9Te+diRPxJ7Fq9DxP7RaHtHFNAPnDxrCI4Oo2IaE2UtLvsjGhcy61Hb/weI9UpW/q9OoWvERUqZ+3hrizeM2vgx8jc+Rh2y2SCIAiC8CeBIXgGJCAGIUjKWoCcWXxK15fHGywYXUw4D1+ZNBBRyiIG9+2F+rOK8OF/vzrbCJhcUI5c289Y30RcEyFn20tjnRbD07GyecyN6o6Sk7seVz5xJepb5Kw9rY9hxvYsZJ4ahcJpT2CKTCYIgiAIfxIYgud0AfK2vWyYilEL3i2dze/vZIuJG5pMsUPc0sP/TkTGD1geN/RsysdpmwUD7tJjY7i7aIDopSVdUGrsC2duNgZYqlAr3Uw+kXEX4sZY0HCUu5k6WHbR++zY4pHQkd5kJ8/jokuxdwVqzgNRMd/IZSe0NuJCSASGykWCIAiC8CcBFLQcCERhIIrwL9sg3GqdiqYPT2LQ9PtxQ+MurNrL84+jYaESTJykuYeGo0XGvny15lGUH4rQXUfZEYaYHG9gYmqJ3HbJaFw09LLqWNmy3hHZss7KZApa9kTRq6g+BL1+bzygiy/Gbz4Jg+WmC/itXCYIgiCIQCIAPzzYfcx9xoqp557DXau9C1PuXHi39In40k2X98DmG2zZdgrJ5QOR8riT4GXqlk4QBEF0I2ThMbDp7Y+AGxdhufzIIHdrPf0MDSzhHVdgzvpI4KZGbJkqk4y0fo46ROO6ELlMEARBEH6EBI+Rvatw14563PBLdRytWwHxXR7CK3b1Qsr2qzB+sbOxtF7CLw7WYew0GkuLIAiC8D/k0iIIgiAIIughCw9BEARBEEEPCR4DgwYNknMEQRAEQQQTJHgIgiAIggh6SPAQBEEQBBH0kOAhCIIgCCLoIcETQKSuP4lHdynTfSsdO3YHNSPSsf3BbKyIlssBQMbkbFan2cqUGytTvUNs6+M2jsTiGbbv1yfzQd4IgiCIjhA4gseShili4FDD5MeBQwOBksWD8OTUQdhRIRM6GS6oLjkh1QGK9uRjxrNbsbbENMgaQRAE0QMJLAuPrRy7jYOI+nHgUCIQaMGpOjlLaJxtIMFFEATRUQLnw4PcwjMB+LDgAFplkr/h3dJPnjwpl9rJPYV4NHeIXACaDzyF51dskEuLkPXWIxgTKhcrtuHJxcvkgg63xKTXG7eTmMq24dDqkSgolIuC1bhz1yyIQd45Lfux4bY7gJWfYFGaE7eIYf/RdutUWQfhtRflAt/vtHps+CMwc9l4hPE0h7rLfbs4pvZjwYqF2RitVs1WirUvHYUy3Bh3+cThyJYmTJuTgl72+dxNlliNtY0peCBVKaCtJB8/3eObgODuqQciSjHDWiNTJLz8TN1tVVm4FQ8dUebVbfKQjpw4Jc2Y73BcqEHes8XYKJcIgiCIzoVieDoV1ujnRjEhorim+GQULanrmdhpYIJA5D2FQ5GzvHcxZW7GfcayrfUYs6wQqTJbFRxhTGCp+36SiR1uMKlbMVIsc1cZF2BavipMmKBZlFaPHWq69QTicz9BVqaSLQgdj0XLolDM81fvR3NCljm/i8iYnALs2CpcSzOezcdhpGCxKaYlFjlzwrHTVX5cuiJWeP6WUnYRJnZSnBATW0xMKfViU2ENBmemY57MFbB9T2tU3GL2+RmTJ2J0U7G+PYkdgiCILiWwBI8lyRDHk4UYmdyzsGDIJGciZjWSE05gh2b92ICCnScQdv3N8Kb9jZ6UDBxYp1t0XnwDh1qGIPkeZTF6ZRbiW/bjTXurkEcWIWvaECaE3kCJTMGLmUwc2R8HtyhlKusUvosTLRZEDhUZkmV4zSiiOomiPcVYqbm5bCiqsKFXhGoi49hweIsqFpzkc4uPapmpq8ExmwXhfZXFjlGDh4wWnyPVqEQoBhovZnWxbk0S+bEYMUJZFMTFmQUSQRAE0WUEjuCxHTDF7+wu642xPU70sEZ/9X4g7RHZ28pggcmMRRiGYLrshSUmg+vLEzFRFoRp5fLJ4Bpj8Hw01AiLTntoPuNBKLWUoURznzGxdpvB5dWVRA/H62pPKTaprim3hFuQIWed0S9SLYO7lfSy+fSMUZB4YF6ucdt0DJbpzmlBk8GTxgOi86pjkSO3p55YBEEQXUvAurRaa051WyxPhyi8A89L19CGA1FM4BjdTid0t5E6SbeTN5jcUXJSRUdtfccCW8P6G605ixAdKWe7lVg8MycFKJFuITZ51WOKKQslxsc5ehCwDStfUl1KyqTH2LiHx+jkxPG4G3XbYlTKPOeEMh1mQ9M5ucjYaNW3PZuaTaKHIAiiCwlQwdMHiROSEFJTgVqZ0hOpO1Mv5xjCDTQE09evlgm+UfLxCYSlLXEZN1O3twzNCbNwp3RxOYOLIkcX2gaUfMrS027Xhdk9t2NM6AkU++Qe4zFEJ/FoO4/PHZpAiR6Oxe4sPDK/8rhdcLFExM1YanDES1HjEVuTJnLm5bq38PBYpMG2KhQ5Vbdm64+3zH3GCqvViqfnywSCIAjCJQHTSytk+ExMSQ6RS0BrWR52Hz0vl/xDh3tp2fXQ4hYEc08qu15aDL0Xl10PK4mpl5dD+dxiJONqODywWe1FxZG9tPQ21nUvMXMvLbt6q7203FqjuqaXlujtpImcGhwuCcVorccU76VlFhqmnlB2vah86wll34tKUl3sdN9tJaU4mxqPpi35IubIXG+GqXeZk7K1cn1g/tOwTh+Etg+fw12r98lEgiAIwhmB0y09AOiUbumEH+GiI0UTGQ5wwTOuySA0goxJy/HqL29A/Y5cPPyKTCMIgiCcQt3SCaLHMRHLX7HCSmKHIAjCa0jwEESPYx9Wzc9Fbi6JHYIgCG8hl5YBcmkRBEEQRHBCFh6CIAiCIIIeEjwEQRAEQQQ9JHgIgiAIggh6SPAQBEEQBBH0kOAhCIIgCCLoIcETrPCvI7+12auR2LVhIcT0icvhKwiCIAiipxJwgidm/ALkzJLT+ESZGjykrj+J+1YaB+oMBJbhNTEY6TZUyZSew2T0u68A8TfIRYIgCIJwQgAJnj5IzFqAsShG3raXlWn/cZlHEARBEATRfgLnw4MDspATV9GtIqdTPjxoN8CnOvineXBOA6bBNu0GEDXm8XJHHcaG+iytHNPAogyHfZgGD7UbONRhYFEO338WGkwDnipwy9T0BLlgGlyUl7sE+GMBIpepdbcb1NTuuOzrzVHqDrvBVt1juaMASU6GKL/wwRoc/cceoP8TGP6zCNQ8+TEiHs1FP57Z/CE+fv4xfMlmr/7R3zAq8h0c3PwSzzGsv4QdIYdbj5YiXh2NtdKqr0sQBEH0KALGwhMTF4PWlj4Yq7qz2DR2gMzsMbCGPTeKNdrcPaRMasNet2KkWN5RoTT4ar5xZPHU9aNRpqZz91LCLNx5j8zksOVFUQVKvvUEwtJuR6rM4oJoUVo9Expye5ZvJHrl7UyUqGU/hUMYj5leuta4GJkeyQSSLHvDAWDMskJ937CwZS6UZNktQ5Culc0F0SyEace8Dc1pj5iPq53YNmfh4JNrUNUMnM3n88okxI5GApIevQX//gvPs+Js2I2I8dL9ZbmDiZ1GJnJEuWw/EbkY/qPJMpcgCILoSQSI4OmDkFAgJDkMNao7q7gWMekzkejEKBLYWDBkUvtidEoWG60iy1DGxFFYf0NZ3CqjCqQXD6MKUYgWAcZMVEwbgiqrcXszdSsyDZaTDSj51IawKM1k44bVyEyzoGqnbg2qW7FOiJpkg2ipsqqWGbuyM2/GEOzHm5pFZxkKD9gQP2q1XFZQBKH31h1fOJv/3zh7hs+9hMZKoFdfb0TLQkQMrkC5ZtHZg7PvVaB34mRcLVMIgiCInkNABS3XFhegVs7j9Acot4UgLEQu9wiW4bXV+4G0R2SPJ6MVxAu420rrLWV0IXUCmZtxn6Fsp+41l9jQ8Jmc9ZWhUQgLHY9F7d53R6lA40dylsGtQmYLkAv6X4dewjpUgHHqlN2ZF4QgCILwJwEieM6jtQXoHdZHLvdgCu/A85rrJwrTvRU9XJDkciuNsi2fuPurc1iNO5eNBwyutA0HlCgV77AgcqicFSQgUo0F8gZumZL71SaDKy9wqUC5dJNpk4z/IQiCIHoWAWPhqa2uRUjyWMTIZQwYiyRLLWpOy+UeSN2ZejmnU1tvQ9j1N7v4Po7BknJPoQ8Wng2oa4DuJpLiyZ7mM9KtxPJnem1lUVxr8dP0b/pEr8xCPBMxhS/KBHdw11uo53ghHifUvm8A7cG/G4F+SQvlso9EXCddVAsR/7Mb0VvMM87sQUNzApLucF/u3GessFqteHq+TCAIgiACksBxaZ0uwO6y3nrQcjrwwTaDi6snYOeSelQEMJvjakT8CwwunvVSpBTegeIKHvwr06fV45APFp6SxUqQs9h2WRSKV+9Hs8zT4mZyZdks/4TRwqPVm/ekUuugi4+SxYOwo0GvswiOdujh5Qr+jR8lUFnZhzJ1RtCyim2zFWcH52quJ28Di7/8xwuowo0YJba7Bf/O/xAXZJ6I2XleCVTWXFpOyt5UpvTqi+o3UfwlCIIgApPA6ZYeAHRKt3Ti0mLScrz6yxtQvyMXD78i0wiCIIiAI6CClgmi5zARy1+xwkpihyAIokdAFh4DZOEhCIIgiOCELDwEQRAEQQQ9JHgIgiAIggh6SPAQBEEQBBH0kOAhCIIgCCLoIcFDEARBEETQQ4KHIAiCIIighwRPF6AMk9C5XxPu2SzCN/dX4YvH5XTnb2U6odJ7ze8xdGmiXPLEDzHgjd9jpJieRGSGTPaW/lvwH/VaPF6Kb/rLdIIgiCAmQARPHyRmySElTNNMJPpzYO0gJ3X9SdznYUyrruTKv8fjmsfZ9NpvZIpKIiJfUhtwNq35oUwPXLhAGfnGA/rYWxl3YSiru/eipSP8E6dv/xU+uT0fDTLFJ87Mwff4dXh8G66USQRBEMFOgAie8zhe8DLythmmYj6K1gW0+jKod4BQt2KkGBH8NW8G17zk4daKezGgMZ814LwRZ9PR4RgwV2YHJIm4JsKGi7YIXCOtK1fdNBSw9cCblSAI4hIhYL+0HDN+AZJa8rD76HmZ0vV0/EvLq3GnGICTY8Oh1SNRUCgWlAE6R9XjUOR4jAlledYyDMkdj7CW/dggBuLk245G2ep6pC9j6XwbLU+Bu8oWGUY5r7IaRBUvf1o9NvwRmKluX7ENTy5e5rCdhswX8O0NI6w3H3gKz6+Qo6tLuIVoesIJ7JhqHhDVM9yltRzf7YvHlYdlkuSqpU8iKfEzlC98FV/JNDNcEGUjUi7Bdlhbl28bh89wccxoll+FinwgIZud/SomnpZWIfKlO4HjjRgwRkmrQDYS2GxD/q9wepNSHLfU8DQFG06vexQNRXyeW53Y9q/uw9VL1P2zfdy+lslwmcfKDkc+PlsDRK65CV80DEVC5D6273+KtV2XzeFlMKFnuCwXD73AyjrO5vgxT8SXhvV5WTENar6K43oKdmWL86HUycxv8fXjWbhsfQquOCOTCIIggpTAjOGxpCEpthblfhQ7nQMfGXwQnpy6jTWNTkgYj8idg7CDj4qeG4Vivl5oMlLlqOTAEEznI52LMp4So6rPVF1QTJCIUcpFHpusJxCfq49oLggdj0Xq9ny09IQska9anHZUKEJGbM8nVexwsSVGdpfpbLIXO11DIiyJFlw8/r4LscMb7mxcy4SAYv15AacxGkkGl9e1Y4ayBp+l2+KRMPE8ytcdxsX44dLVZMGARDUtWwiG8kM2RA5XtueCKSGCCShpWSo/BAxYYnBT8e2XcEEh9832EWN0Wb1/FBcTb8JVGTfh6gbzMXgqu/cas1WrwukN0z7MZbN6R2T7ydVGEAQRuASk4IlJTgLKPgB3agUVLftRKC0yzQfecGIl4VYh1XqyASWf2hAWlcDmFyFr2hDzNi9mCuE0ZJIxJsewfeG7ONFiQeRQkeEF9mU5UrKYiyFfrTsdYG42BliqUKtZNY6j4VWjoGFU7dOsGw37HK1EepqxHM4P0XeMxbTNV2teE6Im1OBOa8hXrSfHYTtuw7WR3GQTj6uF9eSfaGkcir7T++DL930oO+MuxMRXocKp1aWj/BChprLZOdtXhWu5MJMpBEEQlyKBJ3iEdacVp2p6mnWni4iMRbScbT7jwerSUoYS1YXGBFPBbd7GES3Da6v3A2mPiN5lj+4qRKrM6XZs5x1ETOdhw5cdHCv2wtFGREach42Joq/ONspUTsfLbhcZ0biWCbIErRcXm7ibjyAI4hIn4AQPt+6E1HwC9jJNcBpqtBiesP5GC8wiRGuBLZ1A4R14XrqzNhyIwnS/iJ7j+IJpBLfWB0sfc96gPqxB7ywsuHqQnBWolhtvaMQX3PKzaS0+McYfRUTL+nak7I7CY40UV5k2uYyRIgiCuDQILMEjrTvlZUb3wCVK5mbMTLOg6mMeZyPdW2m36yLkntsxJvQEin2ItamtZ2Vcf7NmMXJF3Zl6OWeGBy13tvXnwo7DuGgZjThjjMncB5ReWpuOooEJBT1uJhGRE+Nx8VA+LsiU9vNPtFSBlXeXJqiuWjoRkbbDOCcDmtuPh7KL6nCRHZfqOhPxPg5GGF0wOc93QdH7aOLxTB3s2j/3GSusViueni8TCIIgejgBJHj6IHFCD7fu8J5OwiXEe2pZMGYZn7cLLHaLug2blo1Hs6EXFg88ViwvMl8EGfsWT1O3Yp0IhF6klrF+tZKh1bv9Zbebolfx2brDwJh7dRfM8KOyFxX/3kw+Lmp5SjCuuadS+7mw9FeoaByNJLnfpDGNqPDGEiLcRu5xXzY7rvwqRGbLvMh9IphaxzHfFNTMBKFyPnjvMR5YzefVDxAeR8NCJVBZWUeZfA1a3lSm+OOi+k0UfwmCIHo6AdstvTvoeLf0jsC7pWehwdiVPWhw3S2d6E7cdEuftByv/vIG1O/IxcOvyDSCIIgeTED20iIIoruYiOWvWGElsUMQRJBBgofwG1//mMbSCgi0sbRm4WuZpLMPq+bnIjeXxA5BEMEFubQMdK9LiyAIgiCIroIsPARBEARBBD0keAiCIAiCCHpI8BAEQRAEEfSQ4CEIgiAIIughwUMQBEEQRNBDgidYyNyM+7SvJQfQ4J8e4R9cVOvty1epfWBEOrY/mI0VnsbU8MC83Nl4fbI6IFYsnnlwNiuXT76WbcGKhbPxzAi5SHQzXXw9oofjde1eScc8mWxGuZ/0+4sgiM4moARPzPgFyJmlT2MHyIyehBAe3SA41ME/V+9Hs0zyifbWWwxLYbedszSXLMNrYtDSbTCOnhBwsEZrWlwNdu5Rh4CowUPPbsWMZ4tRKVOI7qYrhUsHyq47ip/ye2VLKdpkEkEQ/idgBE/I8JkYi2LkbXtZmYprEZOehRiZTxAdowWn1GHn20FGUjxQUoqNcpkguoKzDT11IEGCCHwC5sOD3LqT1JKH3UfPKwmWNEzJCkP5tgLUKildTsc+PMhdM3zQUHtsOKSNj7UIWW89gjGhIgOo2IYnF/PR0IHolZ9gJsrQnDaelXECO6zA9Nwh+jrcajLqMDbUZ2FRmmL2bj7wFJ63Hy2dW2qWRaF4qv3gn3b7btmPDbfdgTqv6q3UT90veP3U8nm9cqEvc0xpyn4jdw5C2aiTmJ7AVzCXreBuLDFZR8P58i/c3ZCCpi35WOkgmlznZUzOxgOp6jmz4bC2DrcWZCP8YDG7XukYLPJrkPdssUFQ8XLVPIatFGtfOooiuegR7sbLjJULQFtJPn6qWqe4i2VOCnopS0B1MWZYa9gMr9dEds+1YHQq25al5yEdOXFAZeFWPHREOabF2IedEdkinaPmCVyWzeB1SqzG2sYU7byY6sUwnzPjOZF121GK8DmO54y7G9X6GLEv3znur4f7suHxnGmIcxOOnabrTBCEvwgYC09tdS1CknOkG0sdOb3Cb2Kn40jXjHApcUHA3TR80hvw1PVMcDSwRlukP4VDkbNw38pFSiYjLC2ZNfgsvWUIpk+rxwZeVsJo3TWUMAuLogqU7Vke0pZ4HfMSvfJ24I9qndg+MB4zxb4915sLmEVp9VqeGLX9rc3wJWwlPvck0uufEtvvqLBgzEw5UnsPIGNyCgZXlzoRO25gjVsOEwYzhNtrK9YyNTh6+nCIAc0lgzO5UFLy86pjkZOrC5R5uenoxxpUdfsZPoudUCaw5LZs0ht9JqSYIDnLGmMlrxiVcemG2BELRic0YS13v7D0aY35rO42DE7U69YrNVuki+0La9hxqHEpnspmsOUHIkq1bXulpugxLazeD6S2MKGhbL+2JBQ5C43njNWNla+cs3wctsVimix7o1VNU4SGsn/jcXtGvx6+lu35nBEE0f0ETgzP6QLkbWNvWOk8ficHAz/PQ97+4zIzGFiN5AQmKDQLxQYU7DyBsOtv1oVDRYEmMqp2cuuLHdwqo25f+C5OtFgQOVRZ9ETdikyD5WQDSj61ISxKmFs8kjpqCKqsugWnbkUBqkKTkepLgHHFNs0aVfLxCSAy1gfBJEVZt1h3LMhIsKDyuLRSeEvdUTxkaGyLyqvQZgnXLTaMykLdKrSRlx8XZwpo7ZUQaxJI3mHBinGxaCvZ51SgCfFmK0WeZnmowUNceBj2VXlQFVfGmCUD1cV6Y3+kGpUIxUB2Mb0pW1iqVIuPYVvOPCYQKgt160fRnlJUWuKRYbhR9HNmQ1GFDb0iVJNlx+lI2R7PGUEQ3U7gCJ4BWUzojERzAY/hKcaF5BzkZKUhRGb3eDJjEYYhmK71SGITd1l1kLD+uoXILaZeXCcN7ilPLEJ0pGKh0ert1AXmnqqPDWLlxUw8KdxpPYARKRgNYyPuLdxNovbMYZPRzeOMc02mgNaN1nwcRgoekNt7HywbinB2ad3GgjSxBl3Odg4WhPeVs+0u24KB4dzKYjhnRpceQRBEBwkQwdMHiSkxaC3bjePiOX0cHzDRU2tJQlJP7KnlEqPLSE4dbPibz9jF8DhlNe5cNh44oLiU+LThgG9voVVWu3qrLq/P6p33Cmup70HuSNdwq0NbRY3Pjfi83GwhlNZK94fHHjp9w9HL1mTo8WXDypf0bfsxIeCd6GnhmsM9TBEZLUcZkR21ktjQdE7OdrBso8tImRxjowiCINpD4Fh4GCGhfeQcY0ACmARCc6tc7ikU1jABMATJ98hlFeGCGoLp6zsndiV65RKMCT2Bshdlghdo4ihzM2baW3hc1Vu6v+JzXXQzd9huEbKmDUHzp+92ogWHBy2fxKOddO7MqJYYJ9/SceiK7iOatYPtY7o7C490Q7kSVnU2nJWzOq7qrbhj9LgaM4prLQU5mniKRU6qxeCS8Q0eazTYVoUidrE7Vrb7enuHDaea4CZ2xs219oinsruWuc9YYbVa8fR8mUAQhM8EiOA5j+MFxaiNTde/w5PeG+UFb0qLT09iGV6znjC4gNSP6W1AwW1KoLLuGjppClr2SOh4LJLbKUHEelwN70Ulylw23uA6U0XKMhQe4KJF7ndZFE44WHhc1ZvH7IxUApVFupy0oGW23er9CNO2UwKzHXqPuUJ8s4dvx91kFoxZxue76AOEPsK7oveqrnbeo0Z8zFB1u/BgWnNDuvE9JYBVWScb4RWOFh7dfZONYRXG3kS8h5aaxyclgNnU48cNRXt40GwocgxlaIHD/Jsw0mLUnrIF2nHNRk54qd57rINlO6v3dlPQsmc2WpVAaXV77bg7gfaWzXueiW2EW5OJQLG9b8JuU5nSezSq30TxlyAI3wmYbumBQMe6pXcxXBjwnls9Jfalx+O6u/mljOg2zntZqYHHhH+YtByv/vIG1O/IxcOvyDSCIHwioFxaBBE48C8pk9ghupuJWP6KFVYSOwTRYUjwEARBBCz7sGp+LnJzSewQREchl5aBgHZpEQRBEATRbsjCQxAEQRBE0EOChyAIgiCIoIcED0EQBEEQQQ8JHoIgCIIggh4SPARBEARBBD3US8tAYPfS4sMrqIN22nBotRzLyh/wgUfFF5w5fDww/QvP/uDbO6vwlTqwe/N+XP3cHFwmFxX4RwKVr/rqXytuB/zryeOatC8Hi4/spcqv6VYX+/SxPfpA3yUIv38yQ3HYyccqTfdwxTZc89pv5AJBEP4ioCw8MePlsBJ8CqaR0g2krvdxOAmNZXhNDNq5DVUyxWvE8A12Y2E5S3NF4R14nu979X7nA4X6gSsOrsI1j8fjGgex01ko41kZx33iQx3wASzXlvS48U2Clnm5nTtchL+4/DV277L79+qDdC8RRHcRMIInZPhMjA0tx+5tLyOPTR+0JGHK+ESZSxCeOdvQgcYkOhbDUIo8X8aUIggHWnCKvs5NEAFJgLi0EjF2VjpQzITOaZlkScOUrDCUbytArUzqajrFpcUtJ7lD5ALQfOApMZAmH9xzkf0I5ZyKbXhy8TIl//oy01hZztIU11YWGpy4tMz7MLieRJ1gdkUZ04TLKgrFUw8jWXWbtex3HLdLW8/epbUIWW89gjGhctGZ20u6xSDPhy9wd8A3DavwvQLftvMFbjmY1ujcJebSPSVcGPro2ZWFW7WBMtVt8pCOnDglzZivjNydjdHaLVGDvGeLnQ9U6hR32ysuvsFinmHTB/jk9VqMKpxNTWH5bBt2D+XwY1BddvyYEquxtjFFc+e12bkK+blSj4m7V3UXDt9vHI5sacI0MVAmzzYMLsoxnTPjtmrd9mFnRLbDORPnU3UvGvHJ1ej6vHi+Hu629Z7vskrxZWQBubQIohsIIJdWK5pb5SzHdh4X0BshTp5xgQsTI7lROLSau56USW3c+YjjfHlHhSKC1HwudkT+3jI0hyYjVRslfBFSr7eg+dN3vRsslAkYZQR1pVwxurk2ork38BHWuZDi229DVeh4ZN4jszwQvXKJGCFdOyYHQRTgRA/HtLga7PQp/oc1gEwYcJeXmAprMDjTbgTsuHQhopzlZ0yeiNFNrLFWt2+P2HG6Pc9T4pmU9HwcBhMvubow65UaLwZFPWyLRQ6PWdpSira4OL3urN5C4PHtWR5SJ2qjwHPhIUZIl/tdyy706DnG42ZlzgnHTlmnSksKckbILHaeXxcxLsq2Mwpb7LbldcvWzhl3JQ4ep4yWrroX86oVASa255OPYkc/L2wyCBZP12NeruttCYLoGQSI4DmOmpoQJCXrLqyY8emIkfM9CwuGTGpHjE7hHSiuMGybeTOGhJ5AsZfWkNRRQ1Bl1YVG3YoCJlqMAsozVVbVarQMZUyYhfX34TgSRruPB5JxQL5ad/xBRlI8elVX+yA4ODV4yNjYHqlGJUIx0Kgwq4t1y4jIj8UItfHnGEWGL4xIwWhLDfKcNfYyTxdvNqzcYSdoqks1q4oxZkmDWy/UsutqcMxmQXhfvsDETKrFLs5pnxBO+nFxq40qFmr4YaNfpPLWws8zSvbpAb1HSu22ZRjOWVF5Fdos4bpVpQNkTE7BYHZc692JWg/Xo1dCrBBfBEH0TALGwlO7vxi1sela0HIse/DV4gJafXnp7naW4bXV+4G0R/DorpPeBwVLSj4+gbDrbxZWmehJycCBN7y0lCxCdCQQn8v3qU5qjy5vOYGyF+Uso2Sx9+KEW692VHALkbLv9gVldxe8EQcOv+etpUCHu3a2P6hOBneHU1rQZLiXucUir5rtW27vSyBuRmQo0xVNTEC5wF1eO1FFCxc0TefkrI8MjrAIC45+zowupK6F75tfAFdWGU/XY6NVWspk/jNGkUYQRI8ggFxax/GBDFgWQcutfdDb1swkTw9D7dGkupV8ET0vHpZWGe7OYhJkr2/WkCqr6lJSJ2mx+azeee+qlvpOi4/iAknZ5zY0M8HXY0TPiDj25l+FIq/8hjrCtRPH4zx0F4h7kRGKcItZLGy06tueZULAW9FT1NAi51xgbxXpG67E03QAPSBctfao8OOSs15gckfJSY9r6joqGz2/Obm/HjasfEnmbylFv0wSPQTR0wggwWNABCwPxKn3DsAY1tPTqDtTL+d0auttmhXHkWUoPACM+cUSDGko8OE7OxtQ8qkN8bkuxFVhDRM8Q5CsxeQsQta0Id7HB/lEBZy2xzxouZusP6olxrGBsjh0RfcJgyWFx3i4s/AoLhVXwsps/dHgAb7comCIvxFw95glBYudCSTpOpum5SnH2FZS6qPLTkHEtlhqcESIEsVFpcbVcFRXkTe92zYer0EvQzxQe+DCxa1rycU5E+6xuHQvRYqL66FSZ8NZOUsQRM8hYD48yLulT0lWv7xTiw/82DtLpcO9tOx6aPG3QscPBNr1aJK9tDRkb6Zm6yC8ZnAxOZbNMZfv0BPM2NNKlqt8PJBh3K/L3lcKznuYqT2x7HtoMeyPidONvbTUXkXmXlIMHkQrAmydBQzb99qRaL2CzL12uKA4K4OBeYyKQ68itz2CGM56G6k9mpzl2e3fbS8tw/aiXqLHWYuoQ/hBdk7OGc6DqRcVx763kn4+Fez3m6KdAw5f19T7zU35et3ksTq9Pnbnzv7cuDtnojzZe4yjXRNP18P+XDv2XPMW6qVFEN0HfWnZQEB8admD+LgU6apu6Q6NMaEIBsPXponOhQQPQXQfgenSumRZhKxfcCuIt8HKREfgMRskdgiCIC4NSPAEBNwtxHs4PSK+ZxOIXbe7m2/GLccXj1fhi/u3gEySRE+DWyn5/fvlOHsfKUEQ/oJcWgYCe/BQgiAIgiDaC1l4CIIgCIIIesjCQxAEQRBE0EMWHoIgCIIggh4SPARBEARBBD0keAiCIAiCCHpI8NgxZdjfUDijAIXTnsAUmWZiahtKt7WhJw2PSRAEQRCXOn4PWlaHkKgtfhkfnJaJkkAYXkLl7rEFuMW2BjOO7ZEpOr99sRqzEI34e66WKQRBEARBBDJ+tPD0QWLWAtyIU85FzIAsJnYuaCOmf1ATg7FZaVDlj7/586kK9LYkyCUzv7lnIPb3qcPOu2UCQRAEQRABjd8ET8jwKQgrfRm7j56XKUaYGEqJQWvZB5oYqi0rR6tlIGIC8sOkV2DO7jAMmUKuLYIgCILoCfhN8LQefdPBhaXTB2GWVpyqUcVQIsZmJSGE/QvrLhOPJ/58DU6EXsTkqXKZIAiCIIiAJcCClhW3V86sdIDH+NQAvcP6yDw/09qICwNGwbXX6krUt1xE1BC5SBAEQRBEwBJAgicESVk5wu0lYnhO90FIKHCh2ZkLzA+0PoYZOxtxC++xNXahTDRyBbhBKirmG7lMEARBEESgEiCC5zyabUxjlOUZ3F6Km6u5VS76m/7rUDgOeH57FjI/eEkmGvkGsX2A+tor5DJBEARBEIFKwAie2s9bEZI8BYkySDlk+EjE2E6hlgmhbsP2OXbLWUe+RlTotag/IRcJgiAIgghY/PcdngFZyEmPkQs6xu/xmL7DYyvH7oID6C4Dj7DwDPzYhXWHcXcLqqZciVWzemGDTCIIgiAIIjCh0dJd4VbwfIMt204hanccpv1ZJhEEQRAEEbAEWC+twOHugQm4YKuQS2Z+++IpjD8fTWKHIAiCIHoIJHjsUMfS+u8BFXjHybASfCytrD6RWEXDShAEQRBEj4FcWgRBEARBBD1k4SEIgiAIIughwUMQBEEQRNBDgocgCIIgiKCHBA9BEARBEEEPCR6CIAiCIIIeEjwEYyHiHy3AODH9Df36y+SeztwHMPKlu3CVXCT8yNQ2lL5Tjap3zmHLVJlGEATRjfhd8PDhI3JmLcDYATLBjpjxC1j+TG1MLcJA3wfx0t1P4A652Hm8hKons3DwSSvOypSAobtFC9//G7+X05OIzJDpwUzGXRj6xgPoLRd95xtsWdwAvD8Q8bf0xZxdMpkgCKIb8aPg6YPErAW4EadQK1PMJGIsE0KxLeXdN34WQRi4aumTGJkdgdPrfoVPbufTa8B0shh5RhlYt2zfFXKZIAii+/Hbhwe5ZSep+U18cJoLm3TAMGgoJ2b8TISUvYnjSMOUrIE4VcDmu2Wk9DQsnfNzjJJjmLKKYE7+X5X5pCewJSMOVUVz8Ug5T5Dr4hO8sOVZvMfzB3+KF5on4d7ka8UmF8v+hIXvHRDzwE/w1N1ZiJdLaJXbiQWlrLCSuTg6eBOyB/K0i/j4rV9gzTm77TTUfLnoiRvWYVx2glwALnywBkf/YfyaNHdt3YJ//+W/cfaMTJJc/aO/YdTYXnKpDVWmdSaj331LER8mF1GB8ieXQL98vNxc9JNLaP4QHz//GL6Ui27hFpaJ51G+8FV8JZPM/BAD3shGpFxCVT4+WfpPZV5uW3F8KBLGKCbDi4dewGdrjot5Dhc1STKP05D/K5zexOeUcqEtO+J+2+H48lAEBrD8i4fy0ZSYjQEWGxNPj6KhKBGRL90JvLoPVy9R616FitvX4oKYZ3Ary5LRUO4ihuG4+H7j8BpqI+9Fgrwp9H1zePn3sv3JReM5kXVrWXceMWr5tsPy/NqdSw213nLRI19i5zs21P+OrDsEQQQOfrPwtB7lYkcuOKF2f3cJHDN3ZDMB08JEzp/nsulP+Dg0Cy9NSFMyyx/DC2UXEZ+huJUmTLhLFzvKGsDALNwbtlfZ/q1PgOS7sLQvz+CCJgtRTABpZWMk7s3+idhMJT5jEyY3K+vkn7qWiQye/1c8Isu7iGrki+355KvYiWZChbuulMksdtzQ/wnE4AVtu48/YPXMfQLq4BpX/+hexDdatfyDJrEDWO7IRS8mrrR8b8WOF/RewxpvYX3hUz4a4pmwmCszOZbRSIjcp+SvOwyMuVN3SzFRETemkQkNdXuDaJg7nDX8VWhxIXa4mEoybptfhchso8srHgP4fln6tWOycfW+X6GiyoLwmxJlvgUDlkzEl9J6VFEVj4Q1P5R5THgwMXKRiRilXspxDV2qbgtW5r2IaXhB5JcfsiFyom556r2GiZ1GJnLEti/gdIR5W163hCV9UKuWzc5RX3HO/onTPI2dp4tCgKn790XsEARBBCZ+j+EJbH6C4QOZoFAtOjiANSXVuDYuDRNkynvv/YIJkThMnvAgspOBjwsNYofDrTbq9ucO4HjrtQjjr8xJWRgVUo09mrWHlV3IBMzA680xOacKNIvQ5spqILS/tu/2Mxn9JiTgwgcvOFhuvOLMY6gyiKMvj3yKC2ERmuARDB7FmnDX9E6cbF6/k7iw1GAVYQ12SxUTA/0MjTu3XqjWjaL30WQzig5OPEKNAskrEpnAiBeWG23fm9baCRobTu+Q+2V1OOdEODXk60LiwlFW8YhoIVquWjoRkaZtmBDhwinxJt2dVpWvWaq+ev8zXLT0kXk/RGg8EyuaRec4GvbZbSssNup5c3LOOsrUrxHF9lZD1h2CIAIIEjxG+vZnD+o4ZN+9CVvUKSNOZupszi9AffJIRJW96pWFJSpCWoham9l7s3uqKlWxxSh/DHOM1qN2k4DvhwFt57y06DjAXVZqLy42/exGU0Drl//4b5RXJiBJ5g//0WSZo2DbvIYd940YJfPjb5AZnYEpqPj3movHOcfxRaOc5RS9is+EZUZu72Nw9MWzumusU9BEC6OxzoULzwMZ0biWW3AM52RkttuT0olwV1Y1qhYDz98Sit/IVIIgiECABI8DRpeRnEyiQ3FNoYiLnp/jqSSZ7Ib6RmnVCQkzx+FEhukxGl1KBf7dLGfbgeWOpazeH+Jj1SX1lw8NVhUF22aZ96QVbWOX2omePTj7vL5tr+xOEj08zoU15jx+RXG9cNeQzHNKIq6JsBMqm9bq2zaORpIqek6ex0UP1h+zVUQpu0PYzusiR1p7VK7q50vhRneUnFzGQHUmV2PaLXGIXw/c904LfitTCYIgAgESPEaECyoO2XZxNUbUuJ388r/ikaJqLZ7HGWLdkGoc5QHO5Z+yZoi7wqS1hwun1DhcLCvAZpnikXNnUM/KGO6FyDKzB83H29Ave51bt5NbGj+XcTeT0S/XbOEx40FcnfkcbXK2c7Dhy5Nydu4D7i08c3ngsOu4nK8aDJFHRa+ilomnyGxj9+xERK7hgug4bMdtIjZHy5Nl1xoCor3nhxjAhNvF4+8LUaK4qNS4Gs4P0XeMBQ37vBAtwm1njAdqB0V1HsWeW3Zdye7TrxBL398hCCKA8FsvLQzIQk56jFzQqZW9tXgvrinJatcolVaU+723lux5ZaiK2tNqwoQ/4l4et6P1jFLX5Vahx7BZ9uLSkelyyaGXlrEHmCyL99JSeoC5wLQP33ppmXtaGXpp2fXeUjD0xOr/BIYb3FhnP/gQvcZGoEYEJ9v30GJUWnFw80tywa6HFsOxd5gbuMvK3iWj9SriAboGNxZLP904GuENsieWw7bmnlD2vazs8zmm8kXsix53Y97emMd7O/GAZLY8SO9ldhUriwcaf7aGCSljLyqGfe8x+15axnyxXx4QrcbpiHV5ELJad7teWgx9e0Pd5HHwY1TqZdi/6dxRLy2CIHo+/hM8lwJcjKQ2m3ttEYQDiiDhPbdcdXnv2ZDgIQgi8CCXFkEQncyVqG+5iKghcpEgCCIAIMFDEEQncwXmrI9E1AwaS4sgiMCBXFoEQRAEQQQ9ZOEhCIIgCCLoIcFjYMaMGXKOIAiCIIhgggQPQRAEQRBBDwkegiAIgiCCHhI8BEEQBEEEPSR4AojU9Sfx6C5lum/lIpl6iTAiHdsfzMaKaLnsC9HD8fqDs7E9N1Ym9BRi8Qyv98LhyJApzrFgxcLZeGaEXAx0uvN69Nh7oZ2oxyumdMyTyWa8vc+6AG+uh7pOd9QviMiYnC3vAw/nuwMo+3B1nwU+fhc8fAiJnFkLMHaATNDog8SsBSJPTOONAzNeGpQsHoQnpw7CjgqZcMkjH9TG6VJpyAjCG+qO4qfPbsWMLaWdPEadn+BiZ04KzhayY3jpKLwevSSgUV5Q2v0C106K9uRjBrsX1pb4dSymHoUfBY8iaG7EKdTKFCMhw6dg4Od5yNv2MpuKURubjinD+8hc4tKgBafq5KyBSv4w5A/1Z4tRGZfuaOlQH/rWGpnQU6jBQ7zeQfOgl3Tn9eix90JX0o33mafrIfMfOiKXg4HoWAxDKfJKgGFJ7R6uOXCxNaFSzvY0/PbhQW7ZSWp+Ex+cTsTYWemAHDTUFTHjF2AsipG33zCgYRfDu6Vv375dLvlI5mbctywKxVMzwe5znXsK8ei0emy47Q7UYRGy3noEY0JlXsU2PLl4mVzQ4a6t9Pqn8PyKDTJFxW57nMAOw/74dtO1MUBtOLR6JAoK2Syvw6h6HIocz7Zl6dYyDMkdj7CW/bJecp1cdSwAw7bdCrfwsHuFCR71gTgvdzamNebjp3uUtxi+nCPHUm0r0dM1uKssU7UK2XB4Sz5WSlHFzbOLsQ87I7K1Mri4EvsS2wF5TGRtVLIc09pbNoPnP5AqH4bVxU4aBOXYB8sljsvtGcY8z9iV7XT/zuDbxaGpJBSj2b7bSopxLCEdoy36sXu8Hm7wdM7Ua78eE7Vjt893vm/P9VbeyrNZmtjA7pwoeeEHt+JIoroP8/U23wudeD14uYnVWNuYoh2z0/MqLCXh2Gm8Xxme7zP395I5z+6YOXbHbaybp3vB9X75+Z4I7ChF+Bz1vNSYf4sesbuedtsb62Y+ro7vWxxXRClmvGfB69OB9ZrQ9KJsafHSh3jmyHX4uR7XhLVaefy+SUGT3TXR9u/pmWK8H7T7pxoj1HVspYZ9ecNcPG29FYOq3kbuQ4E5SKDfLDytR7nYkQvBSGENmhGFaNYguiJ1PRMrDUzkTOWuq6eYAJnlQ6yOFDva9nzSxU70yk8wPZIJGJm34QAwZlkhUmU+EsYjcid3l1kwJpcLs22oCk1GKq8vF2ss7dBqWa613rxtwBCLEXE2HCvXH5wbreztkb0h5lXLBCP8R5wZyh5myjozClswmj1ojP7nXqnZohFVTcGDx8k4giPV7C2G7c9gTcqIZEqzulp5OHWkbIZ78zN/MKajH2skRNnP5uOwcTX24HsgtYU9BNV912Bwpvfm83m5cTiibssepE6tZi6JxWj+MGX77JWaLkRAXrVFe5N1ez28wHjOlONyPKfiYc7y7c+p+327r/e8XNY4NrEGQJwTdr7D0/H6ZL0x5gzOVASXsg8LRk9QG3rWkDBRomzrvN7u8Hg92LJ6zNx1hdSJXl9rT24ORXQY7iU2aUKN3eM5TICq6WvZw2b0dEOcjRA7ht8Am4yixu318HgPs/PLGv4mUTa//2Mxze56uEaKHe168kkXFfyYc8JZYy7zxHGZfrsd23dGggWVx5mQqLPhrCUeGaZr5a5sVu/pKYD6u2fnRBFj3ostd3j+3cciRwgomW9JQY7Xz4WeQWAGLQ/IwtjYVpSX+c+603Eq0NAiZ7mA2KUIhuj+UUBDDeqwGskJJ7BDs+hsQMHOEwi7/mZ49ey653aMCTVub2Q1MtMsqNoprTWMuhXrcKhlCJLvkQkt+1H4ojLbfOANkxUqelIycGCdbtF58Q3ztm75Gf6Qn498+2nL47hZrtFReEOjxPBwEbDP/IbphoykePbwMKx/pFQ8YIwihr/lqA/povIqtFnC9Tcv3qAmqo0af5ABh99T3og6VrYHRqRgNEqx3u6NWIE9FMfFsjfmUv0heKTY1Hh7YqPV+ACt4doO/SK9faCzB7A8B/wNMM9rK4aXGM6ZIjpDMdD4A+FvnfKt1Kdz6rbeXEiz6629Eduw8iATRgmx5iBaQ9028gYtnN0TYqkGDxnfpp3V2w0er4fhmFFXg2M2C8L7KosdgzVwqaxxLnTRoNYdxUOGe9B8vtX70Pvfo45393BloWq5sKGowoZeEZpp2z3892MxXk8j8pgP6paLoj37HH677d43d2exfR8R9xe/lo6/S5dli20NL3TiPuqsa+3d716vm6/PBc4mPJybG7DWHU7gCR5LGqakx6C2+E0cd/a8D1g2oK7BgsihXEBEobmC/ZXWnuZ6tpAZizAMwXTZC0tMmgvJM0I4tdQ7jX9SsKHhMznrIzFRFoSlPaLXa5fRbeaJv+CX2dnItp/mPI535RodhZu6lbeSfBxLyPY6cHlwhEVYBPSgZ6OJ2zPiAR8Xp7z5Cb98FYrkw72jZXeUsw0d+HHwN3Ot3kbTfiBifuC3VdToJnYR/9EJb7/RFvQTb7f6OTG6aVTEW7sKa6CNMTHcRaKfU4PbwBvacT18a4hcII7bhqZzctkBbikxHJfJ1RLK9V6H7sMO3cNuEJZYt3Em7o65Y/AXoV6qFZjBhbGDcHYFtwixc64JpBFx7D5SxVMn4PE+M++LW+iMFrtgILAEDxc7WUlAWV6PdH/V1tsQ1n81Uq9nh/BmPSInLRJiovmMGovDY25Ud5ScbtOtMu6oO1Mv51yhiC2dBPDfvbc0H3jKXC82vSYtQu7peguPjvLmrb9Ze4bHDihiSZ+8jq0Qb9PKm5+w6BgbW0aHyu4g5gbPgoHhctYTwhUXaxCR7Xc/+Yeua5zM8DgJ87X0NshXuEi4hUjbtthNY2tHO69Hp4gF0cC6Rrj5oLt+zD3BWtDUwSq0+x72QJFmaneFvdVEEW8dR3FncRekJiy4cHZwa7lCOafai5S4LzpB0HN63O++awgcwWMQO7uPnpeJPZFYRDYcRgn3v15/O5IjpeWl8F2caBmC6etXK6v5youHURU6HjOdxvwsQ1kFED9ts+Yei16ZhXiDG8sdJR+fQFjaEmS5iT9yTddbeHSkKdxOeLhCvF35EO/giGJy7hfJ3tASWrDT8LbT8bLdcK4JbYaHpGh4tAeyNIOnpugxB9KEb6yfewwigr31BaqFZ15uOgbbdKtalyGFbU5HPnlgsCiIest57/D+emRMniiudee89XO3hcUcl2MPa4GV3xr77U03WniU+9CXWCWdzriH3cBdQZYULHYad6O4aoyxXxmTU9h91hnuWS6ceMyNLiqUOB0v3c3Sla0JTDY5vEAZXYoLu+4+ax88aNkK6yvLMVGmBBp+66XF43Jy0mPkgk6t7K0lemU5PG9aUV7gP9dWh3ppcWRPpyqrYh1Rek1xq44aXGzfy0qxrCi9sVbjzl2zEK8ka+j5HPt1jGXb99Iy5Bl6isVoPcASWFlZaDD25DK52Mxldw92vQo4xp4FzvIZph4h3IzL37I0+Ju48tbk0JuBvwU59HSR+zDtV9LusvnDyokLzLAPJZhUWYEfD++5NOK4/gA05vMHmUPvGTeYeqiwB/3hphQMa3TS88cBfi5kr5C+7Nhlj5HBrDwezPvTPaGer4cbzMfE4LErdm4jZT/OynJ3L/B6uas3L8/xmuj1VvJ4oLNzC5553zw25WxqvLI/L66J2+vh5h7jOJwzgbqO5/uMY+6xpLiQxXGKe1YXOZXsuPqlmn8f9vvXz5nn36bre9jxfIt1jb8nj9jv33zezMdszOvAvvm1MvWiUhDbJ1Sx9BpkuC3b+fXSrgfDWG9u/UGmvK/rPF9rt/eZ02efr0zE8lfuxw2WNnz0h7uwaq9MDiD8J3h6AB0WPARBtBvfG7VLABeNKBGEOLvWQvDafR4jgJn7jBW3RnyE5+avwj6ZFkgEZi8tgiAIgriEEMHWdszjvUR7wof+5j8NqzWwxQ6HBA9BEARBdDOiezxS8IAa8Mwm8b2gnmDde+Vh5PIu6QEsdjjk0jJALi2CIAiCCE7IwkMQBEEQRNBDgocgCIIgiKCHBA9BEARBEEEPCR6CIAiCIIIeEjwEQRAEQQQ9JHh6CvxLyHIE9kDk7rEFKJwhp2lPYIpMJwiCIIhAwO+CJ2T4TOTMWoCxA2SCCh96gqVr0/hEmdHDyNyM+wJYmHQlF8rXIHN7FjJ3PobdMo0gCIIgAgE/Cp4+SMxagBtxCrUyxcTpAuRte1lOeSgPTceU4X1kJkEQBEEQRPvxm+AJGT4FYaUvezkS+nm0ehrhP+DgA3uexKPLxiMMQzCdz4vpE8Mo5HzwUDWdTW/po5sryDJc5utEr/xErHOfYfR0NU2d7rxHZhAEQRDEJY7fBE/r0TfFqOjekYjY2FacqvFGHAUKy/Da1EF4cvV+NIuRxtm8mORo5IzolbcDf1TTn8IhjMdMg2BJXT8LYQeekvlsuu0OOBtsmQubRWn1Yh/aSOqZmzFTpqnb8xHbCYIgCIIIsKBlNb4nZ1Y6Ymo+wXGbzAgS6lZkauIH2ICST20Ii0qQywph19/s0qrD0cVOJkpkms4QJLfDqnPzY28gPz/fYfqDrsUIgiAIokcTUIKHW4HUOJ7dLSORk5WGEJkXFIiAZt3ltCjNIjMUShYrVp9FLl1SQzCGb1Nx2FHsFN6B560nEJ8ry3fjDrPn3SduR3Z2tsP0S2k8IgiCIIieTkAJHiOtNafQaglDb7nc81mNO5eNBwwuqw0H7E1YG1Bwm3RJrd6PMCZezKKHu8q2oSphlil2R+PFTK3sHQ1MOHkpesjCQxAEQQQ7ASt4YpKTEFJT4bxHVyBTWINmN66l5jPGmBuzhceEKMcZy/AaE0NIe8RtUHJtvff+QLLwEARBEMHOZXFxcd/J+a6Ff2cnPUYu6NQWvyyCmXn8zpRkgwOrphh5+4/LBf8wY8YMbN++XS51AP6RwNwhcsGGQ6uVwGUl/kYVOSdw6EAUxkQV4MnFy9gy76E1C/FKpqD5wFN6ULIoE3rsjrqPim1ie3PZHG4Nchbn0zXwDw/eYluDGcf2yBSCIAiCCBz8J3h6AJ0meC5BSPAQBEEQgUzAurQIgiAIgiA6CxI8RKfRO2kpjaVFEARBBCTk0jJALi2CIAiCCE7IwkMQBEEQRNBDgqeTGDRokJwjCIIgCCLQIMFDEARBEETQQ4KHIAiCIIighwQPQRAEQRBBDwmegCMWzzw4G69PdjPsRICRMTkb21mdxZQbK1ODHeU6KcedjRXejtTaUxiRHpzHRRDEJYvfBQ8fQiJn1gKMHSATHOiDxKwFbJ2ZSOw5bX7XIxogtYFVp3TMk9kdJno4Xm9neUV78jHj2a1YW+L9+F2dinpu/Cq2avAQO+YZzxajUqb4F6PgshPI/HwsHI4MuWjGvJ06PTNCZhMEQQQpfhQ8ipC5EafcDggaMnwKklpqe96goZ3M2QY78XCkWIiKGYU1bKEGebKx3ajkXtLMS4xFZSETHnFxnScAAxkpTvuVKEKTT+uR4qU1xizUKguV7R86ouSaacGpOjlLEATRw/Hbhwe5ZSep+U18cDoRY2elA3LQUBOWNEzJGohTBZ8gLGskmgvexHE/Gg068uFB3i395MmTcqkL4W/vmWCCxyx2uFtpMfZhZ0Q2cuKUNN6Y6Q2ZBSsWZmO0ZgjgoomXwd/40zFYpurYcHhLPlbKBo+X/0CqurE5T0WsE1GKGVYuyozY7aOaiTd1Hd54zwnHzmerMUJdx1aKtS8dRZFYwRO87BQ0sfqcmjAbI44bjpmfq8RqrG1M0erexkTCT/foN9W83Nna+VJR1gnVylWPk687rdG8vXH/Ts+Hi3OmlrUeE7V1zNfLNaLOMJxDe/hxj2vycA6VawIv90kQBNHT8ZuFp/UoFztywSl9kDghCSjb7VeRE0z0Ss0WjajqXho8TndrZEyeiNFN0kok3/AVwSTf+LeUok2zHPHJ0IAzUZLDxJS67doSYPR0Vy4TR+blxuGIVi63xKTbuVBikSNEg8y3pCDHWxfLiDgMtlWhiNW1spEdc6KdW4vtS4gwvu/CGnaOUnQrEBMGOXHqMefjML/vmBgzC5p24sU549dLrZv99XJNLD9kVB53IXYIgiAIpwRO0PKAsUhCOT48el4mED5jaKyLyqvQZgk3W27a6/KpO4qHDCLAadlu2Gg1WqNqcKQa6BepmZoElYWqwHKe7wruzmqrqBGWDFEv+2Pk1iLVEsIKrkQoBkrXD98W1dWybjYUVbBjDLd4LeTc4s05M9TN13NKEARB+EaACJ5EjE3vjfL3DqBVphCdCw8szqvmlhQnQa4e4e4wQ5DrnBT0kjlewV0s6rZssnchCZFjcKtstG710srCrR02HCuX69bV4JiNpXlpHeIWIV0EMqGTYNHEU8fxfM5M+2IC6ad2bkqCIAii8wgMwTMgATEIQZLoncWndH15fKJciegoXEiobqWzqdlei555udkYjVKsle4Zxf3lJTxGJ5MHFav73sqEl8zrKNydxYTF6DmqsFBilBzcWi4oamhh/6siUDnG9Z3hzmJ06Jy5pQVNrIreHiNBEAShEBiC53QB8ra9bJiKUYtWlBew+f3H5UpE56E0mibqbDjLLSaurCNsA8UaYcGK6T5aeGBD0zk5K+Jm5HwHyYgMVQKgVVHBJ96LzSvXHTuOcWYhNsMhyNeC8L7KHA9A9rneHTpnrrBh5UF+jOY4qIzJ6X78Zs5ELH/FCqv1VSyfJJMIgiACHL/10sKALOSkx8gFnVpnvbW4i2sW9dIywd1CmfZv9WpPK9kjyNhDSuv9xPO5e8XYQ4th7CmlYtqHoVeRKEtvsCtLStEv1U3ZHEP5pp5QtlIcbkrBMLW3k6mevqDsN/ygfS8jQ+8j2PdWsutR5eycGnuIGfPZ8eSx8rReWk6vh7fnTDknjj2+fMBu/6beZ26PSzk/9rFC3vYQU5m47FXcf2MvnNyRi4dfkYkEQRABjP8ETw+gR3RLJzoJZ4JJSRtW0QEhcqkw/2lYp0fhoz/chVV7ZRpBEEQAEzi9tAjCr4TyDllmomMxjKU5fPSRMDAXT1utJHYIguhxkIXHAFl4LjGcuH58de0QBEEQPQMSPAZI8BAEQRBEcEIuLYIgCIIggh4SPARBEARBBD0keAiCIAiCCHpI8BAEQRAEEfSQ4CEIgiAIIughwRNw8C/h+jq4JxGo8C9gb38wvX2j1BMEQRCdht8FT8jwmWKA0LEDZIKKJQ1TxMChhokGDrWDfwlYHSiTTbn2QxsQnYtyvo1jVhEEQRA9Ez8Knj5IzFqAG3EKtTLFAVs5dhsHEb2EBw51/Novt/xkY3STYbDM43HUGPcEbE2olLMEQRBE9+C3Dw9yy05S85v44DQfGDQdsB80lFt4JgAfFhxAq0zyN4H84UExOGhClWEgTDv4V4P5QJk7gMXqoJWmAUKVcaK0QT7tBw+1++qw6YvDHst2BxdqcTiypQnT1G2NA3Rqg4dWY4Q6qKUx336wS0Oes3PikGY6LsPgnhrOyx9sHPDUgHGQTrGvVN31SF9pJgiCCFz8ZuFpPcrFjlwgfMSCjAQL2ipqtIbdKZYUPCDEw1bM2FKKtrgUrIhWsublGq1D+Tgcnm6IE2KNfmK1bjkqrMHgTLu4EzdleyYWOeq2fN9IwWJTjBLLF6OY8/xiVLJ95QjLFRdp6ejHRIZWb7btA9KVV1RehTZLPDK0etidJy6mMkOZyOHbsqmwBaPnGI9LETt6+WySQmmjVe6PaRsuZNR844jkD6S2IE/dTpyzbB/OCUEQBOFPAito2ZJkiOPJQoxMJryFWzCKsZHP1tXgmM2C8L58IRYj4mqQp1lkbFh5sAa9EmKRIZZr8JDRWnOkGpUIxUBT4+2qbG8wbMvmiyps6BURKpZUKgtVy0sN3z36RTJBNCIFoy012KmNXM7qvYOLrThFtNQdxc5qC4YlSfEkBv/U189IigdK9ukWnSOlTMCwcyHdgBmTUzDYVor1Po+MzoTYuFi0lZTKY2IcKUaesS4EQRBEQBE4gsd2wBS/s7usN8aS6PENWxWKNHcNEwcvSRdLtAX9hBXFEPBsN2jmvFxDntHFo+Kq7PYSbpFii8NEjqEsbl3RLCke4l82HteFmyJwdBEyOMKCXqm8l5R6XAaXHoPno4kJMLnsKzSqOkEQRM8hsCw8BlprTnVbLE/gYcOpJhgsMu2hRne/qJMhFiaHW4C0vOKuD7L1VmhYws3iq2+4Egekwq1Rwq3F3VnAsXKzCOExN6ZjZpMq1CobOyZYhBVKw4KB4XKWIAiCCDgCVPD0QeKEJITUVLju0XWJsfG9UrRZ7GJfRqR710tLuKBikeOuG7vBkjIv14mFp7OIHo7FqRZUHvci4Fm41mIxTTtmJ64kLuRKgNHTJ2JYU6kpIFlYf1InuoyrETFAce7OoSI0ByfanzfplktN0eOBHNxvXjBpOV61WmF9ZTkmyiSCIAiia/BbLy0MyEJOuqODqlb21uK9uKYkh8hUoLUsD7uPnpdL/iGQe2kJRI8m2dOJY+wppfakMvRYMmPXS4uh9zgy91TiguJsajya1B5NHst2h10vKIapN5PWS0uN8bHHbntnvcPkeTnrrJeUqZcWh1uyDPuyP6emHmIc+3PjqpeWsx5gnpiI5a/cjxssJ/F27sPYJFMJgiCIzsd/gqcHEPCCp0fCBQPvgeWrGPABj6IpcJn7jBW3RnyE5+avwj6ZRhAEQXQ+ARvDQxDeYcGK6SmmYOUewfynYbWS2CEIgvAXJHiIHgp30cmeV03Feq+unsIrDyM3Nxe5JHYIgiD8Arm0DJBLiyAIgiCCE7LwEARBEAQR9JDgIQiCIAgi6CHBQxAEQRBE0EOChyAIgiCIoIcED0EQBEEQQQ8JnoCDf6hvNl43DiFBXKLQvUAQBNFZ+F3w8CEkcmYtwNgBMsGOmPELRL6YxifKVEJB/faMnNyNjUV0P3xYi4XDOzDgK0EQBNFZ+FHw9EFi1gLciFMuBgRV8seiGHnbXlam/cdl3qXH2Qb7D+nxt33lI3vayN/H47wbPJTo0TjeCwRBEISv+O3Dg9yyk9T8Jj44nYixs9IBOWioBh9cNK6iW0VOIH94UAxUmVDlegBPdYDPHcBidTBM00CbdoOH2g/CaTfIpmmAT49le8Y80Ka5fJd5fL+JTTgczkcit+FwYRWGZbL9awN8chEYhyNbmjBNrZfd4J+e9rsY+7AzIpvde0qa6bhF+c4HDlXqVo21jSla+Vq+/YCkGsaBSz1cD4IgCKJT8ZuFp/UoFztywQkxcTFobenDxJDu0nLl9rr0sCAjwYK2ihr3o5VbWOMrBtHcihlbStEWl4IV0UrWvFyjdSifiYh0Q2wIa9hZ461ZjgprMDgzHfNkrsBN2Z5QREcLa+xl+WwyiilTnth3tl4220/4wa3Iq7ZgdKYyQGilJR4Z2r5jkaPWix8XUrBYPS5PZTN6pWZjWmO+yF9bYsPgcaoLiguSdPRjIkapczHOsnVNFrU4Vn5EqVZ2r9QU5ZzVHcVPZZoQYGJ7pQx1vC/314MgCILobAIkaLkPQkKBkOQw1KjurOJaxKTPRCK1AT5gw+EtslGtq8ExmwXhfflCLEbE1SBPsyDYsPIga6ATYmXjXoOHjNaFI9WoRCgGmgSNq7I9wQRJqgWVhc5GMmeiYlws2owDfx4pFuJmWJK88Eww5ElxZFpPw1AvNl9UYUOvCHYzeVM2p1ofh6uovAptlnDFohMdi2EoxXptjC52/rggSjTETXExo543p+fMFZ6uB0EQBNHZBFQvrdriAj2+5/QHKLeFICxELhOesVWhqE7O80b0JWlJibagHxcearAznwzuK868XEOewY2j4apsT4h929B0Ti47odNjVMItmnBod9l9w9GLW7UM58zoGusQXlwPgiAIonMJEMFzHq0tQO+wPnKZMGPDqSZ00ALA40dU14qcZKwLdznlcIuDlleMSmWjjlNnw1k564p+kUYhYcHAcDnbXppsmuuvQ2Wb3FFy6rQ4G9fXgyAIguh8AsbCU1tdi5DksYiRyxgwFkmWWtS4ifu5lNj4XinaLIb4FM6IdO96aQkXVCxy3HVjtzVpImderhMLT7upwREefzPdWfds6YJSY184I3iAcg12aq4kH4gejsXcfXaci5IOls1dVPbn21fONbFrZow3knhzPTwyEctfscJqfRXLJ8kkgiAIwiV+66UlemGla3JGo9bQW4v35JqSrPqwavHBNoOLyw8Eci8tgX3vH2PPHt5riPekcmklsOsVxNB7Hdn3RirF2dR4NG3Jx0ruxvJYtme4y0ztCcVx3UuLx+Q47ncw254HF/90Tyira4qsm7neHHMvKzdlM0QeDzpWz6E4v0pgtBL346Z8h3PC11XrJRIE5v1zq45atrvr4R0Tl72K+2/shZM7cvHwKzKRIAiCcIr/BE8PIOAFD2GHc5FxyTD/aVinR+GjP9yFVXtlGkEQBOGUgApaJgjCG+biaauVxA5BEIQPkOAhiB7HJjycm4vcXBI7BEEQ3kKCh+jB1OChZy9RdxZBEAThEyR4CIIgCIIIekjwEARBEAQR9JDgIQiCIAgi6CHBQxAEQRBE0EOChyAIgiCIoIcET8DBP6Y3G693ZEgDwgT/2jEfoNOrYTjs4V9f5oN7tnMYCGXf6frwFgRBEES34HfBw4ePyJm1AGMHyARBHyRmLRDp5mkmEqndN8CHIzCMsN2hsZgIgiAI4tLBj4JHETU34pST8bHO43jBy8jbZpiK+VoX0NqOMSSDgbMN9gfOLT/ZGN1UrI+ufTyufVaLS4yiPfnifBnH2PKauqP4KT/XHRkl3TAwK0EQBNE9+G0sLW7ZSWp+Ex+cTsTYWemAYdBQZ8SMX4CkljzsPnpepnQ9gTyWlhiEMqHK9QCe6mCWO4DF6gCjxsFF7QerNOUx+PaZusXINAinx7I9YTcIp63UfBymfZsH+OSDjvJBQ9djojYIp1o3Z+fEnGbcr7lcHdd1Mw546mxgT7EvbWBQx4FLCYIgiMDBbxae1qNc7MgFT1jSkBRbi3I/ip3AxoKMBAvaKmqcix0VSwoeEKN9b8WMLaVoi0vBimgla16u0TqUj8Ph6YY4IdboJ1brlqPCGgzOtIs7cVO2J+blpqMfEwxa+Uaxw2NkMkOZGFH33YLRc8z77pXKhAUf1Zzlry2xYfC44chg6UXlVWizxCPDUI/BEcbzxL/EzMstdmFhUcSOq7pttCppedUywQgTaQ+ktiBP3U6cs2yvzwlBEAThXwIyaDkmOQko+8CJ64twD7diFGMjn62rwTGbBeF9+UIsRsTVIE+zyNiw8mANeiXECuEghIHRWnOkmgmEUAw0Nd6uyvYOfV9mMpLigZJ9uuXlSCkO21h9ja46bnWR9VNETrhikak7ip3VFgxL0oUbP86ddpYYV2RMTsFgVvZ6L9fXsWDFuFi0lZQq54NzpJgJI2NdCIIgiEAi8ASPsO604lQNWXd8xlaFIs1lw0TNS9LFEm1BPyYGctRgZz4Z3Fcc7r7R8owuHhVXZXvBRms+DiMFD8jyjXFH3CLDLTj6vg1uN4nJsiViaqTwYmw8bhBuI+IwuLpaFyEe4PtGk8291cwNjnFWBEEQRKAScIKHW3dCaj7BcWpLDNhwqsm1lcQ7anT3izpJ9w2PRcnhFiAtz5ULqL0oAkmUvaUU/TLNoofHx5jqxSavY2G4NUq6teYlxqKSCSBvqWzs2E3WL9KozCwYGC5nCYIgiIAjsASPtO6Ulx2XCYTKxvdK0WZJwWLj93lGpHvXS0u4oGKR464bu6EnEY+5cbDwdBZ1NpyVsxxhoUmd2IHYlxqmebh7LRYjwkuR50PQsHCPxXl5Dk3YUFRhY/VO0WONRqRgtMV7d5pg0nK8arXC+spyTJRJBEEQRNfgt15aGJCFnPQYuaBTq/XW4t3Wc5DUUoy8/d0jeAK5l5aAB/iqvaQ4xp5Sak8qY0CwCbteWgy955G5pxKPTTmbGo8mtVeTx7LdYdcLiuHQ48nUS4vDrU2K20rtpWXfQ8qEPC/wWC7HrreW/TnVemk51ptjrLu5l5arXmDumIjlr9yPGywn8Xbuw9gkUwmCIIjOx3+CpwcQ8IKHCDrmPmPFrREf4bn5q7BPphEEQRCdT0D20iKIoGf+07BaSewQBEH4C7LwGCALD0EQBEEEJ2ThIQiCIAgi6CHBQxAEQRBE0EOCp5MgdxZBEARBBC4keAiCIAiCCHpI8BAEQRAEEfSQ4CEIgiAIIughwdPJTBn2NxTOKFCmaU9gikwnCIIgCKL78LvgCRk+EzmzFmDsAJlgIGb8ApGnTs7WCXR2H/tvZG7PQubBCplCEARBEER340fBw8fKWoAbcQq1MsUIF0JjUYy8bS8rU3EtYtKz4Dj6FkEQBEEQhG/4TfCEDJ+CsNKXsfvoeZlipndoCFpbDHmtzWiVs8HFXDzNR8h+Zq5cJgiCIAiiq/Gb4Gk9+qYcFd05tdW1CEnOkW6sPkickISQmgqn1iCCIAiCIAhfCJyg5dMFyNtWDKTz+J0cDPw8D3n7j8vMYGITHs7NRe5Dm+QyQRAEQRBdTeAIngFZTOiMRHMBj+EpxoXkHORkpSFEZhMEQRAEQbSXABE8fZCYEoPWst04buPLx/EBEz21liQk9cCeWgRBEARBBBaBY+FhhIT2kXOMAQlgEgjNQRe5LIOWX1mOiTKFIAiCIIiuxX+CR7iseHxOuuhqHiNiddRv7ZzH8YJi1Mamy3XYlN4b5QVvSotPMFGJJn5Mlh8gY5KSQhAEQRBE13JZXFzcd3L+kmfGjBnYvn27XOog/deh8PpG/H87H8NumaQy9xkrbo34CM/NX4V9Mo0gCIIgiK4joFxaQc/8p2G1ktghCIIgCH9DFh4DnWHh4WNp/b9JvZSF1g+dWngIgiAIgvAvJHgMdKpLiyAIgiCIgIFcWgRBEARBBD0keAiCIAiCCHpI8BAEQRAEEfSQ4CEIgiAIIughwUMQBEEQRNBDgofoJKbiz7t+h11vzWFz/uPn69k++X7ZlLdyiEx1xmSsmlaAP/aXiwYyJmdj+4PpmCeXfUHZdjaeGSETOol5ubNFuXx6fbJFpnYmsXjGRdn80wrbh02WSwRBEMGB3wVPyPCZhiElzMSMl8NK8IlGSie84E+Lf42pU3+NNytkggvuHrsUY21W/OKMTPBE9HC8zgVHbqxMYIxIx/aFw5EhF7uSjdatmPHsVuRVywQ/svvYO6hLWupUHBIEQfRU/Ch4+iAxawFuxCnUyhQjXAiNDS3H7m0vI49NH7QkYcr4RJlLBD67cDcTHlNv28LmAoz+6/DfAyrwtw9ekglOsDWhUs7q2NAWHufW8lO0J18Ik4eOyIQextkGZ4PVvYRf7PwQ0ePW4W6ZQhAE0dPx24cHuaBJan4TH5xOxNhZ6UAxEzWnZSacpFnSMCUrDOXbCpwKpK6gwx8evKcQj446jA31WViUprgKmg88hedXbBDzwCJkvfUIxoTKxZb92HDbHahjs9ErP8FMlKE5bTzicQI7rMD03CFAxTY8uXiZsj4vn6cJbDi0eiQKCuViFzN15WN4JE23uZ2w/hp3v6jMm/Iq3sHUxXaSJ3MO8palordcVKjGm1PX4U/3LMGuUeV4qn6CVsaFA39GzooTYh4YgqfeuhvjtHNWgqeciCru2sqqN26nwl1ZSxHxaZb31h0Ot/DMCcexklAMwz78dA8TBtzCM64Ja186iiLhEkrHYLGyDYe35GMlv5AmjOswbKVyW467PB3u2prWmK/s3wivS6ZufaosNIouC1YszMZozVtVg7xni7FRLnnL3WMLcIttDWYc2yNTdMR4cPEn8Xbuw9gk0wiCIAIZv1l4Wo9ysSMXnNKK5lY5y7GdxwXWRIZ0RfhCV5IwC4uiCvDk1EF40noCYWm3I1VmRa+8HfgjS+d5U5/CIYzHzJWLZC7YusloWM3SW4Zg+rR6bFi9H80Jo5XtMzfjvtwoJnLk9tZ6jFlWqJXdpTDB8su0RiZQFPcRn1Sxw9m14gmR9tQB4wVUYYLlF6yWTMSIba3cR9OKg6uZ2FFWYOfsFjwS9Z6W3zvtFvxcZk1deQs7Z+p+/4yD7Ih/6TZWx46Qybg+pAIf+yJ2DJzaU4qzCbFO3Fg1eOhZ7nYqdmIZ4iiCpl+JYgESkyZouCAx5uXjMFLwgNF95hZWdmK1Xm5hDQZn6jFIGZMnYnRTsZ7fDrHD+fOpCvQeOBlT5DJBEERPJkCClo+jpiYEScm6CytmfDpi5HyPglttVIvMi4dRhShEZyqLdSsyDRaZDSj51IawqAS5zKgo0PKrdiqWH5XoSclMNKzTt3/xDSGMku+Ry275Gf6Qn498+2nL47hZruGZOKR6tS87MsdieGgrju6VlpcXy3ECIegzVFkUcKuNahUS+RG4Tp6zXSvW4RHtnJ3Ark9b0TsqTi57QUgEerc24jO56Ds1ONKUghwfg5IzJqdgsK0U6+0tM5wRKRhtqcFOLc+GlTtK0Rbn3n2mw8SWtUbOM45UM9EVioHRcpnjdVluYOftAjt/xkulsumhXOSSdYcgiB5EwPTSqt1fjNrYdC1oObaaLeMCWp2FGPRUuJVm10k8KifV7eUNMVEWhKU9om376C6Da8wjf8Evs7ORbT/NeRzvyjXcUrgFOdZqDMmVPaJ86YlVeJYJtxAMnyStMvckYQiqUWKwELmFu8NkLyw+Gd1q3jDFYlQB7WPje6Xol+it9UVhcAS7tk02BxeVhtOYIe8x9uLiPcw01xiDxxXlVcciR+a3u5dX6+fs2kXjOuo9QBBEEBAwgodbeT6QAcsiaLm1D3rbmpnkCRZW485l44EDT0mX1iBsOOCbmuPxQOq26vSaV8KhEyw8L66TbqVf482GVDziteipxvkWoHfa3YpoyY3DCavBneWWqfjzMoM7jE3O3Wau2W1zCKzxnboaHAtPwYpIuewFlY0erq0l3CRS0Dcccox9j/Cu8DlxPC5Hd1nZiye1lxfPO5ua3T7RE3Idkzt1+Ny3U04QBBGQBJDgMSAClgfi1HsHEGzP2uYzMoA5czNm+mDhKfmYxwMtQZZ09fhGBy08dnxW78NVuecWjEMJnpKChU/G+B9vqDsj3WEilshHc4Mbt4z32LDyYAuGJXhtUkNReRXa4tKdf59HuKBiMU0TIRasGBeLtpJS72NtDBaieblmC4+ZFm5oah9u3IE8aNlqfRXLJ8kEgiCIAMdvvbQwIAs56Y5RObWyZxbvxTUlWW3MavGBH3tnqXRKLy0ebCx7Xgmrzq4sNMjeVLwnlu7GOoFDB6Iwhgc4L16m5In5CtGTK3LnILz22WbctywKxVMzmWRgmHppcU5gh5rXhdj30NJ6WIl5u15UKlpvLef5Wi8v3ktrWqOh5xX/gOEEnF/9hIjdMe+7GgcPRGAcD3AWZfN1b2F7MGPu5aX00rr+lPPeRi6RvbR2agG/sleV2pvKrpeUgl1vLVFGim65cddLq7oYM7S4HLs8SVuJ2lvLnM+F0tnUeDSJfdv30GKYyvYed720Ji57Ffff2AttHz6Hu1bvk6kEQRCBi/8ETw+gw4KHcMRB0DB4Wi4MoqmL6b8OheOAv21fgj/LJMIDIU9g+7QIvOPqnM1/GtbpUfjoD3dh1V6ZRhAEEcAEpkuLCBqm9o+Qczo/HxUHtHSk55SPnFmCv51OwH+PXSgTCPcsxB+n3Yi6g87Ezlw8bbWS2CEIosdBFh4DZOHpCpy4tFx8PLBraecHCC9B+Fha9+EF31yABEEQAQ4JHgMkeAiCIAgiOCGXFkEQBEEQQQ9ZeAxwC88777wjlwiCIAiCCBbIwkMQBEEQRNBDFh4DqoXn3//+t0whCIIgCCIYIAsPQRAEQRBBDwkegiAIgiCCHr+6tPj4O7fGywXbR3hu/ioYP0qvfq5e4STezn0Ym+SSP7jUXVo/eGQFfnVjCE7+/Tf43csyUXLLs7/FrYPkAsPZOgRBEAQRqPjPwjP/adyKt5Gbm8um5/ARbsD9z8yVmQyWf/+N9Uzk8PxcvF01CLe+shwTZTbRlSRg/qbfYj4qmMx0hAuhW/EP3DPjN8r092oM+vE9uEXmEwRBEESg4z/B88rDyH1ItdfsQ9G/2oCIgVLQTMTyjEFo+zBPs+hsevsjtFl+gIyeNhozH+Bz10ltuvMemS7gg4nqecr0iWEEdHP+fSsXyfSu5QePzEbk3t9g2VNnZYqZQZEhsDVUyyVGZRMcB+CWQw4YRSxBEARBBAgBEsMzGOGWNvzrgOrgYo3nL29AL/Yv3H7I6ICGCZZRh/Hk1EHKZD2B+NxCpMrc1PWzEF+xTclbvR/NLK3KqoykDixC1luzEHbgKbn9NjSnPWInmLqGfz210q176p2yalhuXIxfL+BLCZg/fxQsJ4+BvlhEEARB9BS6R/BMWo5FN/bCySJzDI+w9LxihdV6K7CDu7WAqH49yam1DK8tXibnGS8eRhWiEC0sOKuRnMAEzscyv/BdnGgBwvpLK07mzRiC/XhzxQZlmZVVeMCG+FGr5bJ7fvZ8PvLz7ac38PgUuUJHePlF3DPjH8CPf4sXty/GD/61Hvc8uFtmqmzCw9wdqVnxCIIgCCJw6AbBo1hv8OFzePgVmSTohRt+eT/Ci5QYnodfmYiBEUD9WbMkCnRS1xvdVbOgxmgDFWhgAkcTMFzghNpwYq8UOEOjEBY6HosMLq1FaRYlzwv+cl82srPtp9vxuL0uaQ8L7mFCZzwafs9jeP6B8zcuxoubZuMHMpsgCIIgAh0/Cx4e53ErBlW9jbtWG4VMJZpsQJtJBClurqZKudgDiF75CaYnnMAO1aU1dRuqZB6wAXUN7E/CLEXQLBsPHFgn3VmSlv3YoG0rJ6PFyA1dZ+FJwPxJcbB9uBWvvMuXd+N3TPSctIzCrcLFRRAEQRCBjx8Fjy52HN0eShBzrxsXYbkMUp64bCoG2f6For3Kco+hpR61clbE7Mh5ZG5GukkMDcLzmvuKwd1foeMxs52Byl1q4WFYIuPkHGPBMAxCKxpMYlQGLVPPOoIgCCIA8dt3eMzf2NE5uYO7r5R50zpOvtPT1XT8Ozy8l5UucpoP7EdzWjIaViuBydzdNT1BZkqaDzxlED7m7TlV1kF47UW50FVwl9WPDYJGon9rZwp+vf1HTOSotOLD36+UFh8VHn91P26wtOGjP9yFVT1NqBIEQRBBDY2lZaBLPzyYuRn3LYtC8dRMlMgkJS0ZJ6Qg6umID0tG+F+oEgRBEIQnAqRb+iUAD0qWsyrRk5JZWj3qerrYmf80rFYSOwRBEETgQhYeA109tISjS4vH9BgsPgRBEARBdAkkeAyogocgCIIgiOCCXFoEQRAEQQQ9ZOExwC0827dvl0sEQRAEQQQLZOEhCIIgCCLoIcFDEARBEETQQ4KHIAiCIIighwRPV8I/LLirEKlyUYF/TfkkHn1rM6JlSmfAx/F6dL3rkdVFvjowqZv1vOKewk6vP0EQBEF0JX4VPDHjFyBnlpyy0hAi040o68xEovcDhRNeULdipBi/a8MBm0zpOVjuKMDwH02WSwRBEAThO/4TPAOyMBbFyNv2MpvyUI4kTBmfKDM5iRjLhFBsSzlaZUpwsgyv8cFDb7sDdTKFIAiCIIiupdu6pYcMn4kp153C7oIDQuDEjJ+JkLI3cRxpmJI1EKcK2LyfjRGd0i2du3tyh8gFjv41Ze5WWpQmTVcV2/Dk4mXKvIbd4KEt+7HBKIzsyjYOLCrKjirADszSvubsbOBRdT2HfZvKtuGQ3fheprpz7OvWBVz9o79h1FjHAWdRacXBzS+xmcnod99SfP+9LDQmFSBpMM9sQ9Vf/htnz7DZG9Zh3IRGfPz8Y/iSZ2Eh4h+9Bf9W8xnmfVSg/Mkl7OiNuBvlnyAIgugpBEwMT+1+/wucTofH7ORGMbEwSLiPnly9H80yi+PJrZS6fhbCDjylbOtgBWJiaNRhPc96AvG5dvFBCbOQXi+3d5bvCvt6W+sxZplhWyaGFqXVM+Gm79sffPmP/8bBJ7NQXglc+GCNmBeTEDs6/bILENug5JdX9kL85IUyxwNMEI0aW8dEjlLuxx9EI+m+J3C1zCYIgiCCh+4RPJY03JgcgtpSxboTLKTOHA8cWNehkc/Drr/ZRTDwMrxmtMq8eBhViEJ0plzmVGzD8ys2KPMifwiS71EW3cEHMTXV+8U3cKhF3XYRsqYNQZW1nWN+TXkcb+TnI99+ev5ncoVOoNKKo//YI2Zt5RVAxHVeiRZLUgLO5usWnS//8Q7Ohl2PsP4yQbAJD+fmknWHIAiih9MNgicRY7OSgLI8fHBaJhGCksVP4RDGY5HsTXWnnVjhg49qPa2Mri+nVKChRc56ICbKgrC0RwxlP4IxoTKzo+x+HLdnZyPbfrrvL3KFjnO23GDx+WgJDmouLHdMxvcjFOvQuEfVKRf9ZC5BEAQRXPhZ8PDA5HTE1BRj99HzMo3Q2YCC26TbaPV+hOXqoofH0ExP4PFAMn/qNlQpWS5IQGSoDQ2fyUUPNBtdaXKyj/9pF/6w8HSAs/nSTaZNenwPQRAEETz4UfDoYidv/3GZFlzU1tsMLqnVuHPZeISJ+XZQWGOK/xG01KNWzvJ4H3cWnuiVWYhvKUOJF+61ko9PICxtCbKM7jGNDahrAOJHyW/3iHgfY1C2BzrBwvNlQxt6J05uX2xNWITcjgc4Gy04e9B8vA39stfB/RcQeNCyFdZXlmOiTCEIgiB6Hn7rpSV6ZSU7fnmntvhl4dpynt+Kcj/21up4L61FyHpLdQfxnk4FiFw2GmWil5Yxz4DWW8uuhxaDW120mBy7/OYD+9GclowG2ZvKfS8qT/tmuOldZt43S19dj/RfAG/6rWu90hsrXlWPTnppVX2kZNnDv+Gj9N7i1hwrkO2ulxaj+UNDry7ORCx/5X7cYGnDR3+4C6v2ymSCIAiiR0GjpRug0dIJZ8x9xopbIz7Cc/NXYZ9MIwiCIHoW3RC0TBA9hPlPw2olsUMQBBEMkIXHAFl4CIIgCCI4IQsPQRAEQRBBDwkegiAIgiCCHhI8BEEQBEEEPSR4CIIgCIIIekjwEARBEAQR9JDgIQiCIAgi6CHB0wXwrx47G/wz4BmRju0PZmOF3XDtGZOzsT03Vi71YKKH4/UH0zFPLjrAj3/hcGTIxe4jFs84uQ6dxbzc2ew6K9Prk90PrBHI8OPQ69+156xTcXafiXuTXZNg+J1dCrh4VhKBjV8FT8z4BciZJaesNJgHkuiDxCxD/vhEmU70BMyNjz0WrFg4G8+MkIvdxLwJKUBJKTbKZTOsjuNiUXnwKIpkilvUBkqdAkIoecdG61bMeHYr8qplQk+Enf9pcTXYucdP48502j3s433WowmM3z1BqPhP8AzIwlgUI2/by2zKQzmSMMUgakKGT8HAz/NkfjFqY9MxZXgfmduzqFsxsvNGG/c7LTjlnwGy/EwsRrhrIKNjMQylyDsilz1RdxQ/ZaKBCwchHppS8AC9nfuNjKR4N+I1gHF1n6n3k7VGJhCBT7A+K4OXbvvSshgs9LpT2F1wAK0yzQi3BgmB5MeR1Tv+pWXjIJt88FBlYE8BH5xzVD0ORY7HmFCWZy3DkNzxCDMO8slHIncYYd04iGf3wF1aD0SwhzTSkROnpFUWbsVD7KEt8lKdWHaqi8XDm1t+1G2MtJXk46dcfHDTcGI11jYywSDL0fIE/C0xG6O1XdQg79lic0PHrS1zuPXGuJ0Z9RhcNSi8ntMa9e3tlxWUuoQfVI7diLPy7c+Nes40+LFn6iJJP27unklBU2EVhmWmQAxtaivF2pd0q4D7svn26ZBjpjpsq+L8GBku6+Ud7urmOo/XOQ5NJaEYzfLbSopxLCGdXXcbDm/Jx0pTwyLPjynd8zkz34t6uZ6u9ZFED/cww+O1ljjbl7Fejvf+RKCihZ0Tdj3Yb0r9DRrLNx+XgvfXzO5ekb9bNR1O7is9ze63aTjfzurEMdXL7j6zPyZ+ntZjonZeXZ1TBzw8U/i1Wox92BmRrdXRXLbdORE4uw9dI8bfiz+Jt3MfxiaZRnQ/FMPTqSzDa1MH4cmp21AlU0wkjEfkzkHYUWHBmNwoFPP1QpORmskzFyHrF+OBA08J69CT1hMsjYum7hU7GnHp4gHErRlrS2wYPE5x4RTtUdK4e4Q/VFSLh9rwK+6TfBxmzxr+UFHzTQ9jVrYQCzxvSymQOlHzjWdMnojRTewhrJZrL3a8IhY5qcDh91y8PTtxj1Q22tArwn54eVdYkJFgQeVxQ/mszMWpLUyc6cdseliLh30oe4jq+eYGyoLRmeHYKfKKUWlJQY7qGmDbPmAsu7AGgzPVeALeCKWjn3Yt2LmHL9Yn9rB3Wy/3KA2/i+N2W29OLEbz+4Cl90pNF2Ijr9qCYUm6kOBkTE7B4OpSJ42P63PG65UTzhpkue+17Ec1eo4Sz+XpWnu8hz0el8SFG869i5EdU0IT1rLfRZv8DYrfX6K8nmzfOaxMZd9KHblo8faazcuNwxG13vycsX0oLqgaHGH10fbDibagH0+X15NfB+xQt1Xus8XSre35d8/uMyZK1HTlnJnj63qlsntJPheMzxyvcPNM4fCynT3POPNymdjhwk9u28bSKgu9FztE4NI9gseShhuTQ1Bb6ty6I9xfsa0oL/OfdccvtOxHoXRzNR94wyxkMm/GkFAbTuzdoCy/eJiJJgsihyqLnvjZ8/nIz7ef3sDjU+QKHcXwEC0qr0KbJdzuDagD8DdD1TJSV4NjNgvC+yqLgrg414HGHOkOcPmQHxGHwbYqFLl4YHH3SK/qapOQKmpokXPK26YSnxSKcIsNTeeUdCFaRAwPe8t16g6LxQin8QtMlIyLZQJxn5uHKH+jVMWd0vj0i+R1ULc1uHOOsDd/VRiMSGFv3MZG1YaVO3hj6eEcmnAUGd7BhSUTfoXORKmHegvYMauilN0Tzt2LTsSlhqtzJutliJsp2rOPNcbK9fHqWrvEm+NScHafeYNeb0exNI8LEq1MG4oqWH44O0di2TMbrcZrZTxnLO89831j70Ys2lNsuH+VfXv/klCDh4zWVrbjSnbOBxpFouG54PMzx9MzxeXzjLu+2TlX7y+xrX5OvGXTQ7nIJetOwNENgicRY7OSgLI8fHBaJhlhYmhKegxqi9/EcfNvO7hhbzjN7OE5ZNIiZfme0YjHCZR5GQf0l/uykZ1tP92Ox3fLFXoY6gOGW5DyqlmDJYODlcbIF5QGyXWQqAvrz7kmtImGgz0A2cP5rPYgN/jtWcMm3gL5dDAcDzxoeEPlIky8tToLauaNKXC2of03uNttbU2s8WgvrCESb8TZUsy56dVmj7AAuBcJHTlmARd0vsRaabiplzfX2gOej8uDlbGdcOuU/kKgiMG2ihoX97oTNNGuTCY3lGjsVdHOywaOlRuOk7uSDdsaXXrewMWlvm97FxLMxyFeatpj3dXxTrS0oIkdombZ4jFXTPiajpvosfhZ8DCxMysdMTXF2H30vEwzwMWOOzEU1FSAv2iGpT0iurQ/mjsEVVbv3VldbuHxM8YGRDX5c5P7WdYQ+yR6xANLN8M74Mr6U2fDWf7Wx/L7NZbiCFijwht0V2LC2RuqQRCJoGZN9CgP1Y5gfnhbMDBcznLs34T7hisxLd5iCMheWxLKxKaXooefMznrCrf19gJu0fCpQdewe8OXolPg67V2gsfj8mBlbC+KdUp9IVAsjetdWTrt4YIlk70MGFxOZreaYrURjb8ItjbWPxbPyLg5dVvuGvIW4WLUXHF8Ku6ASPcO78S2Daea2J84KQTFMbqzxBI9CT8KHl3sOA1ENogdp2Io2LnndozBfmwQMUDK5Esvr+628Ig4iIRYF6Z05SGivTW5QcTsuBQoLoSCfNN0JoQ62hV9YKTyVlvZGIoRE5hwYBVwtq6IK3HToIk3cQ3ZkNjFLHiHdB2kpujbGt1YQnjFYpp2Lpy4XHzA6O7RYWUuVBpYc5wKd4lYMHq6s1gLD/X2BhcxMJ5RXDXGOA3lepktRe6vtat72Jvj8nyftQ9ZrkGwzHASnO4es4vWPtBYuHuYMpyXFI+zTuqviQh2bRY7WHg8/O4NglLEzch5r1GtUx7i09w/U+yQ95gxBs3beCgjPGjZan0VyyfJBCIguFL+7XJCho9EDJ+JZT8qJnxUaotfFtacmOQk5bs8yTnISRZZjFaUF/Qg1xbviZU7RC4A8ctOYswy2VtLprnkxTdwaNojWLTrpExQqLL2jO7tPCYiIyEbDzyYggd4gtbbQ4HHCox4kD+glGVTbw0L20bdjjVOei8s3rAae2gxeLleP4C4P96GY++5WF9af3a6FFexGJ1QirV72PGxt9vF7G2PCwcBf9gaepgYe6hw7HvtKMel53NXHcDP12zkKEnmc+IGx22VHiTKOavBQ+z88Y/wbU8VCXbnzK4HSpyynrZv++Mylf3/t3e3MXFVCRiA32R/7I92BtoShCK2CLKORSopjgGn1dKyOoFIKnFJq/WjK25s9IeajWylxlg0mK01fmw3W3aru7oa1iDBbTMmUNQWS1qttAhLdaG0pRWK1MrMkv25e86dc2fuDF9DGe4Ml/dJbjLnnHvvUKDwcj7umZ7sjUP5ZsPXU4Q98QtZTlye+uOenn8OzNUFt/Efl/HrMc3XWpnse3jaf9eU32dTfT1U3aS8qDk2IL5e4pe+tvBBCftenNRQN1rO5aJsi7helsV1J87JnhwDec4V8e/Kk58vVacR5Q4vngq89wBOiPKapVpjwOSfs05xT1fg6yE/12dW+Ne3RsWkP1OmoX1OxL/X8P9SivT/pu7MD2PiF8Ai/KJgLfD5EVVLsRazZenxaPbL0mdBhqWNw8El6pIWoBDzZelzSv6Cve1KZD+gZ0gLHWFLxY30pa8z+UFGsSKDQfhS9Plh7r7P/H8QhD4mwV93Y98C/r6ezc8U2Vu8Ra70MwQkrW4lTs/ke++R3WgoTcbXbzyIlz5XdRRzXJYeJ1KWJ6tXQXm3ZIk/PocxqMo0M/Iv78nCjiT/6mfYmS9kz9X8XBo8d99nhnlIOq03KQqTwxeqCea7aT2LiHQC+0PY3dDAsBOn2MNjENMeHvkcno92IN+4qtP4UEKrmsMeHiLLGzcEqQ8hhg2VhQsbcraUWf5MkT1yoXOZZjAkRnGNgccgtoGHiIiI5goDjwEDz3i/K1sLZ+a1qkREtDC1fNOHPzQfVyWajxh4DBh4iIiIrImTlomIiMjyGHiIiIjI8hh4iIiIyPIYeIiIiMjyTJ20nFq4DU79kRHeHrR62uFTRaS5UebSNp/wm2zPrTnESctERETW9LPExMQX1Ou5JQLNhsRTaPqkBd92n8f/bnDBmTyGbwfURqG+XlHfoQ7RnvNLrP75efT/8F9/uwkcDgdOnz6tSkRERGQV5g1pXfQYemwuY/C8D0hY5t8wdJzL8E20STMRERHRVYjTOTzZSE/34YLe+0NEREQ0C7EJPPYC3Jpjw2CnYQ6PYFt1H8oqtonDhdSBU/iO+98RERFRFMQg8GTD6XYAXU04flFVKb7uD9FUv187WkdXo8xdMMmQFxEREVHkTA48IuxovTdtaO2eerjKN3ABPnsiFqsyERER0dUyMfAEw04ky81TcxywDfRhUJWJiIiIrpZpz+GR83OKcsYPUA227deGtsa18zk8REREFCXcLd2AgYeIiMia4nRZOhEREVH0MPAQERGR5THwEBERkeUx8BAREZHlMfAQERGR5THwEBERkeUx8BAREZHlMfAQERGR5THwkHmWv4XmTR5xvIXfqCoiIiIzmPqk5dTCbXCmq4K3B62edvhUMWgZst1lcNh96PF8iO+8qtoEfNLyXHoUf9xUDhxz4/HvVRUREZFJzOvhSXPDiTY01e8XRxN64EBRYbZqDLKtKoJjdJCbhlqN7TqkoA8nGXaIiCgGzAs8Fz2GzUAvY/C8D0hYhpDtRO0FuDUH6OnqUxXzzPZm7NxXi5SaU9h5qF87nqypVI1SJdwf+eu1Q5wb5G/buh3I26efcwruYtUsyfvr14oj9N7G68KvlfeW5VpsDbQ3I0+1EhERWV0czeFZhuzbHUBXq6nDWFGXWYHKZA92bcjArtqjQMETgeCRt28H8kfq/W0bXsZXSRXjQsvK8n64hl/WzjnQZ0f+fXooEmGlPBlf1cpr/ceb1XWqDVrIKk06ijrVVtcO5FcZQ424V5UbI9r14r1Hs+AKe28iIiKrik3g0XpybBjsNMzhSXPCgR582X1ZVcxToyJ0PFblf938GXpH7Ui6QRZqkZPZiwN6G+rgaelF4k13IkXVaPrqA0Gm42QvkJRuaLcj646JQkotigvsONtyP4ZUzVD1W1qoydmuKoSzDavhaZav6tDxLy8SkzO1+un8+s2DOHgw/PgHXihSJ0TCthSLfT/i36pIRERkphgEnmw43bInpwnHL6oqWedajJ4vJprEPP8lLhchpTgdichCaWBISRzlWeqMoLMn9UAk7C3Grnv1EFOFd7Ueox2TDEl5MTJHaeIvT5agpCT8+BVeaFUnTMX2IhrlyqxrT6K45XlEcgkREVG0mRx4RLCpcCF1oA2txp6ctEykwgaHexvKKuQhztHLE0xsnm9++l4feurFATXkFDgCgSYCzffjTXVdXXuyCE+hQ1b+niRdJpIS1MtZmlUPj+95bGp0o/jCLWje+CJm0ilEREQULSYGnmDYCU5eVuSEZm31ln60YRByWbp4HX7uPJJS8wTyE3rRtVcUtOGtLJSGTFS+ekPfD6tXUhXkPO+VG/8eGP5KqXFj5ehRNMv3nqVZ9fDofD/iP7alCMlkREREJjEt8NhWrUaqfJHuUr04/sOZpjVbR0IhKtWQVWXBMA5sKEaH1lAHz73+icqBIS1xhE9anlTYCq2d2gRm/d5Ax2MZODAS9t4z6T0iIiKyMFMfPBjvZv3gQRlKNg6jjkFjPDmXZ+NSfNL4BP6kqoiIiMwSm1VatPD4zosQmILrQh68REREZA4GHjLJn/H4sSE4N3IvLSIiMh+HtAy4lxYREZE1sYeHiIiILI+BJ0oyMjLUKyIiIoo3DDxERERkeQw8REREZHkMPERERGR5DDwUJXZUP7oZjeXpqjwz69aXoPHpzXj1ZlURFel4VdxT3rfx6RJUh2xLHyU3u+bu3kREFDWmBp7UwuCWEmXuAoQ8g85egCLDlhPaYYGNQxc8LRBsxnvr7apChZurDEYzM4Bn9nyATXvacEbVEBHRwmRe4Elzw4k2tTloE3rgQFF4oPH2oNW4ieg83jh0oRr7cVS9MvB6gcx0rFPFiRz+9KAIJh/gmW9UxbwyigvcS4SIKK7F7MGDtlX3oei6C2j1tMMnK2QPz+3Al3o5Bmbz4EG5LL2/v1+VrkYtth5ag67aYbiqCpEoq0aPhu7LJffqKs9SBeBsQwbe1XZD91870p6M/AI7fmqvR+9NFchP8OKr2tXwNMtzKuH+aIeok6+FvnrseqxKFfxSak6hsgCGa6JA9vDcdgUnruRiyXf+QCN7eJ5a2olNDQPiBDns5ML12slenHj/IGrCw4O8R3GwR2is4yAe+FSEKCllFd7bkotF/hJwrk3d10i+Ry6uTHBv7WPJ03ufwt9fDtOVYE2gc2oATXva8I4qERHR/ME5PHElC6VVyWjbkIFdG+pxNqEQxdtVkww1t5wQ9bJNHA29WFnejDzVKq/NT/Zo9YkFFUhqycCBPjuy7vDvxp63T4SdERFytOv9u7ZHvFN7FBz+ohPXZE80jDXNsJMWdhJEEJHn+I9A2JFBRoSdS816m7jHClfI8NmURFgqw5HAfV/rANaUrgr0RK1bvxZrrogApdrl/Rl2iIjmp9gEHnsBbs2xYbAzrDfH7jDM43EjVVUvHLJHphji965Qha4+IHG5Hkqq8K6xR2bvCZxFMlKKVVle+6FqHz2KZq3nR1eLnMxeHAhcXwdPiwhGN90J41zboerVIgxFsXfHaGgAp5fkznByrx3Vt6VjrOPI+F4fYd36XFzv7URTYBhMhKfmASyaZvgsYKgbzwTCkwhlPWcxZl+iepuUFSvwsHpJRETzVwwCTzacbgfQ1YTjF1WV5G0Pmb/T2rUYzgUZeiaXt68fOw/pRwVWqvppFacjUfYeBa4Vh2FozBxe1BwbxY2OCHtfNAlYIk6/NBIMJeNc8eKwejlzamWZvpLLODQmyHlFTefSUabaI+45IiKiuGNy4BFhp8KF1IE2tHZfVnUT8w1ciNlcnngk59eUyl4afUhLDnmptsgYr1WHcX6QGb45h0t5uZH1vmhGZZ6ZmkhExvutS9InKU3v4fISrEEnXtOHrN7vxJhq073TEBzOupRXwtBDRDRPmRh4gmFn+tVXy5B9uwO2gT4MqhoSRocDn4+8fTPo4Wn+DL2jWSjdV6sqJiZD1c5Dp+AODJNF2wCaOhJwY6YqTsuLw31eXF/smnBYyT8ElYuywLN70lGWZ8eZY92R9/oEeojsqC4N7eEJFUH4Gmctnnu7AQ0Nf8Nzd6gqIiKKCdMCj23Vav/wVLor5Fk7zjStWVu1Fawvw7Xnm7gs3WCo2qNNYq5UQ1Ku4aMz6OGpg+de/0Tl4JBYv6mTlnUypMBu6CVRz+lp1FZq2bFmi3wdfJCfHFZ6TYQkfVgpZGhpqBsPvN+Ja4r1Nheu6TgYXNo+zb3f+aITYyv0c0qwpM/YwxM23CXa5QTm4ITpSBzB4W/lHRdhScjEICIiMlvMlqXHo9guSydLemQ3GkqT8fUbD+Klz1UdERGZLjartIgs7yHsbmhg2CEiihPs4TFgDw8REZE1sYeHiIiILI+Bh4iIiCyPgYeIiIgsj4GHiIiILI+Bh4iIiCyPgYeIiIgsj4GHiIiILM/U5/CkFm6DM10VvD1o9bSP2yA05JyI9t2KHj6HZ2p373kF92T48OXrNXj7M1WpKcJvG+9ChioB5/Dxpr34RJWIiIhizbwenjQ3nBABpn6/OJrQAweKCrNVo7QM2W4RdgLniIN7acUJGWhewc0jJzF+J6lMPPLXu4B/Povtm/zHx/0rcM+eItVOREQUe+YFnoseQ4C5jMHzPiBhGWyqBmlOOEbN7dGJP7XYatjcc2fY7ub+3cwN7WHnhLY3I0/VB6n7T7Nreri79xRi5PVn8fujqiLECiTZfRg5o4pC/0h4vx0REVEsAf8HgSbzKI5oMdUAAAAASUVORK5CYII=;" vertex="1" parent="1">
                    <mxGeometry x="47" y="867" width="633.1" height="601" as="geometry"/>
                </mxCell>
                <mxCell id="54" style="edgeStyle=orthogonalEdgeStyle;html=1;fontSize=31;fontColor=#000000;strokeWidth=2;strokeColor=#FFFF00;" edge="1" parent="1" source="52" target="53">
                    <mxGeometry relative="1" as="geometry"/>
                </mxCell>
                <mxCell id="52" value="" style="rounded=1;whiteSpace=wrap;html=1;fontSize=31;fillColor=none;strokeColor=#FFFF00;strokeWidth=3;" vertex="1" parent="1">
                    <mxGeometry x="126" y="1308" width="240" height="30" as="geometry"/>
                </mxCell>
                <mxCell id="53" value="Forma de designar un atributo de clase para notificar que el valor sera cambiado a partir del html" style="rounded=1;whiteSpace=wrap;html=1;fontSize=31;fillColor=none;strokeColor=#FFFF00;strokeWidth=3;" vertex="1" parent="1">
                    <mxGeometry x="698" y="1020" width="414" height="201" as="geometry"/>
                </mxCell>
                <mxCell id="55" value="" style="shape=image;verticalLabelPosition=bottom;labelBackgroundColor=default;verticalAlign=top;aspect=fixed;imageAspect=0;image=data:image/png,iVBORw0KGgoAAAANSUhEUgAAAtoAAAJUCAYAAAArVIGbAAAAAXNSR0IArs4c6QAAAARnQU1BAACxjwv8YQUAAAAJcEhZcwAADsMAAA7DAcdvqGQAAABhaVRYdFNuaXBNZXRhZGF0YQAAAAAAeyJjbGlwUG9pbnRzIjpbeyJ4IjowLCJ5IjowfSx7IngiOjczMCwieSI6MH0seyJ4Ijo3MzAsInkiOjU5Nn0seyJ4IjowLCJ5Ijo1OTZ9XX11A52aAAD/OElEQVR4Xuy9C3wV5b3v/bO1tTawciUhQCQXTAyXCNFwS4AiouSA4dDAYSutEAXfU2+bVo7lFHXvI9KXeqBSdXefj6BLbNXDhpRNhDcoIiUh3KKBhksMkgsGCAmQyyKpWmt9n+eZZ2bNzJp1S9ZKVsj/y2fIzPOsud9+85/f858bhg8f/i0IgiD6IWlpabh06RL+/ve/yxKCIK5XoqOjMW/ePBw8eBCnT5+WpURQGLMAT6V9ivXbTsiC/gsJbYIg+i2JiYm4du0avvzyS1lCEARBdJm4GVj6k7EIRzuO/3ET9jbJ8n4MCW2CIPotUVFRCA8PR3NzsywhCIIgiMDxHfmXIAii39HS0oJvv/0WERERsoQgCIIgAgcJbYIg+jUXL17E9773PQwePBgDBgzAjTfeKGsIgiAIonuQdYQgCILBbSQ2mw033XQTbrjhBllKEARBEF2HhDZBEARBEARBBAGyjhAEQRAEQRBEECChTRAEQRAEQRBBgIQ2QRAEQRAEQQQBEtoEQRAEQRAEEQRuGDVqFDWGJAiCIAiCIIgAc8PgwYM1oR0dHY2rV6/KIYLoffgxeeq+LXKIIK4PRr23kK61BEEQ/QAS2kRIw4/Jjo4OOUQQ1wf8wzh0rSUIgrj+IY82QRAEQRAEQQQBEtoEQRAEQRAEEQRIaBMEQRAEQRBEECChTRAEQRAEQRBBgIQ2QRAEQRAEQQQBEtoEQRAEQRAEEQRIaBMEQRAEQRBEECChTRAEQRAEQRBBgIQ2QRAEQRAEQQSBgAvtb7//Q9ln7CcIgiAIgiCI/kRgPsH+ne/iqxE5+Ou4eRiw79/wvebPRPHXsbeiY/qj+OGx7bjp7AHgH/8Q5QThK135BPvtYTfg9ynfl0OeeazmaxzvpOOS6FnoE+wEQRD9g25HtP+a+WNcffgPaP8vvwK++VoT2Rzef8M3f2d1q3D1obfEb71zJx5aswL3DZWD7hh6H1aseYj9miCMtP5d9vjA1a+150yPLHu3EvV7fyOH3PObvfWofHeZHCK6z2/wYX0l3nlYDgYU/6edkDcX02W/C3fPxdxE2U8QBEEQjG4L7c6JP8U3YdGiP+zou+Kvnh9+/B/i7zcDBuGvExaJfqIXufMhrFlxH+LloIHr5OGl5e+KeD7512/xeM3Xlt0pVsdp+cY3oU0Ek2V4p7IeH/5vOegPD7+DyvoPmWTuCR7E88/+Dr/bvspVbN+9Cn968Xd45l8flAUEQRAEEQCh/Z2vlNf6N16tx/c/rxD9Xw9Ow9+jh4v+79eXizrODV9eE38JIph0fMMe7Jh+5gf3sc5/IOXmGzBugLEb9D2A6/FO9luC8I23UPA/N+Ls8GX43buPY5QsRcbjeOfFZRhxbiOeXvKWLCQIgiCIAHi0Wxb9O/4+KBnhu17ATZ+VijLHzF8A3/4Dtg83iOGvUqcJa8n3ms8i8p3HRJl7uHXkR7j8+3V47wIb5FHWRyciUqlEzfZVeONj1iPKB+HP24F581KUyrPbscrOKzl8OvOg1LTisDo9A/rfmKftnGfroVexbmej6L+zYA1+dPkwWiZNVMYT84RzOrpliJ+zAo8P+jO2Yx7mjRBFznlI+PTUOlaL7avegKi2WD/9cnD04zrr5PbbXo20eXId5DKJ5ZmkrpVpWXikW92ODHV6hnEM27dn6IpHm7M9/fvgzuv8qr9h04jvIf2Hrs+UzV+zbVv1lRzyDLeOrIotRuKMX4phbhFZqG4ux0GsyXgAG1kvL89t3oKToxZisk1U4uDqDDzwOu+X05kkKtgO2KJNT4/hN6Zpa/PEWWxJvBtibB7VfTYWJw/FYrIYT5nnvrvV6eiXgdslctG89SRGL5gMZRGd8xCI6ck6huPQGmTcr9S6rp9uOTiGcZ116vbbgoVyHdRl4suzENopYF4WT8v7vz9E/QJtTGU5P5zu/7bQhn1ERK+ZsK5eh/v/X2DVmyswmonsf563BvvkT7xBHm2CIIj+Qfcj2n/rxHdbL+Cms2VimGca+eq2u0T37Y03iTIuwL/raAa6ENGOHzcI1b9fhVWrWLe9Binz9NaGFMwbw26gvG7VqzgcPQ8r5nBTRDzuWzGPqS053ir3Ilv7ze8P47JazkR2izbuq6i+7XE8pPNTRE4ahEpRtx01I+ZhzZoMw7D+t2DDGSfktNg8ouY5/edcxM6LPoxXxbis46LaYOvQrR8bF5MWGcdlEt56GSMx8UfA26LOuUyNO9eJbYhWZZ56wY+P3xDzaBVif5Ui2pn4fvy2aufy9bDI7g7cpz3oxhtE/9KzXyO78itDxyPeLX/vaiPI3+AOJhkTExNZtwYHMRlP6HzZtkm5wO94Heu2NmPys9LawIThqlEnsUaMxzp3Ilv3my2nnOULBzGBqY67FVhY+Q6ccx2B0XhF1K05BDbPejyhH/5n/W9tmHwv8Iqc1pbLk7FK858z8cmEcvNWOR+2fidHrTLYOvTrt6VmBBYaxh2Nk6vluOZlTFmIOyqUOucy/RJ3823oYLKcz9MgslX0y7sFZ22TsZAvz/+4G4mrDzLpzAV9ovYw4N+26AIfrsGPl6zDybQV2PUnJrK54PZDZBMEQRD9h24LbXzZgbCPt4gINueLUffi2+9+T4jsL1m/gNX98Oi7QpT7S+PON5wi+eNKJgP1MFGoib9GvPfnGkTedicTqo1ovApEDbZ0IivcmYGUs9udYvPCe3iP9cfP+ZGxXE43ZYxTPbceKlaizuz/yrOuw4b5mubx57ORSBvH6+9E7iTg8LvvsTlIPi7GYaThTq0hqG79LnyM6tZIDBKTluN+oE64ER9/2qqbb6tuuhbL5CuNl9EaOQje2qWGItyn/V2ms38WfyP+5ZYb8W8p3xfdP8V8F2Hfhahr+Vr+2G+YONRE8kbsO8VUog7HoVecEdL/sYWJyBG4gwvDT5vhsMU6o7cuLMP0UcDB3znF5i/v5/2/wUK2v/XlYrpMTk7XGvKdRbEUmhs/PCnEp2HYMF+HcR7vMLGacod4GFj2bi5G1GzB3f9DqePr98D7ZzEi0+mC1q/fLyvYwTUoQQhXZdxi3bp/wkSxbr666boukyf0y/tLfMIuArHDPEllf7YFQRAEQQSPbgvtG1s/xw+qPpRDEKn8YjfcK7qb/1IkS4EfnP5ARL79h0ee12CN6Jw2D0u4MJS9H9uVKC8fT4lyG4kfHIXWy9bL41LOpxsdb92A0E8uXFaXkNOCRsOs+AOCKqbNKA8PTiIx8VF1u6wR9o7IQdaS2DhPP2APBut4lF3Mo281klQzj+y8+g0a/waMDbtBdOE33oAYGelu7YY/m0eY6+vrRafZPCzZiAblVQnw+gPI4FFeMZ5VA74RiLU1o8HSxmAu59O1IfY2OdgdXm9gU3fiaGbiWQ9/QJBi2gVeJ3sFKQu17VIvLCGxSLDK6mGapz+cbTY+2PQ43DrC7SLV6zD7x0pk+93tFg0kCYIgiH5Pt4X2D8v/A/iHd8Vywz/+jh/yyLdfSL+xah3hNghZY0n8IEReZYJUDDTivXV8HFfrh4o7YepSbphu9xg6KBItl9QpRSHeMCsm5qNbcdmnGSkWD2W7yC4Y1g5uKeHTdrG1hDZq5pHI792AN5q+wYNn/oafsO511h95o6hiYlxrnuAXqt9Y2COEHcGT8FuGhEEONH8qB7ndgY/nYv1QcSNMXcpN0+0ODycg1tEMVV7bYk3x3ttiYbvcoEXAPcF90up2UTo//c+hjt6fff+rOFX5Kh7gNhLeQJLENkEQBGGi+x5tmXWE05b3PJqXv2/o2u77V1nLf+undWRoPJOiuqgvt3vIXoUU/EiLVjNRPi8FNSfMYlNnI9Glr2s8Vo1WvZ+a1d3H+l3KmbS870dW0/WRET9y5gS/8yHMG1GDSjEpbumIxMT7deL1zlxMRDU+9hr45+OmYF6BxdODv3hK96enj9lI1PzY65K+h3+95buiMeTtP7wBq4ffiBeTlI/Z+JpD28yIWJsu6svtHsaItm3SQi1avezdJzAZJ7HPLDZ1NhJn7m1ui7AZPMS/eVfxMZvL8b8XWk/XJ9i0HtCWEO/882Tg1D4hpIW1ImWhzpPN6u8dgbMVrn5yM3xcTHoiADmvu5HuL6g8CPv/q2QX+WcusmUpuNh+WslG8uKblN6PIAiCcNJ9j7bKd2/EPyKHyAEn/4hKAG7o4mwuvIe3D0VJ6wLrxvA4rp4aJksXSfvEPEQdelX6oXljSDkO63ijQX22DgG3RYjGifJ3j6ZxTe5avuZxDPqzqeGgP5ytBu6X05oXhcO/l1lFGB/bV2H71Yl4XC7nmh9dxqvrdJ5tD3BrDG/8qSwj73z4yA9H+MCVebpE+YWHnAl4VifsNlyEq9Nn26dat+yhzudffYu/MR0dxg696eHfxf8cdiP+x7DvYartO6Lsq38A59hvusIvZ2xB86RV0h7xBGIvmz3azbhD2idWTWrGFrWBH8+SodoqRKNBXbYOyS9nyMaJ8ncLY5VIsrm8/t5mU3YOf3DgYPMdcllWYfLlLc6GhNzesvogYhfI+bD62PcTdZ5tDwhrDG/8qY7LOh8+8sNtMMIHzudpGeX3AJtnMW+QyeYV/A8FvYXnVv+zdXYR3kDy6X/GC/9K6f0IgiAIJ4H5BLvKd76DL8bMFh+xwbffIuzQW7j5VHG//fS6mt6vL2XrCDW6mt6P870bgHFMVU8aeANymNjmBqdD7d/g0LVvUdH5D5FHu//RxZR2RECh9H4EQRD9g8BFtDlMUN/8l/cQ9WYBoll384ld/VZkE70Pd4Yc7fgHftf4DRZ8+jf8E+t4Py/rnyKbIAiCIIieJLBCW8K92Df87a9yiCAIgiAIgiD6H4G1jhBEgOmOdYQgQhWyjhAEQfQPghLRJgiCIAiCIIj+DgltgiAIgiAIgggCJLQJgiAIgiAIIgiQ0CYIgiAIgiCIIEBCmyAIgiAIgiCCAAltgiAIgiAIgggCJLQJgiAIgiAIIgi45NEmiFCD8mgT1xs8jzZBEARx/eMitEnUEARBEARBEET3IesIQRAEQRAEQQQBEtoEQRAEQRAEEQRIaBMEQRAEQRBEEOgRj3bcsFtwS/KtiB0yDN9++y2aL55HQ+1naLrQIH9BEARBEARBENcXQRXa3/v+TZj2X+ZiTNYkMdx29Yr4GxEdI/7+5fABlBTvwN///ncxTBAEQbjn9rAb8PuU78shzzxW8zWOd/5DDhFEIEnAd8esQOaSubglig22nEX5m8/h8xMHlWqCIDS+O2DAgH+V/fjhD3+Iv/3tb3Koe9x444144Ge/QELyrTiy7wPs3vpHHP3zHhw/VIqTHx/GN3//GuMmTcWIkWNwuuIo/vEPuiH4wuzlL+Kn6Vew7/glWRKKzMbyF2cjes9hfCZLQpWoKf8P/vm/DsbnRz5DuyzrSXp7/tZEYdqyf8a8oZ/j8JnQWaqu4Nf2zXwIz/98Gn7o5bgdV/A8fvGjH2LP4e4d3V3Z9zd95wbMj/muHPLMH5q/geMbOeCOHl5nwkkwr+Wep92d85sL7NW485e/wYSJYbi8ez1KfrcRDT+YjsxFy3D7j+ags/Es2pt9fVs9Dg/9y6MYd20fjjXy+8YyTPzBHrZcsjrE4dt52cTv03lBeCRoHu2cWXmwRUbirZd/g8MfvY+/dnYgJi5edH/tuIayPf+fqAuPikb2PXPkWATRs7SUFuMEJmDpk7NxiyzrSXp7/ta0YP8HJ4CspVh+X+gsVVcIze2r0JVla/m78gLy5F+/xeM1X1t2p1gdp+Ub7WUl0UtwIfZ8wTg55A9cgL7Izj85GFC6cn5zgf07ZK79EP/1v2fibx8+h/98bAr+UvwWvvn6IBzb78buxx7AngPAyCfeQf76PyH6e3JUn9mFDU8/jQ3vycHe4r7lePFfHmJ7wDu7NjyNpzfskkMEYU1QhDa3jIybNAV/3vWfwi4yKnM8fvarF/DTJ58W3c9WrcFtt2ei9cpl8Zux7Ld8HILoeT7Hrpc34QgXPI/f2wtirLfn74Zz7Kb3+hFxM378nlCTqP4QottX4P+ydXwDcP3ML9zHOv+BlJtvwLgBxm4QEzhcj3d6i2YT/Rd/zu/vrUC6ENiTgSNrnAJbVmtwwf3+RlQcacDXUZm448EHZQVB9G+C4tFOShuJOfcvwav/65dCQC/75b/i+zcZhfSXX/wVm37zv/D3v3+Nx//lNyj64+s4d7Za1rqDP+Xfj9vClKEvq97Fc/YhWP7irfjs6Q3seViBRxFurVGejHn/hPZP0ZJ+G4Z0fop3/9cbQMHzuD/9B8qPL+7Xnkj561GtHF/i0//7HN6okINW8Neu/3Qb1DEulsqncVFuw5FSYNqUIaJOWdZjop/Dl2uaUsXG2w9MkevAx70P2M6WU/k1X+d5wHvKsijrI6flbv7CujEBjqoW3JY+xGXeGnI566ui2O/4VJR1Pna7uh2c28AwX4Gch67ecn34L3V1kPvgmLqNdPtNbP/wI2J/WI7DepXl2I/6W6bJ40C/n+QyldYjcYrcLrpxPXML7n18KbJRhk2vvs8kkDX65VK3q7JMxmOMlbJlmQZ1FZz7xh3+z79Htsvwe/H4kmzg0Ca8+oH1Uqn7bT+m6Y4B3fq6PU4Z+jq2TPs/T2Syc7t2nBnOSd25apzmRezXHUfW+LB9Tcek8XrgnId/6xugZdOxPf374Ea7/Kq/YdOI7yH9h67xkuavgXlVX8khD/TkOvNIobweukxbm6fFcSuvYxwxTzino18Gz+cAx3hOulz7DevnaVxdnbr9XK71MNyrrLaJ++U1Lac4V5swze9t4ea6r8eH8zvs4UrMzrkJ5z9gInrHOnz5V1mhJ3wZbnn4EYwdMwh/q9mHs3+9AyOuvYLdGzfKHzjR7+8vq/j6T4Byf5P7m2+DoWy9Mh2GaxRfJ/W+rsdw/Jiuieqxatz+cj7666E8FozHonObGqblct1VtrPXY8jNOaKMV49Pw29jx8FFPM3KieuLoES0b0m5FU0XPhcZRgYPu8VFZHN+cPMPETs0QctCkpA8Qta4QxHZiZ+/yw7Ep1nHTlBZ440fpNuY6GPj8JODXezvv6Ue74pp6F778PL0Fnbwy/L/y07Cf1rOTkn3jLudidT/K39fehFDpuh/PwTTUj6T0/oUSJ+HhzKVGn5iTWOno7IeT+OzFN1F1Q88z/8HuC1cmb/ni+0QJDJhw3/3bhVw2z+9iHn64fuUV2i7ai7iB7eMc75Ou+9WDLl4RFxEPK/PbNyq1b2LT3Eb5vFXqRXHUN85BLdqr0bZtG8BPi3h+8PNOJIfpPMLs7re7MZj2E9svdl23i6XZX/7bbh/uae9qPI53n91E5M62Vj66AzEylI95vXUb1fDMcaWht8owS7S4rds/zvk79zjff69sl3OvY9X3ywDJi3F43dbL5VgyDRxE1TXN2rK887j3e1xyrbTPyU669gNbYLuJifOSd25ym9gymt403gmAWONL9tXDzse2c1Pm/dFdj7rt5fb9Q3+srX+HRh04w2if+nZr5Fd+ZWh4xHvlr93pc1LENdZiGxo19d3q+QZ4fW667yOKcfOi3hRva66XPM8nQP8/jENUUwEizrWOY8niW799Nc+dVzn+WxeRqtr/TG88b/4NlSEt7vjQL+8+y+ydZ3Kp8otFOz87mRyjM9TE5v+bQuf8OH8/i5TCZ0ndqPxlgcxe0M1Zvzid7CFJyh1Sc8j7ZlK5G9Ywa5Nn6Dk2SnY/UIBmq+JaldM5/R29ljtfBjR8d5nuBiWiHHyGiKufUMu4jMrka2/RshnBXGtDmeCWJY/zR+EDHYQ/fVwPy6yfc9tOsfsz4ltKcQ0q1NEvefrrgG3x5DpHDEvz5BEeRyQyL4eCYrQvuE7usY6yv3Aku98R5k9F9vf/Z4XQ1fmOCYIP8V2TdzswhventYl/KlZu8hdcODLMJtJ2LILaeYQdlHTXQwr3sARdqNRhCA7SV5kFzXZqb65Y/YNzqdVfmGQvQrsiVUV8UJU/gC2oXxgNqalq4JSYdcGdqLLfn/wPH/2NK2bB7/wqMtv9J9dxBG5HY/9pZ6NZRpWt5W48Dm32+wUtr1q+PS9rQ+7aajbgd0ujn3+paE/KkYuidi/9Tgm1sfdOApfVm3Xrfd+dkPSC3a23u+pNyY2pZJP8eWQW9lS+sGNOrGn49iVFiA8TrftnBiOMfEQst8ZeWHH0humG4RH3My/t7fLjZ7cXab1PcJEQ+LtypZyd5yOK5igPawJ2Hjbq9R1kuckK9OWmT/shfMj8CIc2vnUBdxuXz1MKG0wztuA2/UN/rJxn/Z32XX1Z/E34l9uuRH/lvJ90f1TzHcRxi69vK7la/ljvwjeOovrhe76esz+Buv3dt3l6K5j4tgxD0chThNjHs6B+6YxeaS/fyjnAPTBA936Ga59ctz92rrz67l+vu6u9d7RL6/Y3m6uLwr+bQt/8XR+f3PtJOp+k4HC5WtQ/WUmfrS+FHkvVyN/1ULEthRj92Np2Pvb/462854aQbqe08fs28UDhSu78Bk7vrTteB+/pn7mPE4EMjijv66x44oHOsQ9SVcujgV2h3EKd/31kM8LznuRC56vuwbcHEMu1zq+v/Q6RF9HXHcERWhfvngeg+KHif6rlxotM4r845tvcKWpUfTHDhnKxrkg+t0y1IYftDc5T5yuwk7y5/jTpBCd+gjAl3CYFuFiuyoEeYRBPomyTrvZsLGdAtxTVPoYmgyNu1vQFJCTytf58wsae1JX10GLkPgDvxg5HzyM0QXP66MX+frXcvxCpN7oxt3Onug/ZxcxpcrtOK6Yt62Jiia2dL6gvL6fduMRbHp5F5plqYH3NuDdzxNxP18uD41lxsVE4ct2k0jxig/zZ/T4duGvlh+ehhsrNmHDLndL5Qo/d5y4P069bScRtVPH5a/IhRDh0UJuT1LKfWsw5tv2NcCjsPp5e8C5vsFfNh7R5uy8+g0a/waMDbtBdOE33oAYGelu7ao/OyjrPA5x4a7XVwVP193uYjoHzPcPfg7oxY4e8/kRdpty3ouOW0LciWkv550neBBI9vYY/p7ff30L538/BUU/24ErA5tx+Mk0lP7+l+g020ncJsZxdxy4wh88hqTwOzQX6FGGYI7CENjC3N17zOV8v7h/ADJer1zx/bqrw3wMDZmmTUO5DnbvwYjoOwRFaDc3XhB2Ed4IsrPjGvbu2Iq/fek8kHn/nu1b8EVnB0bfOVH4uJsu+pAOyOPTvh8wweT6+sb1JBwS/gO0XHEnSbl44H4yVYD7E5U2nWCZcazEX7oz/67BI0BR/MLnEl1wvz78AsV9a6rIf1eLWDJ49KqdRxmUyET9X5Rt7XEcFzzdxBl8WTodXraNU+j8nw27PHpk1QcWIbg9WC+UyKuv+Db/Ht8u6k24/P+wh0tvzmEjznPH83Fq3k58PCdf4lNtPNlpD4nqwy8XeE6bijW+718NLji5R1SdL3+d7AHjtSK4y6ZmHon83g14o+kbPHjmb/gJ615n/ZE3iiomxrWmN74T1HV2J3L8ve76g+kcMN8/fLo2SC46LWNq5wy49FG6cX7ja37t+Qr/MAls1Uoy886vcPZDV3+26/7mYln2muFRX/7WzfC204w7sWou93I99IB/1133KBYi/TGk828T1zVBEdpXLl1E7aenMP2+H4v0fTxv9r+vWYU/vPIi3vrdb0T/6WPlCI+MxrT/8l9x9vQJXG3ykktUvGrRe6Nm4yHRz19b6l41spvFNF81jmYjUV4HGTxumQ9hgoUnTEOISd1TMxefstczyisxxYunMHuq2kCCIaIszldc4wrmwdLD1uX5dwP+WjT8VixP0UcXPK8Pv2k6o5ZcUBujAbtqWpA4dRoS252vzryN84P0adp+EtvHcBHWL8s4PHTfbYZIuStdEGEMTzYS8cpQev4E7Fh6yG1k0/f59+h28fcmPGSCU1yJc1CeOx6OU2U76cYT55zsF+ek3uPoDm+2ha7tX/5WQh8B5dYHA+7W10Bwlu3q14qIXpf0PfzrLd8VjSFv/+ENWD38RryYpHzMRv2NPwR8nblwF4EM1+vruIKHWH8XrrtecHsOuNw/lOuU52uDhI+rP5+7AW8817V0fwHGj/Pb8eFBfDlhFWb98v8gYpjizTajCuz/yq0kTf+JXU9m4WydrNSQ+5vtY3ULCEuF7HdFvkWdajPsJ+c2lPce3TViNjuuxlmUK/Yfd2LdM96uu74g3t7q2mkR/YugCG3uuS7+jz+iw9GORY89JT5Kw+0jVy414mrzJdE/YlQGfvL4CvabNry/7W05pid4xGQ/WtLv11692ETU4xgTaLJhCC9P+Uw0QHELv/irr29E4wTFH8gjle9WRUlLCa8zZsRwoYL7SXW/T+G3GN/YteFdfBrufI10a43R07xfNkrkdfNwxNrD1o35dx1+oYxiFx7jBcvT+nC/tnOfzYPN/IqO3cRahgxBi/B7K3gb58sqB26V8xINqQxWmC/xafutctz7cVv7fo+NQaPuzsMEH4WO/vWhaNjlzoLD7UmisZj8LTvO4CaS4s/8e267RGHGfRP8i3RdZDeS++T6TmEPYvK88nic8u0kGqzJOiZkjuiiRfycFI021XFZp4gdvRVFaSDtLrroz/bVI7yj+mPafHa5W98eWLbPv/oWf2M6OoxdvaeHfxf/c9iN+B/Dvoeptu+Isq/+AZxjv/GXYK6z+fp6/y3KceD3ddcL7s8B8/3Dx6wcAjau/nzmnXiA8I7wgYt5+ttQUXdf83FevuPn+V333/HnJ5/DyWujMPW5Uim4FbH5Hb3A5l5tbiXZ+Jx1ZhKG+Zx2e3+TCPvIkCjtbacZnsdaP71p4cqDorncnMHEI8LPrYzLrzde72G+YL7W8c6nRvrE9UCPfYL9qy+/EDm1v/vdG2GLiMT3f/ADVB4pQ0lxEb7+OjBfo+yzsCd8Y0q/0IWLTZ6VxLcblC/wm7QxPaMn9OmUXFFtCv3vlVxvbhft1SoTjN2Frwdvtd/nX8sHme/dwLY7U9WTBt6AHCa2uSX7UPs3OHTtW1R0/kPk0e5veD4HiIDwwwcxbMkyZI5NwA9E/oKv0Fz+nyh/08KnTRCEICgRbZWv//YVPvzP/8C7/74B5fv3or3lqohoH/nzHlb2EvYWbSORDV/sDaECb83domUlCQT81WGUPmMH0X9xa0cgzHBnyNGOf+B3jd9gwad/wz+xjvfzsv4osokeQm0MubwARf/yz9j+WBr+bNUYkiAIjaAKbZVL58+hvGQvdv3fzfj/tryFj0s/YmX+vCy9vuCRF+31kQ/2hlBAWeZpgD4VV3fgUXy2/jwHqj7lFtGPkMeAdi4Y7AgEQYQsf92HLz/fga9JYBOEV4JqHSEIgiAIgiCI/kqPRLQJgiAIgiAIor9BQpsgCIIgCIIggoCLdeTixYu44QYP303vZ2RkZKCyslIOEQRBEARBEIRvuAjt5mblM6wkthUmTpyIw4cPyyGCIAiCIAiC8A0XoX316lUS2TqmT5+Offv2ySGCIAiCIAiC8A0Xod3W1iaHCM69996L999/Xw4RBEEQBEEQhG+4CG2HwyGHCM6cOXOwc+dOOUQQBEEQBEEQvuEitK9duyaHCE5eXh6KiorkEEEQBEEQBEH4hovQpg/WGJk3bx62b98uhwLNdMQ98TRuLstFfYUsCiZps1CQ0YairYdxVRYRBEEQBEEQwSHk82jHT34IcxfKLncSBspywl+iMTEjHo2VJLIJgiAIgiB6gpAW2gNHLcD48Cp8tOUN7GDd0fZ03DU5Vdb2TaInzEfBPb2wDjG3YhiqUF4thzk8wt0by0IQBEEQBNEPCGGhnYr00QPRWHkIqmu88WQVriWkIF4O9zVS7ylA3sgOlH1wRpaoLEXis8WYILpXYZOlirWkGImZgG2RWr8NcUNktR+kZqYDn39mjGZXl6MqPBsFCyYiWhYRBEEQBEEQgSHErSPX0KZvm+m4ig4MwECnEu0jRGPiggJkh1ehyL4bZpkdN3sWvng9F0dWv4j6thQk3Dtd1ijEzS5GwpUXWX0uqmrDkDh9qazxkZiJyBjaiMojZtPIVRzeakdZezryCmaxRxuCIAiCIAgiUISw0D6DhoaBSB/tlH/xk3P6YDQ7FbMK8pDeXga7m0aITbvmo+ki79uHtjOdGBCTIso1agtx6n3lozmOqhog6hbcJIZ8IzplGAZeqHUR+CpnPrCj6PQAZBfMx8QYWUgQBEEQBEF0i5COaDcePIDGhBytMWTCOTaMDlzrS6m+05K7/XDQVLVJ9jEqHseRV57DV3LQO6nIGglUVbiT2XrYg00mxbUJgiAIgiACQYhbR87gqGwIKRpDXovGAEcbk9p9iOrdsNuLes8LzYV+x3l8dkUOW6B5x+122F384wRBEARBEERXCHGhrcM2CXflDsP5MmfjyL5Db3mhvaf04yLbnXecIAiCIAiC6DohLbR5ej9nDu0IVG3ZijN9+Avxmhe6p1Lq8ZR+AxpRq0/ppydtFrLh3jtOEARBEARBdB36MqQXgvtlyODCo9UZ7UXY5pJthCAIgiAIggg2fcc6QvgNj6CTyCYIgiAIgugdSGgTBEEQBEEQRBAgoU0QBEEQBEEQQYCENkEQBEEQBEEEARLaBEEQBEEQBBEESGgTBEEQBEEQRBAgoU0QBEEQBEEQQYCENkEQBEEQBEEEARLavcp0xD1RjMRMORg0pmCVvRCFhYV4a+UUWaZj2iq8xeoKC9/CqmmyzEemrHyLjbcOi+VwYFiMdWJ5urZMCso0LNf3ukfZ3+sK5KAv8GPAvoqN2QW8HD+L18t9uT4AR0naLBQsmIhoMdBT5w9BEARBdI2QENrqp9bHD5UFOgyfYV+Yi3hZ3m/IfBUTni2W3TbEDZHlfjBl5TJkogIb8vPx4NpSWarCRNkSplTKNyA//0Gs2S+Lu0PBOlfxbVXmls1YwZY1P78IdbKE4PgmoBevX47MliKssMsCPaooNovq/WuwtyUTy7sihtm4D/L9tbMZmUtcxfrmp/i+3ICKqDz/xL8L0ZiYEY/GysPw+TNMATh/CIIgCKKr9LLQjkZq7kPIwnk0yhIDQ3Nx1+gOHN3yBnaw7mhDPMbnTsJAWd0XiZ4wHwX3pMohbyxF4myganUujrDu+FEg8eFXYZO1QngsmI+JMXLQDcmDwtBZXQKzxFZIRqStE9WHrGt9wtGKWtkbajQ3dWO9+iLsgSYvsQ5FT22WBXqUh6rmeuvHl81PdVMM20+gzhbJjigrSlFS3YnYOM8xc4/nR8ytGIYqlFfLYa8E5vwhCIIgiK7Sq0J74Ki7EFH5Bj46ZRWfYiI8Ix7XTh7VRHjjySpcsw1DvPNO2adIvacAeSM7UPbBGVmiwgSBFnXTC4FNqF/9OBxy6KsTp9GBwbhZi8pdxeHKDqTfV4BZabKohyld+yDyC9a4EfEe0OwGXbEVOK0worO0PChRccuorid45J1PT798hmUzzVtfx8dlw4qdRqk3W1f0da4RfvfrpdgvliOTHRxJc5y/MU6fjT81CXU7V7C1d0V9s7HjpCxwoRRrSuqQNNVqewYf9+eHQmpmOvD5ZxbR7L57/hAEQRDXN70qtK+d2oqjF+SAC9GIsF3D+Qb1tpqK8bnpGMj+RfS5kDaPnBUgO7wKRfbdMMuIuNmz8MXrPOr2IurbUpBw73RZ4wPVu2F/rwoDJhdg/gTFuRr6LMa6JzPRvJNbCqRFJDHPZz/1lJVzgTfVcTcw6ZiJZYH0YtsysfzJSOzl03+5Ap2JMzTvsWrL0OYdZVputh7LB+1V6tm4yFrm9C0zIb48qxlFYtx8bCiPRZ5OTHtaL81+wVRjnbbdTFagaVORZqvDCTeWkWVZQMWbXh6KRFQ6DVO75IvvKp7PD0HMRGQMbUTlEVeZ3f/OH4IgCKKv0AcaQyr2krkLc4AD3D4CDIjoSzfEVMwqyEN6exnsW629pU275qPpIu/bh7YznRgQkyLKjUxHXH4WBtTulr/VceUwttnL0DEyz+K1+xQMi/JgoZg2DLFoxvlAeLMNJCFPjczybk6SLOeCcgaSHBXYoQnCzVixsw5haVN9iqSWrl2h85IrloSwQdaGha7RiYqXZVR4fwmqHWGIFJNfjDEGW4YSATYsN1uvDWq9YVw29mhjtLl07V6DqO32eiVHIsyNjWdxHvfhb/TBg1+LVt0y+wcfNwlj3FhPSpuaLfax9/ODE50yDAMv1FqK8OCePwRBEATRdUJcaA9Eeu5cYS8RHu0L0RgYDnS0ubsdhyBpyQFpwGlb9DQSUY7jb2+SJW4YmqF5ThW7wTIRJXW1UMjMHkuAjfnWVoPuwQSpjLqKjglpAy3nPUdWPWGynSzPCpMVAcJRjRKd4F1TILefeChx/wDhDsWXrDzw6G0fhYV5bGo6urleU+JiZZ8J7tuOqsBGl4awVpTifIu6zP7Ct9UGtE7ly2/R8NW+AvklkVjO1k17C+DT+ZGKrJFAVYW1pcQXunL+EARBEER3CWGhfRVtDuDayR06e4liJ2m7Jgf7AvzVtL0IVeHZurRk/mFbVIz05BpUvfIcvpJlBmImYn5BNgacLmLz2obDV5RixW6wEVhilalCZvZ4E1gW8PR8PhA1zBDZdCsSXVBsJ0qWFEXEbyjvlHU9gekBgndePOr6twl624fSqZleur9ePGJsBY+kCzuMKuL5w4Ecdj0uvLwB8Qh/eFMe7PItHt6EP330CbFumuXFl/ODi/GO8/hMHtf+0tXzhyAIgiC6S0gL7cbPr2Hg6LuQKls3DRx1O+Id59Gotm7qM1zF4a12lLWnI69gFvx5Oa2JBF2jLgNcJNyXjo6Ddmyz8K96jVDuP49mxGJYD3pySw9Vo5MJvbmayFuMuVlhqCvxvVGlJgSF99j/iLaa29mvDBvCCpKEPB8bborGh5pnWrGCJM3x/FDjeb2UfZk02s0UalvZdnXN+qE8cOk6/naBW1xYv+ubDiULTWuX08h4tiF1XraasKfzowsp/XR0//whCIIgiK7Tu0J7aK7Mj50jXh/H5yj5stV82ryx5EcngXTh0X4Id91yHh8VH0JfCmjrOfOBHUWnByDbVx/okOeRIFRTCtK1rAqsW7RUVAsRMn0Yzr9nx26fU56FADzv8ssViNVsFHmILd/gFH08e4csT0IYMp/k/erHUDZjRzkXrHLcJyNR3WMRbcUawRtAKsundIbGkLrIsdLwUe/JflBpAKkb15lZxLf12vyU0nBUHd8wb/kgMENf5i8FY5BksM70HJbnB0/pN6ARtV05vq/X84cgCILoM9wwePDgb2U/oqOj0dHRIYcIzrx587B9+3Y51Dfh0dsZlzdYfKyGw1/3z0DrywH6WE1/hj8gTG3Fhq6kOwwUfBnmwCDwfYenF1yOyJIupEUU8GNpDE64mTe3jizDRjfHoTU85V9GexFFmwmCIIg+SYg3hiQCQe1lT9krupNlggg57CtQVO+7vUWPxy9K+oKIhrv7eNEUTE0L89v7zaPcJLIJgiCIvgoJ7X5A6dqNmt3BNVd1Kda8qdo4VHsG0Zfp0hcep63CjChdakJ/ULOlzEmy9NlrH9vhH8vpqognCIIgiD4IWUe8cD1YRwiCIAiCIIiehyLaBEEQBEEQBBEESGgTBEEQBEEQRBAgoU0QBEEQBEEQQYCENkEQBEEQBEEEARLaBEEQBEEQBBEESGhfz6hp10Tn+dPfBNF9+AdvlOPNNY0kQ/viZ384FvnHe5RtYZlmUTs3A5BSk39G3uXT9QRBEEQoEBLp/QaOWoC7Rg9E44E3cPSCLNQRP/khjE+4hqrirTjjkIU9xHWR3o/f1J+MxN4ufS2Q0MNzQuclygFG3c6ufkXRX5SvNmba5CA6URFiX/PkX35cnlbt5suYXHjmAf5uL/GlyyQ5wKgvQn5Xcn13gYDsa2/nXgC+JkpfzyQIgghdejmiHY3U3IeQhfNolCVGUjF+4UNIaK/CNVnS14meMB8F9/gee+K/nz8hWg4Rvc3mp/KRny+7l/mHfnrqIz+lWFOgm/fOZmQ+GVqR4eRBYeisLrEWjNOGIRZ1OOGvULWvcK5zvvIhHstoeRAIyL7eX4JqRyyGuRvPfgJ1tkh4/DCrx4h1KpKHNqLSH5GdNsuvaxBBEATRdXpVaA8cdRciKt/AR6esbxLxk29HW/EbONogC/o4PPKUN7IDZR+ckSXTEffENsQNWYrEZ4sxQXSvQgtaMq4eqUTHyLwg3Ridr/pFZ1/FSnyHRzC1cVnnfEWuTFf/ylz8Vn4WnPe/tXKVfLXOxKJqKdB/NlyzGZin7QvO1/a8cxFmpml3WbjtP49m2esPYlv4ua1dqG1Fp+z1DdO+dvlEu3GbdXv5gkIpzrfIXr9Q1s2/Y8hEF/d1t+Gi+L50dBzcDfWqoSd6QgbiL9Qa6m66dxtG3TsdtkXqNaUYiZmyklNdjqrwbBQsmAh6hCcIggguvSq0r53aamkVUWk82PNWkeAQjYkLCpAdXoUiu/mGGYbEh2fhi9dzcWR1LqpqU5C+aKms45zBbntRUG6MU1bOBd7URQuRiWW+is5pq7AsqxlFWrTRv9fqYVlpaH2ZzdORhDz+6vzlCnQmjpERWiaMRp/Qppu/sw5Jc3yN3nJBmYfY8g1y/CI0Zy3XiSw27TmxqHjZudwPru3iS/uCMUhyVKOkF+wbUyalIaz+hM9WoMXrlyOzpUius2tkePF6/TZjXTesDMFjMcYkdqL6UC8sWS/sa/H2a/IAVL1nx+5qWWggFVkjgaoKVwk+YPzTSLjyorimHNlVg7jZ+gf4qzi81Y6y9nTkkbebIAgiqFBjyKCTilkFeUhvL4N962F2i3Oladd8NF1U+h1VNUDULbhJGZQE58ZYunaFzuNbipLqToQN8vgS20QSxnQ1Sli/V5t3XYlZ1G3GCr0Pl79eh4fX73qmTUUae2TYqInnzdhR3omk0XqZHoa0SV2N1+oiw3OSLJY9mDijzsuzgIoin2U2E6h1KNK2aSnWlNQhLG2qIWptHvaPKRgWBTQ3udkayZEIc7SiVg76g/PNSR6SdMdN8AnEvuZReE/HWy1a2cOm+TzS3n7Zt+HwFVloJi0Z8R3n8ZlVfW0hTr2/T+mvOI4mDMbNQ5RBlTMf2FF0egCyC+ZjYowsJAiCIAIKCe1gw2+GstdnIqJMQltPPDIC5dk2ZCXh4i1MVvjA/jV4UESa5fgBthrwhmjqcgmBJcu9wgWdLRPLtXHN68VE/MsVQNZyWe+vz1nvld6A1qk+Wk9021osj24ZfbeusGVXI875exH5pI92COGPTkKenJ/o9A0MGZufUt5oqMvkj81C2VfLxNsRl7ca6nrzNxRdjJKXrn1QrnM+Nlye4fOx5jyGlONHO1Z93udd3NcmuNd77yB+vFl5vPk8lGk7l4v7rkWPB6IxMSMejZXWD++uhOHmwbLXhYFIz6S4NkEQRDAgoR1sqnfD7q/1o60FX8leBb31xB6g7AKLse7JTEBnF9hQ7p/rV99QraiFibQAiW0ewczjEVg5bW7/qJN1PuGowAZtXNnpI+T8IUGWbyiPZQLUX7Gt4sdbAMM82XbWLWPXrCubcaIeiI3zdYvrt6fsDMJXJypFwz/fxbbSaHAjsMRiHHW9T44JyMNY6aFqdHprPChxNmZUjh+eNUQZ7kr2na688eEoUfExJ/l8rbLE8LcUykOKc7m4XcxLtDnmVgwb0IhaS0uJFZ344pLslTij5nbYtXYjBEEQRCAhod0j+Gr9WIrE2SnoOLNPJ7S5yPZsPekO2qt+4bn2I6Jtovayq0jXRGDBOv+i5RydzYD7h32OaIssDr57zUubutPEbTHmsvWqO+m/bOs2bH/N8NWvLDJfJCHPpQGkG7rU8E9pqOhW+PPGmz4KZE8szsv0y5seOLqzrzvR6tEz04zzFnaYq0e2wX6wA+n3FWBWmiyUpGamA6fLLRtImrEtykdc22m0SXsah4ts6zYjBEEQRCDp3TzaQ3MxN8fVWKHm01bzaxvp2Xzagc6jzRs45YVXyggSzzryNBIjlDpOx9EXnd5KBv/9dOzrUhSbR4ZdBS6PbCqRM2N9HSrKY5E5aK9PeYpdp+2croBbBp5kooj3OypQVJ2GPDltMa7orwXPDR1Zko8Vtfp8wzzK5xTXneUVaBaNJ33NG20cn6PlQOYZRwy2CX/yUfPopD6XtW66fiDW322+aXeY18nfPNquy95ZvkFG0123l7POd7hVY8ZlN+OJ48H/XO4ux1mX8mgr6+dfDu/A7GtlOjxi7W5f8WUbgxOetgtP73dfBCo1UczbfWSg7T1r/zbPOjJ2vG6btZXj+CvPOR/eeSaT4bUUxSYIgugBQuKDNaFMcD9Yowjtm8tyUV8hiwiijxIMod33CYDQNmF8WHdFCO2Y3Tjy9iZZQhAEQfQWZB0hCCIgcPuQWw+zsKP4mDnmeoJnwbFZW0MEIm2gf9lYhKWEotEEQRB9AhLaBEEEhNK1G0V+bp7ZwzU7x2asEF+z9CfrR1+GR6rZuooGxztco9U8ws/rezxFJEEQBNGTkHXEC8G1jhAEQRAEQRDXKxTRJgiCIAiCIIggQEKbIAiCIAiCIIIACW2CIAiCIAiCCAIktAmCIAiCIAgiCJDQJgiCIAiCIIggQEK7H8O/usdTsYnO189z9yX4VyDF+lmnk+MfWOmr6y72nWm5+fqsK5ADfuJ5W8hUdazr6vSDi1w++yr49uH9rsG3kWvaQh8R6fxCLK2hmmKw8C2ssshv3tfOj548hvkn7OdPiJZDBEEQ7gkJoc0/tT534UMYP1QWaEQjNfchUSe6yamynFC+OGe+8VuVuad07YPIz8/HhvJOWXI9wW6sPEfxzny2jhZf3WMiPC+Rfzae1fv9Se9ehi378qxmFJmWe3NRBWLnWIsmb2x+im+nDSIPtqsQ2YwVfDu9zKffH3Jg9wfYtWIJz/G9ge13i69W9sHzo8eO4ZiJyBjaiMojV2UBQRCEe3pZaCtCOgvn0ShL9AwcdReGfb4DO7a8wboDaEzIwV2j+nYUgX8+ueAe3x8Y+O8pctIFpg1DLOpwwi6HTUyJiwXqT7gK8JBHfYCweHjYvwYP8o/CLOlqZLcUJdWdiI1zM/b+ElQ7QvHrjlJEFdCHX3wnGZG2TlQfst5ifff8CMwx7CliHZ0yDDhdDt+/zZmKWQWz2P8EQfRHelVocyEdUfkGPjplHRm4dmqrru4MGhrYOOF9V3Tyi3feyA6UaZ9Pno64J7YhbshSJD5bjAmiexU2Wcu5eqQSHSPz/BLnerTXqaLzM9qpWS+68spVia47xzdFkbTX1rLTXvd2P1IfPPhy8G3ofA3tsl5utxkfZx1WSbvOWysXy+2j3yembWbxCnzKyhlIqi/CCjcPELDvQAUyMTcAr8cDgbC4mCwdVmXWeN9m3bU/GcZ3sXYY90deoizW0B8HrDPPX38sPJmJMFnsG8Zpuxz7puOs988NFdMxbN7P5vNedLrtblivrr2d6R7RmLigANnhVdhnGbFORdZI4HyNri7zVUxYtBQ33btNXsOLMere6bKScwblpwcgu2A+JsbIIoIg+g29KrS5kD56QQ5c1zgv3kX23aZISBgSH56FL17PxZHVuaiqTUE6u2g7OYPd9iJUhWejYMFENiXf4SIiL6oCG3i0j3Ubytk94UlfX5uyG/3oE2I80e2sQ5Ifr1ynrFyGzJYi5/gG+wabNhMezcLWwbsi1CXmSbGgRKTC0qY6b9DTpiLNQ/StZwlj23AGWl/my70BFY4kzNBEjrdtloTMQXtFeVhWHiJL8lFUH4a0Scr4i9cv120z5RW4+YFjaloY6k56ijMq2y9ptK97KriUHqpGpy0NU3UPE3wdOqtLfIw+e95m3bI/MVEnLDhyf20oj0WeThga9wefr6yQLF4/BidknXoMaw9WXFDOiUWFOE5Y93IFfF9CLlbzECtsHcq0m7OWGx/a9NNm3YNrQyOWP2XlXOBNdbnYMcwe+pZpxzBbL82uwurZPgXbKhUvy2uDeZuJT/b7fs3pPjzynIf09jLYtx6GlcyOnpCB+AuVOHxFFqgk52NszG5xDT/yOrvQjn8McUNkHePqkW2wH+xA+n0FmJUmCwmC6Bf0ncaQQ3MxPuEaqk76/sIuNPB+8W7aNR9NF5V+R1UNEHULblIGJVdxeKsdZe3pyDO9ggxjN2BnBIgJAy0cvhhzs5goK3G+Ti9du1EIwzE+RTs3Y4Xem2k/gTr4aRtIHGN5kxRRWUcFdmhRWTYvLqSkuC5duxd1OnE2ZVIawur3uvpIPZEciTBHK2rloJnkQUzsXXZX65m6naqnVT4UDEoW5d63GRMVRbLesP6cxRjDPbHa+KVYU+LcJgrK6/5WL4td2tTMjqFhuvF8h49rnKeeUpxvcYpcn9i/Bnt1wlh5aKrDXp+Foadt1j0WjzZacAzHHRN9Mwz7w5XNT+kfHjfjBBPiqmVhcR4XlBv9O2ZV+DZiEnWjto02Ywd7kDA+PPm5H8wIa1UzzrtZvq6eH6VrV+jW2XR+mB+YxfkRhkhZzc9zwzbjb2d8vl456dIxHDMR8wuyMeB0EezaG0cz0bj1loFoPGdR31aO429vUvov7sOVtjDcPFgZ1KjeDft7VRgwmRpSEkR/om8Ibdsk3JUTj8YDW3HGIcv6CmnJiJe9PhMRZRLaeuKRobtId2pRLxlBMmwf76LME0bbSR6SZLkv8EhjUX0S8uT4Lq+2W86zW547uGhRb4Y8Agqn2PKG+mqaR5YtPLuqVWDMyeBEAbu8zYTwcW4v0c0xjS1+4wO1rei0RTJZ3gXsK5BfEonlbP5WdgTe4GzvIP5w5/tr/c0nnQ8MipjaoROovcUUDIsCkubotrefx7jZvuFqLeki/CHRlin2gTrt5eyh2Ql7oHu5AtAesv2J+kpLyhJgo0Uj4W6fHyZriGG5959n0l4ncgvGsO1dp7Wj4OLefeDAD7pwDHPf9UCl1z1pWUhHFcqr5bAXwgbp7SNGBo7MIs82QfQTQl9oc5Gdmw6c3NE3bSY8iuGv9aOtBV/JXgW99cSObT63dndGixR4RFT2ekHYTtSsA6IrYrdE/1CyACjj8lffhpueKeIqGl/p0MSZiO5Vo8TXyCBvEMjneXKMpQ9YtRqcGB14X2v3t5l+XNnpHxaEUPEBL9F8TwihJe0vrkJL8d9yEWaZqcIdPHIpIsXKQ1NoWIAUlKw0+s7H9RI2BzWrjdKZrSXdwuG0fGmdPrquHuesE5YXn8W2bDj6JrDMYpzunR+KJUyzhohl0xtmatHq0L2Fs2jUawwcKJ3b9ghu6MoxLKwd9jKP7WFSh8fj2uefWb6VtKLz8j7ZJ0mbhYL70tFx0M7mZbYQEgRxvRLaQlsnst01mOwbuLd+GFmKxNkp6DizTye0ucj2bD2xRnmVnTTVKTZdLRte0Im1xev9jPYZUG6wKopvV99gz9XmojbqW7YkDc36cl/xEtWtvay3fASQrm4zkQ0hCXkeG/Tx7Wh+eHJFPLR4fGPgGc+Wga68JeHWByBzyTKktfhpAQoa0svurt2BeKhx2haUhyil34luWxTwdHiynyGOL82+oAhQnxtDigcTvbfZM8Iq5C9i/dxbwbpzfjQ3ySOPPYws00e0C+ayM9r4AKEX0eLhOmtZQBpAdu0Y9tAexo+Ufjfd+xgSI2rQUiELOFxkTx6Aqvfs2O1jRJwgiOuD3hXaQ3NljuwcYa+Iz1HyZav5tONHp4vXeQNHz3Xm0l64AKldeZ0YApz5wI4i3vrcFDGJm61mHMlH2NEXcep9ZyQkesJ0DPvck2/QPTyiXNTifAUtGn5pEVJndgDxejcxT4kySaGn+FWd4864XOFHdNY5baVTGpVp0SUejRP5bNV6peGXMXIl/Z22Zrcp+kKN7m2zUqwpUBpAOrebOaooxaHu4ckVXxpM9jzKw1UYmgO6XJ6PYW/w6K0SDXZub+dbEKXdgGotWT5orzE6K73nmU/K8aa2okIX0RbtIZisVI4F3njWn7cbPOqsvAXSlot1WmNIk2WlUDQgdLWB9DzSS66e109Golq/zeTDs3p+qJ22XtzyIRpA6ut7sjEkxxkUma6z6AlryYVa91HoiCyMlRlHxo6/hKrVj8MZW0jFrMlAmX2bayNKgiCue24YPHjwt7If0dHR6OjokEMEZ968edi+fbscCjQ8vd/TuLksF/X66Ach4FFELnC69MEM/mqf3ej3Wn2shtGtafcq3GObB+x080qdizAm+jZ0Mac03y7LsNGNP5cL22XAm37YRlS87A+ip+HHEX8AsN6XQTk/rI5NXjYHKArgcRH4Y5g3aM9A23tuhDJP75fdguOvPGey/BEEQYS6dYTov4jXzn40gjTj5dV4dzJz9C5qpNUi0id8w7GoeLNrIpuLEB4N1179mxFZI9xnqnAPEzcirVsoNIIkFDzbkIJxfpjbYXB45he93ar7BOMY5pYSikYTBNE1SGgToQUXi/yVsciz3YXIqQYXpOpraAtRal/htNV04UMnvQpbdmF5MC03TynX1W2mZEtZLjy0rh5+malCNHTzRyyr1g6TdYgIAUqx5k3VvmWRQSYI54fRTqN0Is9/F9++mAnOMUwQBNE9yDriheBaRwiCIAiCIIjrFYpoEwRBEARBEEQQIKFNEARBEARBEEGAhDZBEARBEARBBAES2gRBEARBEAQRBEhoEwRBEARBEEQQIKHdq/AP1hQjMVMOBhv+GWDzp4UJgiAIgiCIoBASQnvgqAWGT69raJ9ol91k46fLCX+IxsSMeDRWHsZVWUIQBEEQBEEEj14W2tFIzX0IWTiPRlli4EIxdmx5Q3Y7UBWeg7tG9e14bPSE+Si4pxceGGJuxTBUobxaDnN4hLs3loUgCIIgCKIf0KtCe+CouxBR+QY+OuVLjPUqrrXL3j5K6j0FyBvZgbIPzsgSlaVIfLYYE0T3KmyyVG8tsS1S67chbois9oPUzHTg88+M0ezqcvbwkk12EoIgCIIgiCDQq0L72qmtOHpBDnglFQkJ13C+oS8aH6IxcUEBssOrUGTfDbPMjps9C1+8nosjq19EfVsKEu6dLmsU4mYXI+HKi6w+F1W1YUicvlTW+EjMRGQMbUTlEfO2u4rDW+0oa09HXsEstoUJgiAIgiCIQBHyjSFV//bchTmIb/gLzjhkRZ8hFbMK8pDeXgb7Vmt/dNOu+Wi6yPv2oe1MJwbEpIhyjdpCnHp/n+h1VNUAUbfgJjHkG9EpwzDwQq2LwFc584EdRacHILtgPibGyEKCIAiCIAiiW4S80OZRb9Wn/VH77ZibOwkDZV2fIC0Z8bK3qzRVbZJ9jIrHceSV5/CVHPROKrJGAlUV7mS2noFIz6S4NkEQBEEQRCAIeaGt51rDeVyzRWCAHO4TVO+G3V7Ue15oLvQ7zuOzK3LYAs07brfD7uIfJwiCIAiCILpCnxLa8aPTMbChxjpDSUjTW15o7yn9uMh25x0nCIIgCIIguk7vCm0tT3aOsFfE5yj5stV82k5/tizHAew42HfloOaF7qmUejyl34BG1OpT+ulJm4VsuPeOEwRBEARBEF3nhsGDB38r+xEdHY2Ojg45RHDmzZuH7du3y6G+BY9WZ7QXYZtLthGCIAiCIAgi2PQp6wjhHzyCTiKbIAiCIAiidyChTRAEQRAEQRBBgIQ2QRAEQRAEQQQBEtoEQRAEQRAEEQRIaBMEQRAEQRBEECChTRAEQRAEQRBBgIQ2QRAEQRAEQQQBEtoEQRAEQRAEEQRIaIcES5H4bDEmPPE8bpIlPcW41+rw7F7Z/eltDJblQWfm23hCne/evyB3piz3hTE52P6L2XiGLezU6bNZfw6WyCoi9NDvoyX592P70lGYqlR1m8Ev/MV5/L62VpYGCC/HWTDXiyAIgrg+CAmhrX5qXf30uivRSM3ln2FfgFSbLCICRtuhX2P1jCSs/vEiXJJlQWfPIrzC5zljC+plEdGb2PDM0vuxfowc7CNceuZ2cexuPOSQJWaWIfdPdfjpo3KQIAiCIHqQXhbaioDOwnk0yhIrBo66C+ntjR5/01eInjAfBfekyiGVTahfnYsjrzyHr2QJ4YHLrehEO86zp4KSK+2AoxW1sooIPfT7qLaFCeJWB0qUqtDGy3Hmeb2iMXHBfEyMkYMEQRBEv+SGwYMHfyv7ER0djY6ODjkUfHgkO71tK45eSMX4hTnAgTdYv6xUsU3CXbnDcL74L4jIvR1txVtxxl3wKgjMmzcP27dvl0PdI/WeAmQPbUSZfTfOyLKb7t2GsePDlIHaQhx5e5PSz+B1I3AaneOzEIcaVO0C0menGH5nGF/FNB1PcOtITvOv8cozG2WJjkf34Nn8EXJAiXxrv+N1dzdj478DC1ZORgQvq9mC1Y+sFNUCT+NrrMVP9+biytrbUbxHFnWLBKz/xXCceKcVdz+QAbFlHJV4adMppwjiloCZCXLAgU/e2YUX1FA+r5vQipd2Ao+o4587gHmFDaJaifzOxh3am5UG7PjtAbwph7id4OfjnK9dave8i6dOKP287hGU4sOo2Zg7XCnT13uHr1sOkuWQc7mUZbqtZhd+sk89OcxlpuXWbRNue1CXR0/nMd30DNvMtNxet1n34PaQZZO0BcfHFseK+E1sseH448f2HHa6mLE+DoNA2iwUTI5H40E7dlfLMoIgCKJf0asR7WunuMiWA5ZEIzU7HTj5UY+K68DDo1tMZIdXoUgnsjlfvT8fR1bn4vjRTlliZMD4kfji9RdR35aC9OwWHH+9HB3JY5lsYgx5HiPGA/Wv54ppVPHQWls5jvsosj3DBHB+LBM13N6hdC7iJHwylq2MxQFev/Yg2lJynV5rIbK9jB80EjD3gUh8+Nt3Me+3u/AJMvDIdCnUBo/CH2eGM3HN61i3px13PGDyeNsy8HN1/Hcq0Tk8Q/h0OVOnT8EdrUxEimnzzimyueD8+bh2JrzVaTcgeabi8VUJGzcbd7fsEvUvHXMgeYLvvt4l+ewBQjff2uE50urhQEmNA2EpCbpphSPS5sCnVcqJM3V6BrBTHde4Td4slGXsp1xAK795VyfamcBPPaeVK+vl+zbrFjPfxky8qh1DGw8Bd/7Mt7YExx7h4/waH7ezc6SwF47D6t2wv1eFAZMLMH9CtCwkCIIg+hOh3Rhy6Hikowrlp67Kgr5IKmYV5CG9vQz2rYfh95rU7kbTRaW3qcxoLblpzEgMaDuNNlnvqKoBIqIC2KDShhHTlsl+K3h0cSaO8d49f8bZdhtibuUDy5B79wi0HXq1S1HqKSvfQmFhoUu3rkD+wCs8Sq0KYClCo8LF0NT0RKbASp0R7BOVTGAmYIzBm6wb/1IDPnXYEDlIVCgMH24UmQIbnpmQgM5jlU7hfeIAdpyz4bZ0NRrLOHdAE7AlVfXotEU6I9ReeLNQJ+rRgBPngLgYZdol+ypRa0vEVFWBjhmO5HOV2nqW7DvgXGfTNvFOA57SR6fZjGuZkB9mULtetllX2bMIf9AJ40v7T6ItPBbxcrg7dP8484Erh7HNXoaOkXkWljGCIAjieieEhXYqxucMQFXZIVyTJX2StOSAiAIrvrrMlFPESEQMUYZt6dxWcpxJnkCwEn9YexCY9CuZ1WEPxskajfaTOKYJ6Y0o/nES/vB73p+CGKbh2i52LXJYuvZB5Ofnu3Qr7PIHXSHSJqK9yVE2EVXe/ov7Zae3gUgc9SjRidIXNjltEiX7djHxnIC5cvw/qpFySdOVwGx9S7hFQ1tus92DC2+nqF+SmoDaMzpxzCP5unH19hZfEFk1tPF19hUVD9useyiNGbXMIqpNKQAE5TjzxNAM8mwTBEH0M0JXaA9NYQJ1INJFthHe5TiHJ/ehyBB/fWwvQlV4NgoWTERAXyBfakEHwpD4cDEmPFuM9OQaVAXENiLRMoPwV/axmGMlti2pAW8n1lWCEmnUNVTj3mPNBiE7f0ShYrXg3QE0MdGuF9tqhFnBhmGRsre7CMsLE886a8eOc7JO8iYT1op9JAFjhjPhra1TAtY/kAHo1pvbVnyFe8vnsulplhhuW5F1wWbca7/CnTiIjfI4FBYlWdddeiSiHTMR8wuyMeB0EbsObMPhK7KcIAiC6BeErtC+UIwdW97QdQfQiGuoKmb9B/Uu577AVRzeakdZezryCmYhUI8JtulZwNEXhT9b6R4PUDTblUsXm2WfL2zEsdMOJOb7KsyNBDTSyATqI+NsWnRXiNFxUwLjH0Y71+8SaccYl+G0lYzJwB22BnyoeZ19QI08W+ZkdqD1suwdk+PagJFbOrgVZcxwxOktLBIt2i63iREHzrcCyanOBo8GdBk3luRbRLSDyZUGmXZyGXJ/5m9EeyMuMXGbONY1x3bQI9pcZN+Xjo6Ddmw70pftbwRBEERX6V2hPTRXF60G4nOU6LX7fNp9mzMf2FF0egCyNa/mdMQ9oUSjReaQ5HzRP2HRUlnvGce+cmD808o4Wveq0lCyu/DGjOrret6Jho3Sj+0DPL+xEgV3TuOJFzz5vQOJDXc8IG0OD2SgSZ8h48QB2QBStUHwztSwzy08c4d+vNmiYaTmud63Cy8dC9dsJdtFo0u9r7obXDqFD8/p1mtCKz4xRbRFBhQ+fzZftRGkAi93IHmmHPeBSHxqEdHmHnDewFJdPzVSr/i/M/BzWX53CxsWNcHn2FbeyHahPIZ+hZjT+oi201YispKovzN9uObYI1tQr02jp47DaEycPgzn36OMIwRBEP2ZXk3v1xcIZHq/QGNbVIyEKy/i1Pv7ZIlSlo4ApffrEYKR3i8DrfqUfQRBEARBEL1ACDeGJDwzHTdHyV6NpYhKBjqu1MhhgiAIgiAIorcgod1n2YemQrN1JB9hR40Rbl+IUDOL/Mm3/MQBYebbeEK8yl+IRFlEEARBEARxPUHWES+EsnWEIAiCIAiCCF0ook0QBEEQBEEQQYCENkEQBEEQBEEEARLaBEEQBEEQBBEESGgTBEEQBEEQRBAgoU0QBEEQBEEQQYCEdkiwFIk8Pd8Tz+MmWUJ0nanTZ0P92uOS/PvdfM48CIzJCeq8urte/ONE6tcRA5rKUUvVyLuufXbfE4blNn310Ru9dixct/APQsmvhg4ehT+y/vVjZBVBEAThQkgI7YGjFlh/et02CXeJT7Trusnq58uJQMC/JDnq3ulyyE/4Z9p7Mvc20W3aDv0aq2ckYfWPFyFgH87cswiv8Gmu1X8ePXAce4RNm01/4yHXz8YTBEEQRCjTy0I7Gqm5DyEL59EoS1xwVOGjLW9gh9odPCMr+ibRE+aj4B7zw8Im1K/OxZFXnsNXsoToOiVX2tlx04pa1l/bwsRZqwMlSlWf5npdr2BC2yzQtPNNiKYr7L9LDjTBgdbLsoqTNsvi+kYQBNF/6dUP1vBIdnrbVhy9kIrxC3OAA2+wflnJ4RHtbKC8+BCuyaKeJpAfrEm9pwDZQxtRZt8N9XHhpnu3Yez4MGWgthBH3t6k9Au4pWQsWl5vQcLDWRjAi9rKcVwV5JmvYkL6cRy/MkubRofuy5Bi2jG7ndMc8jxGPRyFhtWP4yv9fPW4LIMF3CqwcjIi5KCTs9g5YyaO8Uh3PpR+WSOi31rZWvx07x04ubYZOep02g9ioz7KKn4/Qg448PHa21G8Rw52B27vSD2Hl1oy8PNxNlHUeWwXfrKPCQcGtxr8PKoS8wobxLB4Pf5AJD787QG8KcZtxSeRGbjD5sAne+px28wMhDkq8dKmUyjh9RNasaMmEXMtps0R05d1QAN28OnKIW5tuLtlF17DFO03tXvexVMnRG+34RaMnOZf45VnNsoShcEv/AXLRp40bH+XMsP+AOoLk/CH38sBFXFcxOKAfr9jGXL/9CvEfOj8vZh2bDFWP7JSKfBxX7uM1128HAvsAoRnls5m+1oOnjvgPC5kXeSRd3Ei9X7MHc7L2DHxzi68oG5EPv2ZCXLA9Vjg+1sZj6Mfl9szhuPEO624+wF2fIlqeYzxfh8wHmem5RLTz0GyHFIwz99Zb15uz0Rj4oI8pKMKRVsP46osJQiC6K/0akT72ikusuXAdQ2/+TCRHc5uPjqRzfnq/fk4sjoXx492yhIzKUgX4jiX/a4QTRFZiM+UVZzkfEVM8/rX+SfZH0PcEFnnAXW+VbWKOBfj886byOaoVoHCs4pA5v2ikwLr95+gHiMw+lHxa8G4sUxI1XyiE2AjMEeIMj7er/ExJmPBC8uUKi7Y8mOZ4JLTLWzGnSsD6P0dnqOI6d++i3l7GhA2LkN4eH1ieIYQVzvO2XDHTEWA19oSMVX1z9gyMFed9juVbMWn4Bm1jgmvn49rZ+Ka1bHupWPhmGvyDIeNk0Jf1DuQPCH4nuJL+0+iLXw0xs2UBYz4WBvaTv9ZCm/2YDT2E7mP+f44i8T8AO2PYO9rb+iPBdP+WpLPRHYrE9dif+1iD1g5ijdZR/JM5eGI/0YcE9mqsGZidWY4E6/Kvuad+YFrbiQTz7LuJXZi3PGA4iVXSMBc8YDH6/kxxo4rX73Q7OFwLkq1+Yppz3EeR0vymYjmDw28nq0zv/LU7lFFNn+AyEEcE9fK+AfQxI5J333YV3F4qx1l7enIK5gFim0TBNHfCf3GkLZ0nU87F/GyuO+QilkFeUhvL4O9SxGeTtS//jiUW/QmtDBhHDZI56nmEW5VHF/chyttYbi5103TK7HnkAOJY9WGa2sxOsWBj7fqI5E8cqlGPjfi2GkHImJTxNDgaaOBQ686o5q//w983K4K98VYV1iIQnNnX4Up4sc+wKODamTyxDnUIhzDfN1mbNwdMsLceaxSi0Zr6Kd9qQGfOmy4LV0RZ0tSE5igcUawS/ZVGkU6Rzd+SVU9Om2RpshjEGAPTgdqbBgxTT7oiP11Fge0yPdK/EEfRRYPUrEYrBPmXcXzvvZGgI8Fub8iB/GBBIwZ3oAdWgTbgReOsIeylATjgw8TrKqAfvMM+22kTVfv3PdGmIgeZ0PtEWeEumRfKT5xsHlqgpZHmNVjpYEfpoiLsZqWBZdO4SmdqDceR3y9mLDmy8oR66yb9uAE3IZKvKaNz7YBf+Bjx64/nPnAjqLTA5BdMB8TY2QhQRBEPyS0hbbjkMGf/dHJARjf18R2WnKPL69BiPcSIkqacocSmXz0DiTWFHu3fsQkiIaVPJoaMelXzkwTe3+FO8OVnwCbsSI/H/nmrmANSuUvQgcHzrfKXia6hkUqEdDtv1A78+t7Jt5rGpz2ACaYfqKzlgSTY8fPImLkj5SGrWJ/6d8+mDJ/7F2IRFneXTzva28E51gQonOwDXFcEGv7inU6G4iKJlg5Jw5gnmbvaMBTIkLOs54o+9r41sTkbQ4oPCqtW27VfiJQPNaacObC2ubAp1VSWA+KRJgtAz9Xx2Wd04LSFQYiPZPi2gRB9F9CP6Kt41rD+V7zaneZ6t2w24tQFZ6NggUTES2Lg0nnZcWj3avs+TPOysgkt43UH/fBV3ulQfMIa9kxdJ3i8Q1AFLPHUMS1aDgm4Z5r9ZW+0um9s70Ij1JL+4h5f3Fv9JwU7r9X98UW1Mu6QOB+X3sjOMeCc39xD71pf/nhk1YelJTxhE3IILbVyLlKOA+GBwRheUGlZktR7SEK8uFveI4mwnGs1HgM8ii/Oq7aaZF93+DtUfJGdqDMbof9g77dgJ0gCKI79CGhHY3U7HQMbKhxn6EkZOkZ3+JN9z6GxIgatFTIAk7ULTI391Ikqg0qdXx1pRMDUqd3LX/3Z80u3l4nG1H84Vkk3v0X5MQcxB5Pwmnm21gwyaaJOxFdnfQ4ci2n2wMRbe31fwLWG6KBfjKGN5pswAlhNXGgpMaB5JnmyGaosBIna2yIuXUtRlvtr/Zm7bwb95r/Ee2IIdKW8ugeLGP7WsXzvvZGYI+FqdOnOPeXsFQkYG6+f5YJd4jsJxqKFUTvv586PQPJOluSL4i84EwsW/qntewqNjwzR3cMDx6Fu7klRieiDQ0duZXKloFHTF50fxCNvi3aoxAEQfRHejXrCIbmYm6Oq7GiUWYf4VlJ7ho9UJYC107uwEenerYdeyCzjnB4er+88EoZ5ZmOuCeeZuJYqdPQMn/wrCOz8MXr89F0Uaniea8TrsjMIjzryGzF16xQg6rVqp+bo59+J+p3nUbMbCXriPVvGL5kHdEhMkFowklmHZFDohHd3oWIOGTOdKGU68WaSxYLU5YL12l3EZkZxJnBgWdYyECrlnFBn2nCITOL6LKOyHGTZYaQn+wLd44/yJhlQomIGq0fxmwQDB49lMuiZh3xPcODf7jLOqIhs8nAy/5qO3QQbZNG44rMDmI8BlR0+0tOV80us/P0aMxxm3WEY72vg5J1xOP+0h8LCs4MHEodbxhrmRXGZdrmzB/K/nZmHdHP23xMWh8b6vgumWlEphynuK49Vom4cfIYZsPG+SoYM4vw+RttTT5nv+Hp/YbXUhSbIAhC0rtCuw8QaKEdULjQzm5xpvsLObhAy9UEmRN35UQw8Sq0Q5ygCG3DQ1c/QJ+uUhYpZYn41PQgQBAEQXSfPuXRJvoWwmLgSyNIgiB6Bt7YUfaqTE1PZGXtOE8imyAIIuCQ0CYCjpqhYk7MQWwMVPSRCAhaho8+9Ol89XhytacQfnPiAHacM2ZTUXK7Gy1OBEEQRGAg64gXQto6QhAEQRAEQYQsFNEmCIIgCIIgiCBAQpsgCIIgCIIgggAJbYIgCIIgCIIIAiS0CYIgCIIgCCIIkNAmCIIgCIIgiCBAQrtX4V9lLEZiphy8zlDTsnlPJ7cMuX+qw08flYMS/oESPq65vFvwrxB6Whb+FUN1mffuwThZ3CXEtIzTMGyT19bKUt/gX5Xc/gvlE+78637blzo/4e0C/wiJ/K0T/sU/L+N1AbFcHj5VLpZVppL7Yzc+7S3gH5nRLz8f/sVsPMN2qH77BIIpK99CYWGh0q1fLEtNTFuFtzzVu0FM274KU+Rw6BKNiQsKMCtNGbrp3m2YsGipMkAQBEF4JSSENv/U+tyFD2H8UFlgIn7yQ6JedJNTZSkhGPI8Rj37KtzKF/71yCeex01ysKdpO/RrrJ6RhNU/XoQ+8T2MPYvwCl/etQfRJosCybFH2LTZ9DceCs5n1kORNwvfxbzfvosd52RBSDEFq+xSTJsEc+naB5Gfn48N5Z2ypB+SloV0VKG8Wg53Gy/BBW/XM4IgiD5GLwvtaKTmPoQsnEejLDGi1I/HAezY8obSHTwj6/om0RPmo+AeeljwhUvP3C5E6R9+Lwv6OSVX2gFHK2pZf20LE+qtDj8/Hd6Ap5jgnXc9fXL8cis65VcN9dtHhZ9v8ydEyyEzi7GucDkyW4qEoBbdyTFYVyCrfWH/GjzIx3tqsyzoa6RiVsF8TIyRgyZSh8ejsfIwrsrhvguPzLtfT4IgiGDRqx+s4ZHs9LatOHohFeMX5gAH3mD9spIzNBdzh9f0qrgO5AdrUu8pQPbQRpTZd0NZIx7deRo3lxUCs/MRJ8pqULX6cSjxzqVIfHYWvnh9PpouigLYFhUj4cqLOPV+CqtTx9HTiXr+ezyPUQ9nYYAsdWKevm4abeU4/spz+Ir380h4+nEcvzILY8crH23uOMrnu0/0+wK3SeQ0/xqvPLNRluhZi5/uXYhEOcSpL1RFtb7OgY/X3m76jDu3mvwKd4bLQZzFzhkzcUwOuUy7ZgtWq1+o5NaRu5ux8/RozJFfGuRRd5dl5LaPlbE4YJguxzRv/bQ5fPr5I+QAx7xsCtwWsyy22Dhud+E2ipl6C0eD9sU/bqv4+TgZJzx3APMKG5R+DW4ryUGyHIKjEi/pBblp2rV73sVTJ5R+Me2oSuxADjtflTJ9vQq3kNzdsgs/2WeK5hum7cAn7+zCC7rXH4Zl55iXzSNcSGYj/kIZ7B8YryPcvrE8rRobCtagVJZZIX43aK+LmF68vhB58iDrLN+AB9eap8Kj5UzIa4teh6L8FeBTMc9bnVbdznyssIsfu4FPcxlQ3YzMrCR20hShCHku44rpZ6kfW3fO10DMRMy/Lx04XYRtRyyktKiPQKV2vVKsI2NjdqMK+UiXB0vTrlzUV/A+9XqmDjt/f+TtTeLapY6jR7mueLme6a5/zmno6/i1bCxaXm9Bgnrd01/POGmzUDCZPTgctGN3wCL0BEEQnunViPa1U1xkywEL4ofH41p7NBPhTuuIO3tJaKP4HLPDq1Cku2mpxM3mYjoXR1bnoqo2Bek+eSA3oZ79/sjr5egQ4lkZ/8hqeeO5+BxO8eFdNcoNR6tXRTa/KeYjjN3klPIXUY8sjNXPOzlfuUnK6QwYnx+gV7pcrC5EhGormfFrfNwuqwQr8QdRvoUtkyuDX3gcd15hAlf8hndGITvutTtwUqtj00hZaPR5h0/GHC5yef3ag8Ckx5E7U9Z5YdxrTGRr82bLHbMQT7zAhA+Hi/P8WPZgIOcdJPuJJdyTPTOciVTFpjHvnUomQ5yU7Nslyl86ZhK5kiX5OYg7pvxGdAYhy0R46jln3Z4GJM80eaGH5wgR7bbeHebl3tOOOx7QjctEuPKJcOe8/eMMdtuLUBWejYIFE9mZqDIFU9PC0Fld4lFke2LzU0oUvMjqIFVFtj5abiV2GUJkR1VgA/uNZ5GtEobMtFZseLkCnYl5mHF5g7C3JI2WtpeCdUxkNzNxrcx3Q3ks8sx+cC46mcjuYKLTUmQzUjO5CC93uV7x6wJ/2FevC3GzfbN6ON6W1xl2UnBxrlx3cuXDu5frGYOL9vQo57Xs+FEg8WH9vNm18+EoNIj6QjRFZCFeb1Gp3g37e1UYMLnAw1sOgiCIwNKrQtsz0RgYDgwcHYEG1TZyoBHxOQuQGhi110PwiFoe0tvLYN9q/Qq2aZfzZuKoYsI4eWzwPYqZ+UiMqEGDFqHeh6ZCdpPTz5sL9Lc3Kf0Vx9GEwbh5iDLYLR79b7gTB7HVMtLtIyl3uG2oeOwRvfBeiZNsk0YMkWKY034QG9VI8p4/42y7DSOm6erdshajU85ipxaF3ojiD88iYuSPROPKcQsmA4deNUXffYXbGHReYbXzscHckuwMtuKlhkiwv4SlJLhpJNmAp/QR8BPnUItwDNO3KD13wBmpFvUJGDNGGfTE1PRE43KfqMQnDnVcG56ZkIDaPUpUvutcxeGtdpS1pyOvYBY7I3uAgrnItNWhyIulZKoqsr1E1c3Ulai/r8NeUyR98egk1O10ivrStXtRZ0vD1GnKsLCvTR6Aqvc8RXZTkTz0Gs7XWFyxagudb7bEdSEFUUFv0L0U8ePD0FTmjFB/9f6/MdGunzePcKuBhE1oqWXH9KDpYkjjymFss5ehY2QeWfgIgugRQlhoKzQeKHb6ty8cRZVjICIGyuG+QFoy4mWvT1xqQY+Zd9panK9V+xDcu72zZgTmyOwdWkRZhds31MwerJuTIsst2YhLV2SvN2YmIALO+YrOYBPpDpuxQot86jo/BVhXebNwFz5BBn4us4OsN4lkfeYQntnDwgGgo53bx30iOcqGsHE8W4g67dm4I6hPmfHI6IFo5pS4WPbUbPSLu2DLRCZ7zuhOVN2VKRgWBSTN0T+w5SFJ1vIAxq23eL+ARk/IQPyFShz2em7U4Isee23TiS8C2aJ6aAZ5tgmCCDohLLSv4lo7MCCij7/i468rLV9du2FwFAb0lACOiDJmI+Hzlr2hjpq9g1tD2ib9ymTfGCH83kp9EhPlSpU1yzCY3WzbLvoaXeeea+e0RReQjCrdi2h3Hwde2CTtGe9UIm6mU2xzj/Tc4dzvLet/e8CzgEQ4Im0OtF6Wg17o1FtWZGf2d3cPvXVLtUqU4nwLEJY2NSjbt7SpWfZ5wFEh7B/IWu5fA0wf4H5t40Pbg1izn9co0X37wQ6k3+dM22ckWojxxnMuphELUnBzRIAFsFvCcLMhLyeft+z1Fe47L8jGgNNF7Lq8zYcHCYIgiO4R0hHtxnONGDh6vDMiPHQ80m2NaPDg6w5NfH11PR1x2SnoOLNPJ7SdNxfhUTSHEi9+jk5Pr255hDxiJCLMlg/5yjfhXvXVqpz30UL56jWIfNaMtvDRGCd90cL3rDVs9Jca8GQTRhy48pnsfXSP54g2t7GEn8VJXzKbCJvJCMxxk/+6sdmh2UhEg8yVk+G7DuheRJtnIXFaPxKw/oEMduR0kUsOdmyY0EVnuZ/bU0R76vQMJDvqUeKD+HrzTAPCxk0RebBdceB8K5CcKhtKCj+3+3zd1nCRbW3d2lxUgU5bJpat1EntgnWBEb32E6gzT9sKnrVkZx2S5ryFVdLa0T1KUVLdyaa3jj26ecCTX9mPlH433TsLcW2n2YOqLGBodo3MV7WG1E724Qv2gBOX7qYditvrmWIFict2pipV5l2ORtnw0iuy8acnXzpBEESg6dWsIyKrSI6rsaJRl32EZya5a7T6qrMRR7forCQ9QCCzjnC4PzIvvFJmQFBa6Sfq1JhLZg+e/WO2VIq1haK1v5J1xM1vhE/R6fnmiJb/2g3PQ9YRNn2eHUDAp5ndomu175oBxRueso6IrBu6rB8HYn+F0cdl1hGXzB0cNfuIOeMIw5T5g89XE9ftB/HxlckYoS6Hl6wg+uVyov+N6/ydWUv0dXx5ixGzkjfM7ImsIzY8s1S1XfDMHZWIfGA4ToisI/o6HVr2EVPGEQaPMjuzgxjrO49VomlcIlpldhDPWUFcp80xTN9DthTj+Kz8nVbcPQd4zcesI/x8m87EnVthxT8482Sm86GkvkhmFzFnDJFo9fwNhN6SoWDMPmL+jfusI2qWEOvsJXqU5YosyceKWr7skdjLpllryoxizDrC4NFzy4c23oYkA23vOaO7PDtSRrt1JhLjtYRhzuzB82Drsn5UnRmJdJl1xInxuuPxmme6nhmzjviaoYlPmz9wsQeAfRTFJgiiZ+ldod0HCLTQ7k94Tu/XvwlKej+C6C4WKf0IgiCIrhPS1hGCIAiiBxFZOUhkEwRBBAoS2kRQiZj0KyU7x5/elt7l/g2P8vPt4WpPIQiCIAjieoOsI14g6whBEARBEATRFSiiTRAEQRAEQRBBgIQ2QRAEQRAEQQQBEtoEQRAEQRAEEQRIaBMEQRAEQRBEECChTRAEQRAEQRBBgIQ20XfhX/UrLERhoZvPVxesY3W83svnqIlehH89ke+jQutPn3vbx37Bvw5YgFlpcpAgCIIggkxIpPdTP7Ou//Q6vymm5s5Fuku64WuoKt6KM+rXoYMMpfcLVZRPUadVu/tktfL5a+zMxwq7LCJCF/EpdOVz4spHxE3wh6aprW4+I+4jabNQkNGGoq2H4eaD7ARBEAQRUHo5os3F9EPIwnk0yhInV3Gm+A3s2KLrDvBfdeBaD4nsYBA9YT4K7kmVQ97hv58/IVoOEU6SEWnrRPUhN7Jr2jDEog4nSGT3DfaXoNoRi2Huotb2E6izRbK97olUzCqYj4kxctBE6vB4NFb6IbK5MPfjXCUIgiAIM70a0eaR7PS2rTh6IRXjF+YAhoi2K/GTH0J6+w58dKrn4lGBjGin3lOA7KGNKNM+cTwdcU88BhTuxs0P5yNOlNWgavXjcD5LcPGQjfgLZbB/YPowMo/yjT6BDZdnYHlWmCjqLDdGeKesfEurAxOeRbqI4eL1hZhxeQM2Ypn2mzp9BJhPf06SHHCdNh8/L1EOoBMVLz+INft5P482LwPe3IvIJ/OgTME4b4GIYmYCpun6Bo9Yz0CrNk8T3iKkbuDbaxnbInsHLdfWzbBNZCQ9U33TUl+E/KfkHLR5nsCYQrnejgpDFNa4P8zTVqLw2hY3jMvrxuDEy62YwbaZmIJp2u7xZX+Y5q2tlxy3uhmZWayWlRchT2wb/bJ7Os58Q11GN/tTXX93042ZiPn3pQOni7DtiMX1QdRHoFL3efGb7t2GEfg3NMQ8jXSp4Jt25aK+QunngYCJC/KQjiqKghMEQRBdolcj2tdOcZEtB7xhm4T0hEZU9aDIDhyKNzQ7nN2wdTd6hTAkPjwLX7yeiyOrc1FVm4L0RUtlHecMdtuLUBWejYIFE9mUTCTmYfmgvcjPz0f+y0whZC1zelmZUF6e1cxED6tj3YbyWOTZVzFJ4yQsa7k2/obyTiRNVeuZsJkTy8SzMi7vzAI+L4oJPW3aQOaTei90GBvmQpjXb0CFIwkzVurnHLrwbcIfQMR676xD0hznei1ez0R2CxOhYr3ZekXl4S3DeiUhTzwA8Poi1NkyMVf1HjMhvky3P3hnFPB5iGUPHdq0kYnl6/XucjZtIeQtpu0Vz/tj8XouYtXlYtNmx5XTM83GTWvFBnZ8dbJyvm3EsTJaLpsPx1lQ4ZFnJrI7DtqtRTYjNZOL8HLTuQcMGP80Eq68KM69I7tqEDf7VTjdaldxeKsdZe3pyCuYxR55CYIgCMI/+kxjyPjR7EZ58qiFxSTU4RHpPKS3l8HuJirWtGs+mi4q/Y6qGiDqFtykDEo83PB5VFONqIrX72GIlNG5xaOTULfTGQEsXbuXibM0TNW/nteNX3qoGp2G1/NhSJtkJZcWY25WGOpKnNHU0rUbhXgboxN+dTvV6GQpSqo7ETbI9OJ//xo8yISZ/9FshrCGNOO8ZfSTkRyJMEcrauWgX9QXOZeJWxbYnBRLw2KMSaxDkbq92XqtKalDWNpUg6h0rvdmnKgHYuOMQly/jTQK5iLTVoe92rZg036TC9sxuocX/tZA3Z9W0/aMp/2x+Sl9pNh12s59rV9GBZ+OM6+U4nyLu+ONU4tW0/HFEVasyQNQ9Z4du6tloQupSB56DedrLM6+2kKcen+f0l9xHE0YjJuHKIMqZz6wo+j0AGR7sKUQBEEQhBV9Q2iLaDa7UTb0wWh2WjLiZa/PRESZhLaeeGR48WwrAmkKhkUxWTdHyeigdDprgKSzukQKKIYQvk4ht0JEyJfLcc2ZOzrR2iUV2124hYAtzxJgo5WNgNs3eP3oE8jvTsM5A/LhRYh7HrFWtyfrdNYahTqDL3zzU7oHCb59RYRcjmuO+nb1wSAQcJuQbr2cliBv+Hac+QLfVtyyY51hhD14FGxA61Q+ffVYjMattwwUfZ6InpCB+AuVOHxFFngkDDcPlr0uDER6JsW1CYIgCN/pE0KbR7MHNvylxzKNBJTq3bB7sn5Y0daCr2Svgt564v71uEpzk1Nech+talNQOnceWAtkxFmzAxjEtjNyrsAbJ8reoMIeAPgyvQkss0rbpy7zyTGuQrbL6B8quP9Y3Zay80fQ21do4xW1ZGK5fhnNjf14VF72BhX+cMIeGPTHSlG9rPORbh1nAm6dKcSYk+7G5Q9Y3MPN69UHLOVNj/1gB9Lvc5e2TxHjjefMphF3dOKLS7JXwttW5I3sQBk791zaSRAEQRCEB0JfaMtodtXJvnyD89XruRSJs1PQcWafTmjLBlkerCcqU1YuE/YDJaKq2AP0/uLuUNrULPs4irXA6efm856BJEcFduiiuV6R0Wejx9lH9p9Hs2bpsKC21WSD6RqL1+ex9apGCRd+wpqThDyDb7rr1F7ulH0MYVHR+6aZ8JyahM7yHa5Re7coYrVrOad1DxMF6/yIaAfyOPP2lsSNVYg/zL5XhQGTC1wz9KRlicaM5W5tJU5si/IR13YabdLGxRENmC3bVhAEQRCEd3pXaA/NxdyFD7EuR9gr4nN4/0MYP1Sp5iIzNbsPR7NNaF5PU8qwuNnFmPAs7/IRdvRFp2eUET1hOoZ9XuQ+kmbLxHL5yl5pkKb3yj4oI9HqK33W+RrlNVkJCkXDSOe0+Wt+EZGV9WLeAbNq9DKJedp6iwaf2nop9gXeAFLbLqzz9UGBNyDVj2fcZjxSX4RmzaqjNLrskn/dX/avwd563lhSLtvUVlT4EdHu1nEWKK4cxjZ7GTpGTjf4qHlKv2uff+b+ATU5X557xUiPKsfxV55zPuSmzUI2vD/gEgRBEIQ7QuKDNaFMcD9Yw9P7PY2by/QpxfyAi+HufsSjz8KtBMFJ7yeysGgNHomeoZvp/aywSOmnh6f3GxuzG0fe3iRLCIIgCCKw9I3GkAThAs9CYfaJ6/BmLSFCi2lTkWbzkEWmYAyS/G0sKqLcZPkgCIIgeg8S2kQfRUl/FyuyXVh5kjdjxc5maYcIjE+dCAYyi4z4cJGFH13NIsMba+rSSRIEQRBEX4CsI14IrnWEIAiCIAiCuF6hiDZBEARBEARBBAES2gRBEARBEAQRBEhoEwRBEARBEEQQIKFNEARBEARBEEGAhDZBEARBEARBBAES2r0K/2BNMRIz5WCwSZuFggUTYfpINUEQBEEQBBEEQkJoDxy1wPTpdSfxk5XPsqud1W8IX4jGxIx4NFbS56QJgiAIgiB6gl4W2tFIzX0IWTiPRlmihwvw8TiAHVveULoDjYjPyUW8rO+LRE+Yj4J7UuVQDxJzK4ahCuXVcpjDI9y9sSwEQRAEQRD9gF4V2gNH3YWIyjfw0SnrGOuA8IG41q6ru9aGa7K3L5J6TwHyRnag7APzR6GXIvHZYkwQ3auwyVK9tcS2SK3fhrghstoPUjPTgc8/M0azq8tRFZ5NdhKCIAiCIIgg0KtC+9qprTh6QQ5Y0HiuEQNHz5V2kWikZqdjYEONZfQ7tInGxAUFyA6vQpF9N8wyO272LHzxei6OrH4R9W0pSLh3uqxRiJtdjIQrL7L6XFTVhiFx+lJZ4yMxE5ExtBGVR8wPNFdxeKsdZe3pyCuYBYptEwRBEARBBI7Qbgx5oRg7thwAcrg/ey6Gfb4DOw6aZWqok4pZBXlIby+Dfau1P7pp13w0XeR9+9B2phMDYlJEuUZtIU69v0/0OqpqgKhbcJMY8o3olGEYeKHWReCrnPnAjqLTA5BdMB8TY2QhQRAEQRAE0S1CW2gPzWUC+3a0FXOP9gF0jJ6LubmTMFBW9wnSkrvtKW+q2iT7GBWP48grz+ErOeidVGSNBKoqfHlAGYj0TIprEwRBEARBBIIQFtrRSM2Ix7WTH+GMgw+fwVEmthtt6UjvS5lHqnfDbi/qPS80F/od5/HZFTlsgeYdt9thd/GPEwRBEARBEF0htCPajIHhOmk6NAVMeqOtz7WI7C0vtPeUflxku/OOEwRBEARBEF2nd4W2sIZw/3WOsFfECy+2miv7Ks4UH0BjQo78DetyBqCqeKuMcPc9NC90T6XU4yn9BjSiVp/ST0/aLGTDvXecIAiCIAiC6Do3DB48+FvZj+joaHR0dMghgjNv3jxs375dDvUteLQ6o70I21yyjRAEQRAEQRDBJuStI0TX4RF0EtkEQRAEQRC9AwltgiAIgiAIgggCJLQJgiAIgiAIIgiQ0CYIgiAIgiCIIEBCmyAIgiAIgiCCAAltgiAIgiAIgggCJLQJgiAIgiAIIgiQ0CYIgiAIgiCIIEBCu1eZjrgnipGYKQevVx7dg2f/9DYGy0HvrMVP99bhWdH9BbkzZbEB+Ru/psvgy7J3D8bJQSvGvVaHnz4qB/zChmeW3o/t+QmsPwHrf3E//jjdplT5wNTps7GdjSM6MQ0LBo/CHz3VW6Islz/LEjyUZVk/Rg7K7aSs92w849fO9A+xfU3bbUm+fllMjMnRlknZNzlYIqu6zbRVeKuwEIWiW4fFstiA+pv1lrVumbLyLRTaV2GKHA5dojFxQQFmpcnBzFcx4YnncZMcJAiCuB4ICaE9cNQC3afXjcRPlp9f513uJAyU5YRkyPMY9eyrTL64obdvXjPfxhP5sfj43xfhkizyzkr8YUYSVs/YgnpZ0pMc23oQEfnuBH7wKNm3C/N++y5eOuaQJT2DEJFLR2GqHOZYlQWHBjzF1nnebw+gVpYEBSaafz6uHTsKG2SBwptllYibGVyBb8n+NXgwPx/5L1egUxb1O9KykI4qlFfL4W7jJXDh7VpJEAQRBL4zfPitULueJxqpuQ8hC+fRKEv0cAE+PrwKH215AztYd7Q9HXdNTpW1fZPoCfNRcE/fXgffWYbcn00GDr2K4j2yKGBIMf5jfwS8j+xZhFcKm3Hnz/yMlsOB861AZ0s7629HK9PLTVcCLJovncJPuDA1CUbCEwlYPzMBtXsO4E1ZosG355523DHH4qHicisTwe04zw6wkitsnzpaDQ8D/FyePyFaDgUBVYw/tVkW9DVSMatgPibGyEETqcPj0Vh5GNfDt2uDfiwQBNFnuWHChCnfyn50dLSwrkMOBR8upNPbtuLohVSMX5gDHGBi+oKsZBdplzLbJNyVG4GqLcWWwjwYzJs3D9u3b5dD3SP1ngJkD21EmX03zogSHoF5GjeXFQKz8xEnympQtfpxJtk4S5H47Cx88fp8NF0UBbAtKkbClRdx6v0UVqeOo6cT9fz3eB6jHs7CAFnqxDx93TTaynH8lefwFe/nkfD04zh+ZRbGjg8T1R1H+Xz3iX6f4DaNu5ux0Y0YHvzCX7BskjO+VF+YhD/8Xg4IuD0kF1fW3m4Q6obxarZg9SMrlX4dbqfNlykf2DljJo6xQfV3bYd+jVee2Sh+q8AeEv70K8R8aF6m7sKtEjlIlkNwVOKlTadQIgc5PJr886hKFzHNbQ5zhyv9ncd24Sf7zCKe2zJm4w5ttRuw47dcXCrlt9Wo46jLoNTX8vml1BuWQyyDvozbKJhYVand8y6eOqH0898+glJ8GDVbWz59vcs6M4z1HP6bDLS+swsvmA4WsSzj1JVS10mBb5O7W3bhNUzRfmOetrvt6UTZPpFHzMvkDS4ksxF/oQz2D5Qz2sgUrLIvR6a2P+pQlL8CBtnM7SFPRmKvqXzx+kLkJSr9neUb8ODaUmVAw/20uXVkeVo1NhSsYXvFOa26nflYYRc/dgsfdxmq0ZyViSQ+zZ1A3pwkdgIVaYJfTD9LuSZYrhMnZiLm35cOnC7CtiMWUlrUR6BSuxYy+DUnuwVVZ0Yi3eKac9O92zA2ZjeOvL1JDIsI9cNRaGDXM7DrYrr+AJMo43u5Vuqurc5p6Ov4dfoxoHA3bn7Y6jrN8XYsEATRX+lV68i1U1xkywFLrqHtmuzlOK6ig0nHgdrNpa+geBGzw6tQpL+xSOJmczGdiyOrc1FVm4L0RUtljSc2oZ79/sjr5Wyb8Iu+Mv6R1fLmcPE5nOLDu2oUAa3VqzcHfvPIRxi7ESnlL6IeWRirn3dyvnJjk9MZMD7fr9eu48aOQNvpP3sQ2c1M8HKLiNL5KmgvPXO7+P3GQ2ahqeDrtPW/M4pszkYcO+1A4ti1cjgQKIIzjolkbhERnUlke+LNQmWcHedkgQEpslsPOKetE6RO9MtgVW8FGyf1nHO6exqQPNPoVw4bN1sIXl7PrS/JE9QIMV8u/TrvwifWu80a1fIh5/3SsXDMNVla+LyFkHaZN8eGqSk21J7x9AbAgZIaNl6qP753zhnsthehKjwbBQsmsrNcjxTCLUyg8qi06CwEqRs2P6WMU2TpnfJ92kJkR1VgA/uNN5GtEpaVhtaXN6DCkYS8qa3YwO0tiWMUH3nBOiaym5m4Vua7oTwWeWY/eNosFDCR3XHQbi2yGamZXISXu1wLEZGFdPWaw65tGP8Y4obIOg843pbXsDagaRfvVzpFpHu5VjK4iE+Pcl4njx8FEh/W20zC2LB6nebzSUHCvdNlHcfTsUAQRH+mV4W2Z86goWEg0kc7bRbxk3MQL/v7DjzSkYf09jLYt1q/Jm3a5bzgO6qYME4e65eg7RKZ+UiMqEGDFqHeh6ZCdiPSz5sLdDV6VHEcTRiMm3246Sksw+AYNomLZgHLWYuZk2yoL1SiyoHFt2k7Rbb731262AzEJOjsI4uxTmvAput8bHg2dXoGkh2VeM0lEh0AxmTgDluDiwfZiFNku0TDbRn4udYo8X5dBJnTgKf00z1xDrUIxzC9r+bcAW2aJVX16LRFKhFsvlzo+jovYeJXb/ko2VeJWlsipurnzd8KyOUzzFsQjkibA62X5aAbhDUkkolyOew7V3F4qx1l7enIK5jFznZJwVxk2upQFAzbh4/TnqqKbBnZ9pn6vVizX+mtKzGOu3h0Eup2OkV96dq9qLOlYeo0ZVhY4yYPQNV7dux2671ORfLQazhfY3E11F9zLu7DlbYwxIzRC9pgsBTx48PQVCbf5jG+ev/fhJiO0vm9ndfpfWg704kBMSmi3ImbY4EgiH5NCAttoPHgATQm5GiNIRPYzbwRHbgWBJ0SNNKS/Xs4uNTC1rCHaGvRbiyBJwUx4bLXzMwERMCBK5/J4UDi07RH4E5uK6n5xLPQ/6wZbeGxuv23GSu0CKKu81HIJEexebY6fI5g+8NUvrFNHmIzYeOY0Gfb5tMqixOIi1UZNVYjw3q4RUPLiGKygQQPG4ZFsu020/O8O2sanNtUeNh1kfrBNgvLgAXcj20Q6F0hHhnSpzslLtbr/ugqPk3blonMRLZtqkv8E9kemYJhUUDSHP2DZh6SZC1/c3frLd6bq0dPyED8hUocviIL3LIPX7TI3qDTiS8C2tjDeSwQBNG/CWmhzaPaR2VDSNEY8lo0Bjjaek6IBoLq3bD780pxcBQGBFUA64iIMmYj4fOWvd2nBjxIaMmeBrTJ3oDj07TPYifPaJKyEE+8sEyWWXBrLCLam3XtAboX0a5tCd4ToojIeoH7ul9iTxZ3POBfmjrucZ47nHujVSEe5AwhJrjnWn0AUDpXH7dbLjnQJHs9MigSYV0SxnpbmNMqUdrULP4GA5+m7agQlg9kLce6AlkWILjX2/iw+aCMgCsRXfvBDqTfp0vbZyBaiPHGc774mKfjZibsOy/70S6ky4ThZkPL5xTcHCF7fcb6WCAIon8T4kJbh2gIOQznyw5Bb9vuG/j6SnE64rJT0HFmn05oO28AwkdoDrld/Byd7Kagf8VpgEfII0Yiwmz5EFYQvc9QzvtoofRwd5eNuHSFafkhVkJ2JU7W2LqQ1cMXfJ32Svxh7UFg0q/c5swePCQWuNKg85h3L6ItbA3Dc9znbe4O3M5hy8AjXnJl8xSCO84luPicvaIToUvy/Yhoi0ix0+qxJF/fWNMb0jtt8oP7B8/+YkPkIDnoBvFGwO+3DVxYubGF2U+gzpaJZSuDkM3a12nzrCU765A05y2sktaO7lGKkupONj03eb9VeHDhvSoMmFzgmonDn5R+0t7Wwp4XNKJukcGBpUh0aeytRMDj0t20cXF7rdyEFnZwx2U706DedO8sxLWVo1E/b494OBYIgujX9GrWEQzNxdwcV2NFo8w0wrOS3DVafRXZiKM9mG1EJZBZRzjcw5gXXilbpitZRxJ1kROXzB68Jf5s6QWsLWS3qHyZdcTNb0wt6Tmitb5sxe8x6wibvtaiX2YA0LKQWGRA8Yopw4cZ/mGYOTqbozEzyAilUMOBj0X2ESUbyJ1mW4op+4jnaeuWSZ2XS/aSIGUd4R+ceSCDPT5JtKwj5owhknMHZLYMxV/tYpsw+K3Nv3GXdUSdlwOfvLMLJeneso4Yp9t5rBJN4xK1DCEuWT3EOkbiQ2nh0GcN4cvLs5OMOSMzfJiymSgoy6VGrfXjC3SZWtSsIy6ecx3GdbFC2R7+Zh3h5/J0Ju7cRy75GxC9tcKUGUTL3KGi1pvHUzBmH/EybV3WEXVe1tlLjIjfDtqL/KdqRYPLyJJ8rKg1ZkZxWXYePbd82OTtUzLQ9t42zSbCMy9ltLvJRGK4jnHMmT3010t2ndt1GjGzlawjzt8Yr2ker6ema6Ux64h+3sp8by7LRb0U3uYMKN6PBYIg+iu9K7T7AIEW2v0LRayOOG1OndcH4ALcQ2pCoi+hPCjAJaWghIv9Ca0ehDgREKxS+hEEQVzn9B3rCNEH2Yjif+f2jMfR019Z7BZd+polEbo04CmLlIQCHn2fGY5PdpLIDjpXDmMbiWyCIPoZJLSJ4NLlryz2HuMWTEZbofEjOUQf58QBJQd3vtGmsiQ7A017/GhcSRAEQRB+QNYRL5B1hCAIgiAIgugKFNEmCIIgCIIgiCBAQpsgCIIgCIIgggAJbYIgCIIgCIIIAiS0CYIgCIIgCCIIkNAmCIIgCIIgiCBAQrtX4V8cK0aiu8+nXy/wj7/8yVN6P/5hmzrnp9C9/H7wC3/Bs3vrlO61tbLUV9bip+q4e//iNr83/7Kkp3pL+HLv3YNxctAKPl13n3z3Bv/C4fZfKLmg+RcRt/vxGXVlXDYO70wp7jR4TmlP9W4Q0/b3k+5Bgm+XP+o+Qy+2k1xvfXmgEdvAtN14mft58o/oyGWS273Ln+aftgpvFXr5LLrP8C9Oevhku5hXIQpFF6h59gL84zkFs5AqB/mXHicscvPpdoIgiG7Q60I7fvJDmLtQdrmToH5wXYV/hl2rX5gL1w+293OGPI9Rz74KtxKCf3L4iedxkxzscYLw8ZdLz9yO1TOSsPGQ+89uu2cl/sDGXT1jC+plSU9ybOtBROT7KeADQMm+XZj323fx0rGubLOuYyXCe1KYv1n4rljvHedkQTAYk4Ofj2vHDvUT9JKSffxT9bO7LqBDkf1r8GB+PvJfrkCnLOqLpGamA6fLA/jxHC9Bk96+DhME0Wv0rtAemovxOIAdW95g3Q5UIR13TVZjDAxWf9foDhwV9W/gaEM8xluI8b5E9IT5KLhHt47XNcuQ+7PJwKFX+9zHX449wsV4ED5a040P+JRcaQccrahl/bUtTDC3OgL7NcNLp/ATJkrnmQQj4YkErJ+ZgNo9B/CmLHHSgKfeqUSc1Rcp0c53H5qusP8uOdAEB1ovyyoGv07MnxAthwi/MUWsjaQieWgjKo9clcN9mWhMXDAfE2PkIEEQIUdIfbCGR6/vuuU8Pio+hGvsApKaOxfDPt+Bj07JC6JtEu7KHYbzxVtxpocCc4H8YE3qPQXIZhf4Mu0zxDwK8jRuLisEZucjTpTVoGr14+y2y1mKxGdn4YvX56PpoiiAbVExEq68iFPvp7A6dRw9najnv8fzGPVwFgbIUifm6eum0VaO4688h694P4/ApB/H8SuzMHZ8mKjuOMrnu0/0+wS3UtzdjI0/topmcwvHQiTKIU59YRL+8HvWI8fbeXo05kxSYvVth36NV57ZKPpVuIVkWWwxVj+yUpY4EXVyXI42bQ0+/1xcWWsS0zwCv3IyIsTAWeycMRPHRL8Ovnz5I+SAbtlEObRx1GVwXXZulfkVYj40L1N3seGZpbNxh7baDdjxW6MA5NHkn0dVuohpbrGYO1zp7zy2Cz/ZZz7B3E9bTDOlHi9tUj5jrk6rds+72BFjrOOYf88jwtuZWFXh4z11Qunnv30Epfgwara2fPp61+WyXn6+THe3uJaLZRmnjmzcXuo4r2GK9hvjvN1vTz3u5u2ZVMwqyEb8hTLYP7CIuxasQ+GcJDnAqUNR/gpslkOL1xciTzu5OlHx8oNYs5/3T8Eq+3JEluRjhV1UYsrKt7B80F7kP8XH5taRGWjdWY20OZkQZ76jAhsK1rC9oINbSJ6MxF7dPBWU6Weqm7S+SE7XG3y8ZUB1MzKz2Hqx8YqQJ9ahbqdpWbOU65F5nTXSZqFgcjwaD9qxu1qW6eAPMXnhlYbtyq0jY2N2owr5SE9Wypp25aK+gvep12l12Pn7I29vEtdkdRw94np5Ynr3rsOibixaXm9BgjodQz3Dy/oSBNG7hLBHOxoRtms436BGHVIxPjcdA9m/iD4X0uZRByayw6tQpIlsJ3GzuZjOxZHVuaiqTUG6T17BTahnvz/yejk6xEVbGf/IainKLz6HU3x4V41yYdbq1Ys7v3nkI4zdDJTyF1GPLIzVzzs5X7mZyOkMGJ/v3qJiwbixI9B2+s8WIpsLzYWIYAKUW0BWz/g1Pm6XVSrhkzGHi2hev/YgMOlxn+0WisBlQl1MW+l8FrQ84izn2SaLDAgxHYuP1zqnbX4A4OiXwbV+I46ddiBxrL/+ck9Iwdl6QFgllM4qymqNZ4uF79MWIjuyEi+x3+gFqXsSsD71nHO6exqQbIoAh42bLYQqr+fWl+QJTtvJknzjcvllEVEtH3Jc8Yl2k6WFz1sIaYt58+0yNcWG2jOe3wC8yerDUhL8tMqcwW57EarCs1GwYCK7gujgIndOLBPP+ci3sHFwMZoXxcQxr2PdhnL23PykP37qMGTO4SKaj78BFcjEspVTZJ1nFq9nIruFiWt13Kg8vOXjuGK+aa3YwNcnMQ8zLm9gy96JpNFyydnDxfKsZiau1fWKRZ59FZPoTsQbw8kDUPWeO9GZiqyRQFWFxcMLu97xIIZ6vYub7cGSp8Pxtrx+sgsGF+fK9TRXCUoE4joMdk94OAoNor4QTRFZiNdbVKp3w/5eFQZMLqC3IAQRgnzn3LnPoHa9im0SskYPRGMlj2br4ZFt7s/OAQ5w+wgwIKIvXUx4ZCoP6e1lsG89DKuXlU27nBFrRxW7ICeP9UvQdonMfCRG1KBBi1DvQ1MhE+36efMbw9ublP6K42jCYNw8RBn0zjIMjmGTuOgqQvHof8OdOIitFgJVo/0gNqqR6j1/xtl2G0ZMW6YMe2QtZk6yob7QIhLdbdgDwt3s4cGLFcYpst0vw6WLzUBMgs4+wiOJaiMzXWcSEm4Zk4E7bA0uPuGA4OO0p6oiWxe9Ftgy8HPZIJF3zggypwFP6ad74hxqEY5hel/NuQNaNLikqh6dtkiIAOLgUbh7eNfXeUmq0fLBPdW1tkRM1c/bwdZHTt8wb0E4Im1Gy4cll1tN4/nKVRzeakdZezrydDaIxXlMZZVvlBFqM4sxNysMdSXOCHTp2o2ocCRhTIEs8AqPgKuR4lKUVHciLG2qD8fhYoxJrEORFsEuxZqSOh/HVXAudx32rjXE0LF4dBLqdjoj2KVr96LOloapsuEmf2OYN7IDZfZtOHxFKXMhLRnxHefxmVV9baHzjZ243qUgKtgN1X25Dou3lKow34SWWvZIMmi6GNK4chjb7GXoGJnXj6yJBNE3CJGIthKtxskdOHpBFgkGIj13LiIqpUf7QjQGhgMdbX3IW8cv7LLXJy61oMfMO20tztePAScFMWxfBYaNuOTuxmlmZgIi2C3pSlCeG5V1snx40BiBO7llpeYTz0L/s2a0hcfqjo3NWCEjdYbO/MreDVP5gkn/dqDxadpMTN8xnEmCmgZX3zgXqzJqrEaG9fAouCrCeVYV/wVpV7BhWCR7pp3ped6G9REedl0kf7DNwrplgfBgmx4e/CYeGT5HKzvRGsADobSJPRT6wrRhiEUS8vQPigZ7S3eYgmFRQNIc3bQL89jcVLjvWva6JRoTM+LRWGkd8DBSgy8sX2kFgUBfh4dmkGebIEKIEBDaTGQvzEF8wwGnF1twFW3sfnzNIL4VO0mbMeQd2vDXeu5eAVsxOAoDgiqAdUREGVvB83nL3u5TA952LzB4iI6b2dNgbfkICL6sE/d1b0F9ykI88YKHCPytsYhob0ajHOxuRFs0lAwSPk2bi+l3KgE/s2xwj/NcHpXWhPiBoDwsuIN7rtUHAKXbhRd8TY8jBLQPCEHejvN+p93RW87s2OZz470wRBqeGJIR2Y1XZFPiYoGW8z498Cm+6a49LPoC92sbpp2ves+51caOotMDkF3gpnFgzK0YNqARtT75mFNwc0QnvghUqiRPBOI6LBp/ZmPA6SJ2v/EQ0ScIosfpZaHtFNk7Dpo9c1fR+Pk1DBx9F1LlTWLgqNsR7ziPRmNArA9g/QrYlemIy05Bx5l9OqEdhptlJIw3wHFpdHPxc3R6esXJI+QRIxFhtnzIV6MJ96qvIOW8jxbKV5TdRYlCRwyxEJsimjsa46Tnetxrv8KdnqLf3GoSfhYnffJZr8TJGluXsnp4R3qr8z3nyhYpBIWv/Fduc2YPHsLEy5UGnX+9exFtYbmwZeCRYOSK9nXaPOIrPNaz8Yw/G18XLV+S70dEWwjdBIyRwl4R7Uq/dxwoqXG4+MH9g2cOsSFykBx0x6BIhPn9toGLbGvLWe1lvZWDPaA9KRstCjbjRD2QNNX5gDZl5QwkOSqwQzYo5MTGyVrhe3aO7Yq0opz0oUHj/hJUO5KQtz4Y2bUVC0vSHM9e86tHtsF+sAPp9xVgVposlPiT0u+me2chru00e7iXBQzNrpH5qtZA3Mk+fNECxKW7aV8TzOswF9n3paPjoD8PYwRB9BQ3DB48WMs6Eh0d3aNZR0SWkdGuLRsbuRdbRrENv3FUyYwkPUcgs45wjC3eeUOYp5GopLgQuGT24Nk/Zqco/bWFolW8knXEzW+En8/p+eaIFvLajcFDa3c2fd6KXsCnmd1iav1uzIDiFVMWDj36rCA8K8eB2F9h9HFd1hFdVg9j9g8lY4eLMK/ZYsg+wj8MM0fdJAxDRhPDtDkOfCyzj+iXy4kx+4j5N+6yjmjzMi2bug6BzzrCP4KiF6pqFg3XzByCcwdktgzzeArG7B3upq0IXH0WETWTBx9fZOzwmHXEON3OYzz3dCJa31Eiy+K3+qwe/OMuD0TiQ9XCoc9YwtbnpRb2QMBEmbLc3tdLXVYNHpmXy+pLthDzulvRlawj/DoxnYk3a+Gkz+zB/dR7EfnkGJxwm3XElJ1DZAxxZhQpqk5DniHriN6SoUSRrbN+qOinb8o6wugs34AHTX5rV5TxRDaUWmdGk1pDRhSL+VtlROEI8RmBSq3xOW8rk4G296yjvcZrJMOc2YN/r0CX9aPqzEik84bi6vVSYLyemq/lXboOW1x3nZmn+LT5AxkT6fsoik0QoUqvCu2+QKCFdv9CEZQjTrum5uvXcAHuNu0h0bdQxDxMaf80zA8GRK9gldKPIAiiJwgBjzZx/bIRxf/uX2q+654gfCmT6E0a8JRFSkIFJsIfyECT5cdsiJ5EWEpIZBME0QuQ0CaCSze+hHg9Mm7BZLQVBuGLk0TvceKAkoM73/nRHc7U6RmIO7bLx3ziBEEQxPUIWUe8QNYRgiAIgiAIoitQRJsgCIIgCIIgggAJbYIgCIIgCIIIAiS0CYIgCIIgCCIIkNAmCIIgCIIgiCBAQpsgCIIgCIIgggAJ7esG/mW1QqwrkINe8ff3PQv/AtxbK9WPSHcH/uU0188xEwRBEARBBJteF9rxkx/C3IWyy50E1w+yq79ZgFTzJ6QJjcXrlyOzpUj7VHJfp3TtXjRnLe/+g0BaFtJRhfJqOUwQBEEQBNFD9K7QHpqL8TiAHVveYN0OJofScdfkVFnJScV4JsAT2qtwTZb0dfingAvu0a+jZ/jv50+IlkNuKFiHvMQ6FD21WRZcD2zGipcrEDtnHRbLEmtSMatgPibGyEETqcPj0Vh5GFflsHf49Gax/wmCIAiCILpHSH2wZuCoBbjrlvP4qPiQENbxkxdg4MmtOINJuCt3GM4Xs36H8tueIpAfrEm9pwDZQxtRZt/N1okzHXFPPAYU7sbND+cjTpTVoGr143CuJhd+2Yi/UObmE8LcArIckSX5bqLZi7GuMA9JcgiOCmwoWINSbbwiYI5az8R6/gomcSVMwBfO0cZE3U7nPLi1Yxk2Yu+g5UzkK2X6epf5CjpR8fKDWLOf9xvrO8s34MG1pXLIyeL1hZhx2boOMRMx/7504HQRth2xkNKiPgKV2vZmZL6KCenHcfzKLIwdHyaKOo6+iFPv7xP9HP5wkzcSqHpvGw5fkYUEQRAEQRB+EtIe7caDPS+sg4PiE84Or0KRXvQJwpD48Cx88XoujqzORVVtCtIXLZV1nDPYbS9CVXg2ChZMZFMyMW0q0mx1OOFBZMcyEZufn690QmQ7SZozA60v87oNqHAkYYbmi2bjjj7hHG9nHfutMboclrVciGBev6G8E0lTVzH5rrB4PRPR9UXKuC9XMInNhbgqsrnI1y9XkVubyOaTdQhLm6pNVyNtFgqYyO44aLcW2YzUTC7Cy03bm5Gcj7Exu8X2PvJ6OTD+McQNkXWMq0e2wX6wA+n3kbebIAiCIIiuEzpC2zYJWaMHorFSiWZfP/CIdB7S28tg32ptYWjaNR9NF5V+R1UNEHULblIGJVdxeKsdZe3pyDPbGpIjEeZoRa0c1DNl5QwkOSqw0SoaLHGK31KUVHcibFCyKBfWDb0VxX4CdYjFsGlymMOEtBppLj1UjU5bJJSxF2NMIpv2STn+/hJUswem2Dgpl/nDAfTLtRk7uFAfbWESqW3VTVdB2G8mD0DVe3bsduu9TkXy0Gs4X2OxxdvKcfztTUr/xX240haGmwcrgxrVu2F/rwoDJhd4t+4QBEEQBEFYECJCOxXjc9OBkztw9IIsul5IS0a87PWZiCiT0NYTjwyd8JsSFyv7XEkeFAa0nDdEsP2B2zYKC9XObAPxRC1ambDWhLOIunei+pBcEv5wYMvEcm3ahViepdg4XNh/Hs0GgR+NW2+xajJrJHpCBuIvVPps/QgbNF32uTJwZJbx4YYgCIIgCMIHQkBo8waPOYhvOICPTvneZK3PwCOjnqwfVrS14CvZq6C3nhitEqVNzbLPldrL3LDRNbgHWzSwVK0j+UWok3XeKcX5FvYnMU8R0k9mAuUbZeRcwr3i2rRlZ9WYc9owJrObcV4bV4nue7Z2KGK88ZyVp92azstOj7ZAZ02xu9h9CIIgCIIgvNPLQtspsnccvJ6ljAfrh4GlSJydgo4z+3RCm4tsD9YTC2uFirBzMLHb5RR5OkuK8FzLfq9MW4UZBpGeb2zMyG0otkws8yVPtjtrjCdrhx8p/W669zEkRtSgpUIWcLjI9mpNIQiCIAiC8EyvCu2Bo25XbBUJOc5c2qwbP1RUiywkSn7tdAxk/9Jz+3Y+7TMf2FF0egCyTen94mYXY8KzvMtHmEsGjOkY9nmRm4wjDOF/1jdi1LF/DR4UKfKcFo1Cu7PBoid4HmsuhlV7x4zLFb5HtNl899YnIU+dp+ycH6DZjBWyAaS+3uqBYPHoJHRWl1jbX64cxjZ7GTpGTjek9+Mp/a59/pmlH14QkYWxYnsXY+z4S65ZXiYDZXbKOEIQBEEQRPcIqfR+oUgg0/u5wtP7PY2by3JRr4+o+otIwwdjar7eZNoqvPVkJPbql0eUpaFaS+/nA1bT8YZVSj89PL1fdguOv/KcyZ5DEARBEAQRWEKkMSTRLewrUMQjyOs9f9qlx+B2D9mrMmVSGivTe629sRjrnsxE804/Hx5ElJs81QRBEARB9D4ktK8TNj+1ARVR3fBjBxJV+OtsIcuzmv2KuPPUhDzP9vXySXmCIAiCIPofZB3xQnCtIwRBEARBEMT1CkW0CYIgCIIgCCIIkNAmCIIgCIIgiCBAQpsgCIIgCIIgggAJbYIgCIIgCIIIAiS0CYIgCIIgCCIIkNAOCZYikX+p8InncZMsIbrO1Omzsf0XOVjC+pfk34/tS0dhqlIVXMbkBHVe3V2vca/V4dm9svvT2xgsy7vNzLfxhDrdvXswThYHCsNyv7ZWlvpGrx0L1y0JWP+L+/HH6TZg8Cj8kfWvHyOr/GTwC3/xa3/6+/sehZ8DXT2n+HXjF7PxDBtZf7z6RJCvOX0Ffm6LY1IiznV2bPJOXx5oxP7KT5BDRnhdMOcdcPj57PZYsuGZpWx7inXVXQMIn+h1oR0/2fnp9bm5kzBQlitEI1V8dl12k42fLie6j21RMUbdO10O+cmjewIr2Iig03bo11g9Iwmrf7wIl2RZt9mzCK/waa49iDZZFEiOPcKmzaa/8ZDzQ/lEH4ddO5ZNasbOR1bKgj4OOwcOXJmMZaH6INDTiIcH0wODVVmQeLPwXcz77bvYcU4WBAO2Pj8f144dhQ2yQEF5WLqf1dkQNo71h9CDkPmBxMClU/iwNQM/d/PgQHSd3hXaQ3MxHgewY8sbrNuBKqTjLp2YHjjqLgz7fIesP4DGhBzcNSpa1vZNoifMR8E95geGTahfnYsj9FnwgFBypR1wtKKW9de2MHHW6kCJUtWnuV7XK5jQNgs07XwToukK+++SA01woPWyrPKZtfhp/gjUF87EMVlyPXDskV/j45iF+OmjssBXLreik23X8+zJV3+8EqFMAtbPTEDtngN4U5ZwuMgW4vu3u/CJw4FP3mGCf9OpPnPNebOQLXdkjsVbKgfOtwKdLez41F8DVNJmWegaQiWkPlgzcNQC3HXLeXxUfAjXZJkeHv0Wwvxgz31gO5AfrEm9pwDZQxtRpvtE+E33bsPY8fKD5bWFOPL2JqVfwC0lY9HyegsSHs7CAF7UVo7jqiDPfBUT0o/j+JVZ2jQ6jr6IU+/vE/1i2jG7ndMc8jxGPRyFhtWP4yv9fPW4LIMF/DXpysmIkINOzmLnDHbz5JHufCj9skZEv7UydqPdewdOrm1Gjjqd9oPYqI+yit+PkAMOfLz2dhTvkYPdgUdVUs/hpRb25D5OebLvPLYLP9mnXDTEhTKqEvPUKAV/nfZAJD78LbuginFb2YUoA3fY2EV0Tz1um5mBMEclXuIXU14/oRU7ahIx12LaHOVCrEYUGtgF2Xmh5tGGu1t24TVM0X5Tu+ddPHVC9HYbbsHIaf41XnlmoyxR4K/kl408adj+LmWG/QEmkpLwh9/LARVxXMTigH6/Yxly//QrxHzo/L2YdmwxVqvRTB/3tct43cXLsaC8Lp3N9rUcPHfAeVzIusgj7+JE6v2YO5yX8RvrLrygbkQ+fXYzVjEfC3x/K+Nx9OPyV7PDceKdVtz9ADu+RLU8xni/DxiPM9NyiennIFkOKZjn76w3L3d38bwflePlznA5qF5TWJ863k4sxJwUpdZ4HPLrykIkyiHUbDEeY2M/wcbmXCybpGwX/nZHfy7w80OdrorzN6bl0k9bD5/P3c3Ga1kAMO5P3XXB72uOf8eZeb4C3Xng9nomjn0Yrm+uZabj0DTdR1CKD6Nma+eI8VpoOjcZVsepek11OX4N56bx/PDlOizWW3+fkIhzmmmUeYXtbPkycH6Tbv0l3dpmHpbb0zYzzlOH4Zom4fNgx5Q/1xvuPpi4IA/pqELR1sO4KksJBfJo9wj8IGQiO5wdhDqRzfnq/fk4sjoXx492yhIzKUgX4jiX/a4QTRFZiM+UVZzkfEVM8/rXy4HxjyFuiKzzgDrfqlpFnIvxeedNZHNUq0DhWUUg837RSYH1+09QjxEYrYvsjBvLhFTNJzoBNgJzhCjj4/0aH2MyFrywTKnigi0/lgkuOd3CZty5MoDe3+E5ykXyt+9i3p4GhI3L8P115vAMIa52nLPhjpmKAK+1JWKq6p+xZWCuOu13KtmKTxHeSwG7gCnRDuW15kvHwjHX9FqRv2pUl+2lYw4kTwj+a8dL+0+iLXw0xrELukp8rA1tp/8sxQITMEykKPuY74+zSMwP0P4I9r72hv5YMO2vJfnsRt7KbkRifymRHvNr1+SZyk2Z/0YcE9nqTZCJiJnh7Eao7GvemcXP3EgmamTdS+zEuOMB/Wv1BMwVD3i8nh9j7Ljy1QvNHg7nshuuOl8x7TnO42hJPhM3/AbL69k68ytP7R71hs0FTA7imGhRxj+AJnZMdtWH7coyjBtpQ/1xDyL7ChOx6rFmeGhjpCwUD4u8jluJEu92WtfGvcYe3rXxtqCe/dYQXWbDQuDzenYMR0z6b87jjAnkOSlc1PNx2fWIB+6YmFaF+LjX9MulRK6fUK9Xevi1z3QudRdFJDmvG7wzPHzrrznm65mXY8HjccbGfYRtIPUYFjYMLsRVYebD9cwTS/KZyJfjinmzc1F/nPFroXpuma+FxnPTT4sID57oz8097aZzz9t12IapKTbUnjEJVMabvIytx/Z8dp+w0LUet9mJc6hl+2OMbhtMjWFPdufOKSLbx+W22mYl+9RrlPJAIsbnnVlkc/hy6O9pPnEVh7faUdaejryCWaDYtpHQEdq2ScgaPRCNldbRbGEzSbiGqpM9F80ODKmYVcCe9NrLYO/Sk14n6l9/nD27cjahhQnjsEE6TzWPcKvi+OI+XGkLw81+nSDBYCX28JvgWNWvuBajUxz4eKv+5sojl+pNdCOOnXYgIlYJJw2eNho49Kozqvn7/2A3PlW4L8a6wkIUmjv7KkwRP/YB/c1CXNzCMczXbcbG3SFvcp3HKl2iFYZpX2rApw4bbktXrrhLUo2vGkv2Vbpe0HTjl1TVo9MWaYo8BgHuL62xYcQ0VTjw/XUWB7Ro30r8QR+9Ew9SsRgcADHheV97I8DHgtxfkYP4ALvhDW/Q+S8deOEIEzEpCUYhwQSrKqDFTZbdXfU3ZHXfG2HiZhy7UR9xRoxK9pXiE4f+JsujVeqx0sAPU8TFWE3Lgkun8JRO1BuPI75eTFirIkGss27agxNwGyrxmjY+2wb8hs2O3cCQgphwB658Jgf1PPrfcGc4E7ue3ljoxK/ygBiLeDHErRt6Ub4SJ2uAiCE6McyDAuq0TcewMRCgXI8QkyBFvHI+OJdrI4o/ZEJ95I8s2qfU4Eq7DTG3ykHG4vUWx2jhW1g1Tf7AI/JYMVkUDHi6nnk8Fjjuj7Op6YkIc9SjREZMxfGtG9f79Ywtu2yQKDrd2x3Om4X6dbI4xnXnlmG5meC823Bu+gdfLxwr1SLBOFFpOvcYHq/D4ew0d2OZOsHFP39oSGC/5+tvFMKet5n5XOOCnj3olCnL4dNyu9tmfsGtIep10D/OfGBH0ekByC6Yj4kxspAIFaGdivG56cDJHTh6QRbpYSL8rpx4NB7YijPOa0bfIC1ZuxH0FAYh3kuIm2DKHUrE6NE7kFhT7N36IW9sPJoaMelXzkwTe/WvkjdjRX4+8s1dwRqUyl+EDoqvTcGGYZFKBFS78bi8vmfivabB+bqO3SR/wi7abm+wAeTYcZ1wEPtL//aBR/R0mT/0r+e7ied97Y3gHAviZj/YhjgvQoFjiGrxm6z2urUBT4kIudIwyrURWFe8zb4iMwSoy63aAgSKv1K7mXNhzUTDp1XywjooEmG2DPxcHZd1lq+cuwrbhq6WM4XBQ2LZ4jWjUQ77DbdtaMeRqw3EE43NbP3V65WMumtvdMQyj8Ac3bT1NiojG3HpilHgb37K4hjNfxBr9ssfeEIch905VjwdC54RfnGdcOYiUYuu+nQ947YIGTnl3R6TMOYWBW1cvY0quCRHyUaK2ryNFhSOx+uw2CeeYOc+X1cmenec49cQJaOML9tMiOPhw5VrhXjodT7o+LLcgUG5b/n8YG/JQKRnUlxbJQSENhPZC3MQ33AAH52yiPdyke1JhIc61bthtxehKjwbBQsmoieacnZeVjzavcqeP+OsjEzyaJH1q2ITVxo0X6OWHUPXKV7MAEQxewzlwqpvNMI9c9qNR3ROj12vonvlbd5f3BvrfK3Ouy3s8h843O9rbwTnWHDuL5NQ4J0/vkVxg1bGE6+IDWLbHDHiUTLZ203Ea3VUarYU1R6iIB/++OttfrNmwssQJePwaJ46rtp1MXroAhMg7jLTXLrYLPu6gLAg8QaWzmNoZ42s8wFl3qqYZg97OIitOv+24hU3HqPWmXuWYXAMO6YvOsftVkRbNDjtOp6PBS+IRpo23PGAIuzmWkSRu3w9EzYIHt11jhvUDCEmDPYJ2RnsOJ7wYZ9wywdvOMij9rWmc93jNhNvmJQotYhg6wU/o1vL7TOu9y1f4e3Q8kZ2oMxuh/2DvuY+CB69LLSdItuygaNOZFuK8D5Dz/iXbrr3MSRG1KClQhZwom6RubmXIlFtUKnjqyudGJA6vWv5uz9rdvH2OlFerybe/RfkxBzEHk/Cid0kF0xy+jZFdHXS48i1nG4PRLS11/8JWO9HBMiFMbzRZANOiAuhAyU1DiTPNEc2QwX+qp2/8l6L0Vb7SxdpHPea/xFtLcL3KE/r5lSUnve1NwJ7LEydPsW5v+QNb26AUl2J6KCG8ppc7/ucOj0DyUzgqrYkX+ANr7gAsvRPa9lVbHhmju4YVl+7627UhoZi3Hpgy8AjQcuR62qt0BAPe7q2Gn6js6QIz7Xs98oy5N5tFOkGES2DBnN8St3nao3pVkRbHCtM7Bp81X7i7ljwwpJs/hCmF3b6t2uBuJ7pIvVjcnyPaAuh67RMiPYOfkTDuQUmTN92xm+8Wyt49FkI1THDkaytpy/bTPlNXEwCpqa040Pdudn95WYiv8Xhan9zwYM1xgMi2YNFOzSil4X2wFG3K7aKBHaSqbmyWTd+qKhG/Oh0kVd74Oi5uvoFSA3WPSDIaP4lLQ3OdMQ9UYwJzxYrGUCS80X/hEVLZb0PRGRhLB9HTOMSqlarfm7e4PHfUA+1fha+2FUOc04Z42/8nPeeRdh6CLhzpfpK1dSITdw42c7SGtXpsTnHWzkZbfrsAb+fKRvFqdO1mHaQEF5ZqK/OM9C6x48IEEf/2p2JR30Lct4gRYlsynrehVCO1WNbDyIifyEiTPvr0jPFQgAtk/sip/mgIaLNI97qfnS+Ylf3F3vg+veDgGoPubsZO/X5sHtxXwt0+0tppKTuLwde2KQ0gNT2FevMjSHdYnotvl00YnIeC28WvosdPGetrBfz9quVv3veLGPHrBqx/sVsRNbojuFLp/CheJ2tWzbWOderAU+xbcAbQOrrA9cYUvE/6xsxOlmJP8zYgjaDlcjHY0G2M9COI3acfexzRFsGBfLVecpO+0YAq/+x0gBSX2/ZGJLbrtpP4lggMiRJzMeKP/vD47HgBT6u0/qkdk6R2K3rmTgOndFynuXiE58j2oo1Q7Vg8EaLvOGfE57NRKnjAly1W2jHOLd4iYaEct6i8+eBQQpml4bqTpsOn69YPnHeOyPWvmwz7ttuGpeDO1pVm46k28ttvr+xziqQwB8OdN58n0ibhWx0tR3a9U9IpfcLRQKZ3i/g8PR+2S3OdH8hB0+3lYsrLuna3JUTwcRder++QlDS+/mdxqqPw1/Zq+kqZZFSlohPdYIguChp+GCVIrJXcE1BqZaNOO3P+WI1nb6LVWo8Z/q6AFmJ+ixczOewBzwr6wYX3FOAnSFiC/QLvuxK2tLAW1L6L6GTdYS47hAWA18aQRIE0TPwxo6yV0Vkl5AfTOkZVuIPgUwR2W243UP2qsz8EUawMr3X2htqCsDrQWRzwcV9ukaUjDXKR0v6O2pU3SqizK0XPXk+BQ41bSKJ7MBCEW0vUETbf7QPP5g/QqNBEe3ewPBBDrf7JvQwLLe7D4V0hf4Y0WaIqKTB08o923r/bc8Q8DcU3YFnLDFlErH8KJM7eGPMnwFb+8g55RPiTYfR0231UZj+jMhxzvNtXw8Rfr6/5wCv9bPrYU9AQtsLIS20CYIgCIIgiJCFrCMEQRAEQRAEEQRIaBMEQRAEQRBEECChTRAEQRAEQRBBgIQ2QRAEQRAEQQQBEtoEQRAEQRAEEQRIaF83TMEqeyHWFchBr/j7+55lysq38NbKKXKoO0Rj4oICzEqTgwRBEARBED1Erwvt+MnOT6/PzZ0kPrmuMTRX9+l11k1WP11OmFm8fjkyW4qwwi4L+jila/eiOWt59x8E0rKQjiqUV8thgiAIgiCIHqJ3hTYT0uNxADu2vMG6HUwOpeMuvZi+UCzrZH14Du4aFS0r+ybRE+aj4B7fHxj47+dP8LLOBeuQl1iHoqc2y4Lrgc1Y8XIFYuesw2JZYk0qZhXMx8QYOWgidXg8GisP46oc9g6f3iz2P0EQBEEQRPcIqQ/WDBy1AHfdch4fFR/CNVmmh0e/09t34KNTvsum7hLID9ak3lOA7KGNKLPvxhlRMh1xTzwGFO7GzQ/nI06U1aBq9eNwfnuLC79sxF8og/0DZSwj3AKyHJEl+W6i2YuxrjAPSXIIjgpsKFiDUm28ImCOWs/Eev4KJnElTMAXztHGRN1O5zy4tWMZNmLvoOVM5Ctl+nqX+Qo6UfHyg1izn/cb6zvLN+DBtaVyyMni9YWYcdm6DjETMf++dOB0EbYdsTgmRH0EKrXtzeBf00w/juNXZmHseOWbZx1HX8Sp9/eJfg5/uMkbCVS9tw2Hr8hCgiAIgiAIP+lDHu1UJCRcw/mGnhPZgUPxCWeHV6FIL/oEYUh8eBa+eD0XR1bnoqo2BemLlso6zhnsthehKjwbBQsmsimZmDYVabY6nPAgsmOZiM3Pz1c6IbKdJM2ZgdaXed0GVDiSMEPzRbNxR59wjrezjv3WGF0Oy1ouRDCv31DeiaSpq5h8V1i8nono+iJl3JcrmMTmQlwV2Vzk65eryK1NZPPJOoSlTdWmq5E2CwVMZHcctFuLbEZqJhfh5abtzUjOx9iY3WJ7H3m9HBj/GOKGyDrG1SPbYD/YgfT7yNtNEARBEETXCR2hbZuErNED0VhpjGbzKLfi0c5BfMNfcMYZ6u0j8Ih0HtLby2Dfam1haNo1H00XlX5HVQ0QdQtuUgYlV3F4qx1l7enIM9sakiMR5mhFrRzUM2XlDCQ5KrDRKhoscYrfUpRUdyJsULIoF9YNvRXFfgJ1iMWwaXKYw4S0GmkuPVSNTlsklLEXY0wim/ZJOf7+ElSz/RYbJ+UyfziAfrk2YwcX6qMtTCK1rbrpKgj7zeQBqHrPjt1uvdepSB7KHsxqLLZ4WzmOv71J6b+4D1fawnDzYGVQo3o37O9VYcDkAu/WHYIgCIIgCAtCRGinYnxuOnByB45ekEWSa6e2aj7tj9pvd20wGeqkJSNe9vpMRJRJaOuJR4ZO+E2Ji5V9riQPCgNazhsi2P7AbRuFhWpntoF4ohatTFhrwllE3TtRfUguCX84sGViuTbtQizPUmwcLuw/j2aDwI/Grbd4PwKiJ2Qg/kKlz9aPsEHTZZ8rA0dmGR9uCIIgCIIgfCAEhDYT2SJafcCr9/paw3lcs0VggBzuE/DIqCfrhxVtLfhK9irorSdGq0RpU7Psc6X2MjdsdA3uwRYNLFXrSH4R6mSdd0pxvoX9ScxThPSTmUD5Rhk5l3CvuDZt2Vk15pw2jMnsZpzXxlWi+56tHYoYbzxn5Wm3pvOy06Mt0FlT7C52H4IgCIIgCO/0stB2iuwdB71LmfjR6RjYUINGOdx38GD9MLAUibNT0HFmn05oc5HtwXpiYa1QEXYOJna7nCJPZ0kRnmvZ75VpqzDDINLzjY0ZuQ3FlollvuTJdmeN8WTt8COl3033PobEiBq0VMgCDhfZXq0pBEEQBEEQnulVoT1w1O2KrSIhx5Ave/xQUa3zZ8tyngrQB0Eeqpz5wI6i0wOQbUrvFze7GBOe5V0+wlwyYEzHsM+L3GQcYQj/s74Ro479a/CgSJHntGgU2p0NFj3B81hzMazaO2ZcrvA9os3mu7c+CXnqPGXn/ADNZqyQDSD19VYPBItHJ6GzusTa/nLlMLbZy9AxcrohvR9P6Xft888s/fCCiCyMFdu7GGPHX3LN8jIZKLNTxhGCIAiCILpHSKX3C0UCmd7PFZ7e72ncXJaLen1E1V9EGj4YU/P1JtNW4a0nI7FXvzyiLA3VWno/H7CajjesUvrp4en9sltw/JXnTPYcgiAIgiCIwBIijSGJbmFfgSIeQV7v+dMuPQa3e8helSmT0liZ3mvtjcVY92Qmmnf6+fAgotzkqSYIgiAIovchoX2dsPmpDaiI6oYfO5Cowl9nC1me1exXxJ2nJuR5tq+XT8oTBEEQBNH/IOuIF4JrHSEIgiAIgiCuVyiiTRAEQRAEQRBBgIQ2QRAEQRAEQQQBEtoEQRAEQRAEEQRIaBMEQRAEQRBEECChTRAEQRAEQRBBgIR2SLAUifxLhU88j5tkCdF1pk6fje2/yMES1r8k/35sXzoKU5WqXiYB639xP/443QYMHoU/sv71Y2SVTyxD7p/q8Oxe2b22VpZ3n3GvOaf7xAvLZGmgWIufqsvMup8+Kot9orvbjPCXgJ0/j+7Bs396G4PloFf8/X2Pwo/hPRgnh/yjO8cwH3c2ngnNjdJzjMkxHIfKMcqOTd7lJ8jSIGCarwG+L0Pm3uIL/FhSzmsrQve+2ffpdaEdP9n5ifW5uZMwUJYbiUZqLv/NAqSyaxUROGyLijHq3ulyyE9C+sboAXGzc3/B6RbBnLakvjAJq2ew7pGVsqT7HHtEmebOGlkQUFbiD3x5Z/waH7fLIuL6ZubbeCI/Fh//+yJckkV9m5XYcygWc/ri9S4oKA8PxgcGq7LgULJvF+b99l28dMwhS4IAv5bPDMcnO0+hRBYJ5MPS9gcyEGbLwM9D6UHI04MBGrDjWDjmkoDucXpXaA/NxXgcwI4tb7Bux//f3tsHV1Hk+//v+5dlhZwkJIREiITAJkYgQhBCIMAFRUnBJuUNrLXrrpjvglXXVYu9UreoRfePRbaoLdm1Vq9bJbpH3NX9uZBrJWIFRWWB8KzABiQLkhAMGIghD4ekLP+6v/709Mz0zHnOOSc5gc/LGsx0z8yZh56Zd3/63T1oQTGWzi9UmTap05aiuL8TnWp+NJNZtgq1D7mP8Q20b67EMf4seFw40C3UnK8XbeLvth7xIO71OR+UI0Y/7Qqud4t/rvlwHT70fquymCDwORtuYr9/1qHyP+cDR15F416VdAtw7fn7sLt7PlZH3eLDZXj04cHzK0uAUwfxol5TJJEtBPb1vYbIHzxFgv9D5zJJDFVQ6ntL8CS1rrgIfd9nYt7qVZiXpWaZqEiqD9akTluNpXdfwWeNR3BTpcFTjqWVE3Gl8Z9Ir7wPfY07cUGUgeEinh+sKXyoFgsmdOKQ9onwOx7ehZlz1QfL2+pw7J03jL8lZCmZiZ43e5D38zkYQ0l9J3DaFOSlr6Ks+DROdy+3tjFw/Hf48qN98m+57aw99jbv+g2m/XwsOjY/je/139Xx24cAULRq43ykq1mbi9j9wDKcokh3DYy/VY6Mfltp1Aw7G2e3dqHC3E7/YWz/Dy36JZefqmZ8+HzrfXF4aRtNZwVqzsaHL961H5bUhPbLWeaDqAP1v2/CW/SneshCPFx/us8ohNTEVj2JlrmMGRFsOzbIOvIrZH0yGX95TSVJjPSp536LV57fHiTNmL8/zcj1O98KspBUdOnbEdC1eLBLW56uXyW6tWuS8+I/sa7cPGeqHKg5m2D7P1TEy3DtQlGompHxE/Pca9dL4rzm9GI0r51xPTPwiX7tfM34wxtmBIu2vwKzrXeSa9uqPFh30eUmPFLXYfxNkaXCy/hDT4lVlhy/HZIIjou2v8xuMm8TL/7nztBfdLyT0HsqDbPF7w6easK/plSIY9DLoeu49P2OB37lxYmzrBgtNLI8qPV2n5uOlSq/74izLDrX1Z8L4Z8p7t+VtL5ntQxFVIblsy8bTQHLdwy4rqddVuh6lqB3bzvuWabKmqOMCoKWBeNZ9iQO4pOxK8RzykjT8/3KsEQra45t62XIuK+gb8svzVXOHPttlNMz7/biQfP3XcflfA4L3MctkMuMbQ5Qfo19Gdp9L6DjLuv1+z3jfECenzbx29XdH2rHr4jnOYv0mRLwOhLu56HAOn5XejiKlqN2fi46D3ux57xKYyIiyT3amShcUAyc/WxYxXX8odqgENlpLWjQRDbx/UercGxzJU4fH1QpbqagWIrjSrFcHa6nz0FuqcoiCmoMMU35b54A5v4C4+9SeSEwf7dFVF9JnMv1aQonsom9j+EVsgLUXTReZtIWQJN6+bz2BdoxFdM1L+6smUI0t36hvZymYqV8YSlLAbRIkdnsvFVtt64L928cqj9SpwPP/f5veOTdZgzKB5D4W06aEBYPs1/O6rfy/qA3tV37Ej/d24GUWQuNpkKxrCGy6YEVwbYTxnacOudD+r3/rjVrT0FWmg8X9xsiJefFHwF/Mq+T63zHihBI68qFQFLlYPuwNrF7MFu8YHrfNc53/eU8VFueTXppVWC8eBkZ16IJ12et8GvuriYhI9cXL09PCapV/qIlCzG7V7zorGupv5jEC1L8LkW2zLy2SRWGD9dEzEsRQPmy3JREYSnSj+tDfOHLw4PWtsVvixeutV9i2wXLdLtSHmbT78rfrEDGMTovHtxTbKz/RI14kVvHJbad4drvGKF7ve/cP0KIbLus0OSodKXNx8rsRiNPPF/Sy39k3/fiubAMr1rrbT8C3P+fejnTnynvoV1sa5n5DBLrri6H9UyRFil6dpn2q0jL8N5/4GK/89kWM1KYpQlBpq6nmJwVMlEWlpEwojxnGQ1fFiDKwAo82GNbLQrKTOuAuD9k1FbdH2JdQxiqck6CTN+vvf2iTEZui1u0RGx7t1qXyhnckVRx70nBR/mu43I9h419i5TY7nviicI8DLZ2OEU2ceYy2uS64tk/NsA9E/KcddDqKBDbtsjxYDylK+Ed9t4M9kyhd5N5nqjSINenKYCYvtaBf4nnyQzH+YiA83vg/aAFY+bXYlVZpkpkIiF5hLanHHOmp6KzWYtmT5iLYrTgxJc3VMJopBDLa6tQ3H8I3p1HEf2RDKL9zafF4494Az1CGKeM0zzVFOE2xfE3+9Ddl4I7h0fhhID8jD7kzzQ7623F9Ck+fL5T9xRTNMqMCimhmD1FzuUsnu5sdn7t7/jcermtwUt1dahzT95NWCgXjg16wLbttR9OB/Y1i4dwPhaZ5/RMk3hZAbMXTMPzZc5lR5JrzzcKYTEds5aphKdmI7+10TqH155fprUIOM93rJCwaq+zI3x++xKChRvf9r+WYnqpVi0QAW177crMWxfEiybDYwiJnDzcg2a8bokWUQEioaG/6AT2+saLcHyW/mKbFFBYkIgoEC+0eisyJSpa9OKbkmf7H+mFZ0aj5As6DROjuDft/fLhQKsPKWPN5gjxW3oEz2/bQiwdUvmOfSTEC5Yqh9b6Prx4zLXfMbEOOVnisfSN1iJisRXLyj2OsuKHLn5lhT0bOWY5EhX8v2jR7Wv7z6IvLRu5ap6OxX6mbMRZIabT7zIqk/RMSe8/i1PqHjh1+qIQ9fa6kZfh7bjWbW9XsngT3g5Qhuu2rVELhEKIQvEcGXRbFBxo4tevjIYrC4LLTZZwP9DSjkFPhhHFpfvD48O/WtT9Idf1IGOcMbuoON9pnTjTLCt8ukArWKY6JMrJjiATB/Y1acfkLsNEsOMyzsmQn60x3/ceTMxQVh8/jIAKVegLJhnHrwv4cOfsrUPNGNSeKcbyzeo4I7g3Y3ymGPhwpdf1nIuU7qPY5T2EgXurAlhgmWAkidAuxNxKilzX4/hVlURpFWPQckgT3qORogLtRTA8OIT4CCFfglNmG9Eol+gLSlaejCDlZnuQXv4ra5SKFz7VLA/YgQ01NahxT7VbcFAtMXSMB2yolwdxYN9BfJFRIiMPfs2GIwYJCw+mLjYEgBQOp7WKDbUSaCN/+DWhDxlDWOXX2Nt+4dNHIV4fEXFw6+P+11JMG7xqgaFgColxGaqzkn09HU3REjuaRLxVZ0cTpZ+RIuRqXb+ob9Te5fghRwWwjsu/jAZFRtDsY5KTZjuIHWpJUX+6Eb+TLl7y3V+p+agh65FWzgLa1wJz7ZsuIaxt4exsYYuuDHd2uSqp+7fg8QBluOa5HWqBUKRRvTCIqIuMIZcF6Re3WzqEyhPr2vdDwViPjIbb29YsDQqyoRiRUyN6Sv5eC4ruWusGuvcSRIz3vXlNQvFWHR2rEMWick3vC/PZEPacOaLJHiwSxciq6CT83rQhD7az0jMEJpSwZztCkkBoC0H9aAVyO5rwmR65njBFCNRUFMvRRmgSy5jzATpMJi3U3OJtQEvaAtSunofhaHAZ/NbwaI8oWhOrn+gLRneH1dxM3kyzidicjCbmxEa0CefLgyan/YOa9+5pbYp7k3usUJTOsI9QC8JFnLWa5LfiZ0KUQDun248M/cUeCGskFGuKzFMfj4i2H6pDj8TRjKomPQIYBnoBG+sZzc+O621GzhWLgirM+EK+VMOyZO+bQ+CERV9XTW4v6pBpBfWpCogQJX3qz6Ew63VR4YZmVdt6OPLtfdUllvXg/o2GkF4p7o/drlF7Ii3DFAjo69KG54kpom10lBwqsZUF47ctYShEnTuKTB5gRzkRU2TBBcNaZdlSxJTQEULcxHTfR3BNSBTTc+ZMk6iMi3OoidbQ58yI7Mvouoy8t+OA9m5J7L1pQxWCwZ4hDAGVNQ+rahdgzLkGoWt24Wi3SmdCMsJC2xbZ9Yd157LgaqMajcScmtCJm2hpFH+7l016buDoTi8O9Rejqna5OOrEcMfDv0B+eit6TqoEYuzdamzutcg3O1RqfN89iDGFS4Y2fje9vIJaBLaj8ZOLyH/wn6jIOoy9oTq/Sf+kxxLjUjCWP43KgNuNQ0RbRnKcTaAG6iHo8jg6UL7sT/Z14MXdzeLtr/zaJkG3PQxQUzs1hz81G+lH/u7XPG8156vzHRVWMztFFfVon2FDya8Zmoc+vhFt8XIXYsHyVlLTqidwD/vocb58jSZ4p1e2epYHbceieSmSl9SIekU9PJhWmXiiJpoophFRs33s8SaAtcLCaHVx+qqjxKqMi3L4n5FHtGetdlY0rf4kkmjKcABrTEwR7QieOeEYalmYUYLZcApSXUSTDcvqjzJErEh9zjQ8GXFE27A2SDFKSN9zFOU15vs+AmsFRc1lixbZPYS4VqI1knMmnx2ikv5EcT6u68+LeNyb3/aK55JmdQxIKGtMCEhk/7AYA4e92HVsNNt5h58RFdqp0+4zXt55QryYY2mLae4EmX3LceFjLxrOjcECy9u0BOOfaUTZC43GCCAFNfLvssfWqvwISJ+DmbSO3MY1tGw2/dzU4fF/RH3ZzF+O7z48AfeYMs5lovztvY9hJ3VIUlGiF9wfdJDCTzysAnaMsqNL1ATcZ448QLy2THWANLcbYNsxYfhpbYuILXTILiA7QOrNd2ZnSNlpSYv6XPsSn1ymTmu6UAq+7cSjxvqtybY6QRooz7zZNL5R5Dsi2jRig5G3coooUsq2Y324RlyP3a1TsVIuQ6OGvCfKjA0NeyY7j6ltyGkYxxu2z7XRAcpuAiY/pRGJtq6lmCIb59cUweZkdFKytk2dj95txnjXbw+HlcjoN2A3jT/YI+ZVXnh8ePENo5OVfWwBbDExYFSUtU6MGjReOw2Rt04rK5F+wOjUzsPom/KoWk+Uw3ORR7RpXTjsaDTZz5SIy/Cyf8fUNL21KHYCPXMivR4xlQXyD8NpsaDJuj/ONKnOfHp+pBWCDsMXbd4fP8nAv6KIaEtrxiRVRqnDpOxkbmLfm9ISYi5nCdRY7nsDQzD7d16mFgS5PRL+8nddz5xIzhm9N3pFJX1Wv8O+Epd7U2z7dVGDtH8/wPWS3nyndSY8mZi3ZCKufMAjjgyFpBreLxmJ5/B+cYeG91vQYw/3l3T4DwNnECydCU28h8cbbhIxvN8KOapG8njlGfM6O4ebHFkCDVtJaSthD+8XCQGHvxytUODAPYSdDCYYw9cNqSPiLYPxbLmnVa+425DgpmETA+UlO+Tpp1FoRuO+j1aSZ9QR5pZj1uuPRtYJkmGYW4jtaPwTRZCD2b+GG8Pu4YT6McDptQ4DDU24Muswdt4KIlsQqE8Bjbrk6ONw2+ILbA1UkMc5lg6sI4X09GfoI7IwwwELbSbuUNSHml7ppWQN1cXEDcsC8ro5fGKyY1pT9NFjmFsaGmuf7F+x+LHjhin8devIo0h3fQwnNDQ0YRd2B/kIz2hEjp7kso6QCPP7SMvtCtnDyAay0v+T5dRJevS1olE/kn7U8/Uddtg6Eoakto4wDMMwDMMwSQtHtBmGYRiGYRgmAbDQZhiGYRiGYZgEwEKbYRiGYRiGYRIAC22GYRiGYRiGSQAstBmGYRiGYRgmAbDQvmVYiE3eOrxUq2YFCze+jTrvJpEzDNS+NHy/hTV4qe4l8W8coM/KJvCz+AzDMAzD3L6MuNDOnW9/er26shypKl3iKcdS7dPscprPkigQa7atR2lPAzZ4VcItzQ7Un8hGVRyEfWFpMXDuBC6oeYZhGIZhmHgxskJ7QiXmogn17/1ZTPVoQTGWuoW0rwWfyXw1HR7dkiizbBVqH4q8skDLryrLVHNBqH0JVfmX0PDcDpVw63Nw6+No6CnFuo1hpHbIiHUhCiZ0ovnYDTUfAUXLo7p+DMMwDMPcvoys0L7aqAnnG+j8+iaQlumMat9CFD5Ui6p7B3DoY/OYl2D8M7sw/q61yH+hEWVyehUelUvcONaMgXurQoi7hdi0aDIu7d6AcDJ7zbY61NXp9hLDbkJpctpmmjGM9LcdItY/TVpTzHVXTlapJmTv0LZtRZ/9LS4GtPzb2LRY/Ek2FLEv+vad+2Kwo+EkMKc6uIWERPEPizFweE/AiHVmWQlyr7Y58u54eBemPbwEnsfM69GI/FKVSZw/gZa0BahdPQ9hqj8MwzAMw9zmsEd7WMjEvNW1WJDWggavW/SlIP/ny/Hdm5U4trkSLW1TUPzYWpVHXMAeb0Nwcbd4EYo8l3AmjGWERHbV2JN4uabGspeYdpMakVZT8zJOjq1SgvYgDpwfRErRIiWOBfJ3BnH+yEFjXojh9XO60CDXFdPuS0a6hMR0FbJPvGxvG6VYL4X8QVzpAbLH+wtnB/lVWD/uU2vbKYEE9f4DOO+bjBl+ol21HMwfg5YPvNhzXiU6KMSce4GWk/4SfMzc/0Ze9+/k9Tj2YSvGr9ArPzdwdKcXh/qLUcXeboZhGIZhQpA8QttTjjnTU9HZfAQ3VZLEU6z5tCuRq5JHD4VYXluF4v5D8O48KmSaP9c/XIXr3xh/+1pagbF34w5jVhFC3BVkIMXXizY1G4hFpsiu3SJkrskazHDYTQ5iywEhaJW4Prj1U1zyFGERRZgFC8uLkNL+Kbbsl3Oho+i11SgV4v/TreaviW2/dRKD+TOkWG77dtBI1qPbiyciG124Ircv8In9NffNewaXRO5EtS82gUW71XLg3YWj3SrRTVEBcgeu4KtA+W11+PKjfcbfJ0/jOnJw513GrMmFj71oODcGC2pXYV6WSmQYhmEYhtFIEqFdiLmVxcDZehy/qpII3xGHP/uzs2Mwd7SJbRJ06s+ISR/rEto6uSjRPNsLx2erv4LgKUVpPjB4/oAmsgVS2E5GlW7vcNg/duBMewqKyknELsSiIqE5G6LwgIcQ/wevdyFlXIGMkmf0XAJMoRymwhAIEu1yWxbku1Z/BiUT80pyRaUucMXHnxTcmaP+9CMVxaUc12YYhmEYxp8kENpCZD9agdyOJnz2ZWjZc7PjijPaPRo4vwfeUNaPQPT14Hv1p4FuPfFil9Z5j0RrSCgy/EfyMq8P4Iu+ZFs/zEmLeu84qyLcZBvBeRwwo82R4MmALn9l5F39ibZeDI6diDXlQr2LylXvOPEblN9zxVkZiICCcSkY/FaX52S1CRNtzvoBJo7pRFtAS0kgBvHdNfWnwo6ae+G1PPcMwzAMwzA2Iyy0bZEdfjSRTBQuKEZqRys6VcroIVJf71rkr5iCgQv7NKFNIjuE9YREq1vUutm/BY/vvoTJK1VnQ5lm+JurrA6QAfDWS2/1uieK0HVAt50Ylo3J09W6izfhbT0aLq0ek/GA1YHRsJoMnqh3WE0mjuvCGa/YlpDx1dOzXYI5EhZi4lig67q/PL9xbBe8hwdQ/MNaLBd6XieaIf08j9VgfN859ClrD0EiO7DfnmEYhmEYxmZEhXbqtPsMW0VehWOs7Lmq6T912motvRoTv64f1cP7Wb5e1wgi41eYI1zUIOX472x/sCCzbIk47obgUVMlmG1RGwTvBrx8Aih91hzB4yC21BodIC3riJico3uoTpEeEsQqSbHjuQZcylfrPpuBT/94EqbzmmwnG2oa0DVnvdqu0enycdOzvf8KusjSgjNSeO8424XJ+SkBBXNIwnUEpdaED1owZr5euSFryU1caQ3RelJQY404Ujz2BE6/8mu74lO0HAsQ3G/PMAzDMAxj8m85OTn/p/5GZmYmBgYG1BxDPPLII3j//ffVXLyh4f3+G3ceqkT7SZU0FGg4vJVAQ034If6ihYbYk6N/JOEY3TSSygPfvmwL+Aig0Uiq0pqDVlxoeL+ZWXtw7J03VArDMAzDMMzQSJLOkExMeDegoT2MDWQoLN6EdXOi7AQ5TFAFgEZS2R6FyCakpYQ91QzDMAzDDAMstG8Rdjxn2ED8OzwOAfJcS0tIKbp2P66G9Esm1qCaxvB2DFfIMAzDMAyTXLB1JAyJtY4wDMMwDMMwtyoc0WYYhmEYhmGYBMBCm2EYhmEYhmESAAtthmEYhmEYhkkALLQZhmEYhmEYJgGw0GYYhmEYhmGYBMBCOylYi3z6EuEzv8EdKoUZOouWrMD7/1WBJ8TfT9T8GO+vnYZFRtYIk4dt//Vj/HWJB8iZhr+Kv7fNUFkRsQ6V/3sJL3yqpte3qvTYmfW6vd1nXlynUuPFVvzM3Gcx/ewplRwRsZ4zJlridv88tRcv/O87yFGzZjmI7voPFeNeGZ7fEix7B884jjUKZlSI870Cz4uV9XNvYJT/4SnzHjy/9la8v9zHZZzT9+VknPfEEPp80r01ms41lU35HA5EyDLMjLjQzp1vf3q9urIcqSpdx7HMfOfny5nY8DzWiGkPL1FzUeL3Ih0lSMGWoAdBIretaK+bjM0PiOnJjSoldk49aWxzd6tKiCsb8Rfa3wd+i8/7VRJza0PCsyYbn//pMVxTSbc0ex9DU/d8rItj5fdWRooxVwUuUFpi6MBzv/8bHvl9E9pUSiJ4omYFZvc24bkzKkEhK69C5FdPAgqWib9r8lTOSBO6YnBgXzOuz1pxC1bEEs/ICu0JlZiLJtS/92cx1aMFxVjqENKZKKz8f9oyYjo8ur/qR58Ar33IXVl4A+2bK3HslV/je5XCDJ0D3ULN+XrlQ7Stxwf0+nDAyBph+mlXcL1b/HPNh+vwofdblcUEgc/ZcBP7/bMOlf85HzjyKhr3qqTbgFNPiopk1qPRR9G/7cWgKOdXRI1EP/fMKGZGhRDSHaiv61AJBiSyqzOa8Qcp8kU+CX7XMsmLqKC824zxywIEksKUYdI9q8oy1dztR1J9sCZ12mosvfsKPms8gpuUIIR49aTWERXX8fxgTeFDtVgwoROHvHtgHtEdD+/CzLkpxkxbHY6984bxt4QsJTPR82YP8n4+B2Moqe8ETpuCvPRVlBWfxunu5dY2Bo7/Dl9+tE/+Lbedtcfe5l2/wbSfj0XH5qfxvf67On77EACKVm2cj3Q1a3MRux9YhlMU6a6B8bfKkdFvK42akGfj7NYuVJjb6T+M7f+hRb/k8lPVjA+fb70vDi9tajKsQIGas/Hhi3c/xIvqxymy8stZZhMZPQyb8Bb9SdHqn5SIN+qH+Ok+IUAE8sFJD9TfX8aMCLYdG9Qc/itkfTIZf3lNJUmM9KnnfotXnt8eJM2Yvz/NyPU73wqykFR06dsR0LV4sEtbnq5fJbq1a5Lz4j+xrtw8Z6ocqDmbYPs/VCgCs1AUqmZk/MQ899r1kjiv+aB27YzrmYFP9GvnEy/BN75UwpK2vwKzrdZS17ZVebDuostN9kuTmlILL+MPPSVWWXL8dkgiOC7a/jI7Eta2928qckbHOwm9p9IwW/zu4Kkm/GtKhTgGvRy6jkvf73jgV15MqNw8CtSp628+R/SyGPS+d60rcacZ8/kyz4Baf8zlnWVUywuyv3L57EZsfrJVlNungT81Imujuf0gZTzosQ8Vo/zCvL5mmdPLqaMs6NfZta7Enea8Pwi7LLmfhVoe/WZZr3avGMjlxzaL8tQfsgzL5aa0O9Z3pzl/211+o7vvCf24DGiZEvQGeD47f1vftnHvZBz7G84UGlFp/2e8vYzz94z0e1rpOZCGbWs9qHedv+D3pr6u+QzxTwu938HPmfEek4kOAj2zaNkHeyJ9lpkUYnntAuRePQTvx6M7WDoUktqjnTspFzf7MzHXtI2Iae4ElTmqyMS81UJkp7WgQRPZxPcfrcKxzZU4fXxQpbiZgmIpjivFcnW4nj4HuaUqiyioMcQ05b95Apj7C4y/S+WFwPzdFlHtJHEu16cpnMgm9j6GV8gKUHfREGzSFkCTevG89gXaMRXTtcjOrJni5dn6hfZimoqVG7PRZFoKMB+rTW+w2ey8VW23rgv3b9yLWUZuDKgmQ1ErH5QPGWo+pEl7SIoXyC9n9Vt5fxCCpdpszrz2JX66twMpsxYavj6xrCGy6WEVwbYTxnacOudD+r3/rtl4piArzYeL+w3BnPPij4RQMK+T63zHihAX68q7hPAwtr/9SDZWDpulyIPZQnj0vmuc7/rLeai2mmLp5VKB8eJlYVyLpgBNn2J5+bI18ts8JahW+YuWLJRNv8a6Rr7jRS5+97p4eZt5bZMqnB5GMS9FB+XLclMShaVIP64P8YUvDw9a2xa/LUS8tV9i2wWOKFMeZtPvyt+skC/8+sse3FNsrG82aRvri21nuPY7Ruhe7zv3j9BCU4nsPiF2N5uiNOR9vxFnW4H8mZo146nZQvRexFkppKkS9yjSj/zWLuO6TclVRunZlV/zT1QuE3lfdaEvLRu5xpJB8Ih9ocqlue2pqAh0/9CzL206ZtF2440S2bLMmQKN0palCaFnloV+UW7MstCBM5fFK6JQsybMmCRElkiXAtB9f1A5k0sZuJ6FRjlTnmaKYHoyHELWn1BlOAziuKpxUO0XPYeB2St1W0mobYc5rnCEegcoyPJBYpPy6d6avUA7xzl5uMdjnmMdHw60+sQ9uQJ/rZmE8SpVJ/i9qdadkqftRxoyRAX6Xy3q4MLud/Bz9ladfZ6oQmL8/t8Cium3LojnimM/IuEC9ngb0JK2ALWr5wlFdHuRPELbU44501PR2ayi2eJSpKYBqdPT0WHaRpo6kVuxGoXxeycMA1STq0Jxv6jJ7TyKGyo1cgbR/ubT4jYj3kCPEMYp4zRPNUW4TXH8zT5096XgzhE3TW/E3iM+7aW4FdOn+PD5Tt1TTNEqMyKkhGL2FDmXs3i6s9n5tb/LF5sh3Nfgpbo61Lkn7yaI+nrMPCFeSm17bUFFvrQ2Tz4Wmef0TJPx0F8wDc+XOZcdSa493+h8wZMIaW20zuG155dpLQLO8x0rJKza6+zont++hGDhxrf9r6WYXqpVC0RA2167MkMvAfH2MV4C9MJDM163XhaiAnTK5xQeAnt9Q5iMz9IeMJMmBRTHi5aUoMDXjHrrZSoqWiRs9RcQRR3NSLHYcJt4MU6M4t6090u9ZMeazRHit/QItN+2ffjikMp37CORJ7SWOA/W+j68eGwoL85grENOlngsfaO1iLi5yxbZdnQ63H0PnNp5GH1TZlsVbinoj/zdKHdP/Qj34zB26i0xFkKEP6gtS7y2DLtbPZi6WIhlcd36VLKMSKtKYm62B31ddqeF9jozuh7q/mlFd78HWT9Qs4I12/zLd13d29i0WC0QCVm2yNajpIuK88WJOWhX5s80SwE1Q1UW3zokKv5aGabn2+CpZuOZNaMEsx33h44Qq+L5Zi1LiGefVWGTNi6FEHimt7pgrAeDPXYNJ3gZFohK7S+tTok/1iKxgmtf4jltvw60tPsJ+6DbDnlc4Qn7DiAuN1ki1PHMIcZlICWI/efAPiHO320Wz5U8pNDxO4Rw6HvTbz+o0nS52br2kex3yOsRKRFVsgJxA0d3enGovxhVtcuFMrp9SBKhXYi5lcXA2Xocv6qSFJ1NjehUf+PqcbT4UpEeqMdkslJUECZSEn8cQnyEuLb/rP1SdIm+oGTlWS+49PJfWaNUvPCpZnnADmyoqUGNe6rdgoNqiaHjwcQM1UHFegE4mx+JA/sO4osM8TAP0NFl5KCInxIOAil+T2sVG4oWWufzkqMJPTYMYZVfY2/7BVfzfSgObn3c/1qKaYNXLTAUzJcAvfBCvcwlzsgTRXbMFyi9FGWEXK3rF/UdQe+/2aEqWBkNSo4H48UL3TwmOWkWlNihlhT1ZxDyy8kuZkaibULf94K9/8BFS3hT5f0imgIK68AEF/8kjrORIyqGs2YKQd1tR7dDVhgCsh3XuoH0u+xo947n/Mt3Tc3j2LJfLRABBbPIouQfJSVhSxFSuyzoVifBtQ78yxLehpD7JAoBKvtGBIT6ThiVuyeEYmrrtYVX8HVcUEVURU6NCKy+HkWltTIqKhkBjI4JILJ3QBuJaxNRAbFaGASLwt0AohLxujhWsnV9AXo+qRaIsPcmBQK0likS1tZ+RLbfcUFWsqILGviTi5LbyLOdBEJbiOxHK5Db0YTPvtTjvTdwU1SMx6SP8otxfg+8w9xkMvit4dEeUbSXop/oC0Z3h9Xc3Gc1AduTEf1KbESb0JvOjMmMAhhQ8949reIhGecm91g5dfqiso8YIsQWMlvxs43UOc0+p9uPRP6yjQRrJBRrisxTH4+Ith96NMn1MpeTHg0Og9GkSpNhO3Fcbz2KJQj7go0T5MM0LEv2vgWKngVHX1dNfl7RoUKiVf0ZBCoru1unBrQXBb/vCSOSLFvKZOVdt6KFRxe/ZgXRgMQxRaHFfZPVhb2nIZ5blO9D91dqkYjxj+jHI6JNzyRZ6XNZGAjy0TqupZjsAIARuZStODICejmqFjhH644ScwY+XOn1IGOcEO8Zvai/IDY/g/Lj01lZWiig3bvSkjd8hHsHhEJ2BgwDVZCui/fdi7vpuHTRGvretG0bRqXJXfGKZb8jRlYIjI6P0aFbaL3YdSz69v3RyggLbVtkB+rw2Hm5E6nT59oR4QlzUezpRIcr6p38DE+TyR0P/wL56a3oOakSiLF3q7G51yLf7FCp8X33IMYULhna+N3S2xjMIrAdjZ9cRP6D/0RF1mHsdUWvHCx7B6vLPZYYl4Kx/GnDP+lHHCLaskZuRnl01EspUK9qE+XL/mSf8ZCE6dc2CbrtYUD6Q7ORK0RIut5MrrBe/up8R4XlYTW8sHbEWomfmqF56OMb0c7DtmV5GGztMF5MZKnwlODJuFSGjNFPTA7Ipmzbz02/XT3Lg7Zj0QhWM2o3hLF8tcrEEzVRRK5UhNP2sccb/4huIOQIHXAOhxf6vjeQtqQplXjmwWynFc31LJr1uh4NV1aP8h/ZZZSsJmmuiPhd4pyQt1xsK33mj5CV1oVrEVQWnRh9I3SBHo+INvFW3YdGBFS7dlJ4uZ9BLqSFYFIJ/lqWZluKCGkBsK0FUtxat4qyFuj9CsiS4XFFxEmI0/0mtjW+sETUPYciwIJgtRiJ+2RlFBHtkMcVjgjeAeEIa62wKyRk/UkxRWsk96Z8polti0rTeN3WE4/9lpUnUQmgSlkoQlhjgkMiOxYL7ehmRIV26rT7jJd3nhAvgTo8Xm3EZ2fH2J0hK4Dj72lWklHGhY+9aDg3Bgus4f2WYPwzjSh7odEYAaSgRv5d9thalR8B6XMwk9aR27iGls2mn5s6PP4P2mHmL8d3H56Ae0wZ5zJR/vbex7DzCHD/RrOp1yW2pPATT7iAHaOoc5Faz+3XfG2Z6ghlbjfAtmPC8NPazWy20CG7gOxEYjW/icmMIpEXUQg5ywd37Ut8Qh1hfqILpeDbTjzkjc/GyppsqxOkgfLMm/aOjSLfEdGm0RqMvJVTRJFSzffWh2ukn3UqVsplaNSQ90SZsbn2/H1GB0i1DTkN4/jq9rk2OkDZHXiog6oRibaupZgiGwfW1XRNTfK9ti9TdoyVQ12Z+cZvD4eVyPBe2paYB3vEvMoLjw8vvmF0srKPLYAtJgYMwayJ2oCIivh/iHI05VFRXtS9HdF9b1ik0nEWp3QR7HoW0cg5+pjwfmVUdrq0+xV0don7o3w6uum+oda4rKnI7++K/l1DkfZ+177FDbp2RqdbKm9SUJFtQXaAtK+llWdhWA5SxF17QH8QSwsDrHWpc1/9ZZUn8HsWyk6XtgeYhn4smJWPXuqMRyIxIw8FUQuwwBjecrOMrkBGaxQR7TDHJZ/jcrtUQaXnt/EbEb0DIkEJZv+On3kwPpRDwt/4XaPzonlOI7k3O1BP+yauhdUJUhHzfgveqjPLV6DfNpA+fzOYESGZZUsw8euG23LEESKphvdLRuI5vF/coeH9FvTYw/0lHSTgnMPAGQRLZ0IT7+HxhptEDO8XaBgtZmQxrrNzuMn4EXAIyqQgee/PoQ3JxgwZGZSBJqJ1SHBPwpmAeUmOHPmGhkQdhfs+giTPqCPMLces1x+NrBMkwzC3ENvR+KfDQBgbyJB4ai9WRtkJcriQdpXu95KvEmzZ3VhkDxtyhJYgNhDyOMcp8j+8iAqCHPmGRXa0sNBm4g5FnKh5dmXWYWyP42fCGQPLAjJqPvdsWlNco0gwty401j7ZQP4zThYiGnYvgOUjaVj2juyLklTPO9Mi4bJ8MMOD9NRnVPhb1ch2FrfOx8MHDWk6XPa4Ww22joQhqa0jDMMwDMMwTNLCEW2GYRiGYRiGSQAstBmGYRiGYRgmAbDQZhiGYRiGYZgEwEKbYRiGYRiGYRIAC22GYRiGYRiGSQAstG8ZFmKTtw4v1apZwcKNb6POu0nkDAO1Lw3fb8VChPu5Zlsd6urexqbFKsENbaeOlgmzXFSswUt1L4l/40DRctSunodMNcswDMMwzPAz4kI7d7796fXqynKkqnT6Nn5hpZZnTatRGL+vBd8yrNm2HqU9DdjgVQlMAhGCeOVkXNpdg5oamh7Hlv0qa/EmvD1ksbwD9SeyURVzhSUT80py0dl8FDdUCsMwDMMww8/ICu0JlZiLJtS/92cx1aMFxVg6v1Bl3sCFRkrXpqZOkT6Am6P4A1eZZatQ+5B5jOGh5VeVhYlL1r6EqvxLaHhuh0pgYmXHcy4BrbN4IrJxCWcSUKk5uPVxNPSUYt3GMFI7ax5W1S5HwJKU9QNMFHfTifNqPgIiKmcMwzAMw0TFyArtq42oP3xBzdxA59c3gbRMLartJHdSLm6ePQ6S26ORwodqUXXvAA59bB7zEox/ZhfG37UW+S80okxOr0IP2N841oyBe6tCiPOF2LSIoqsbEE5mG3YI3V5i2E0sC8Q2Mw5rpL/tEHv+adKaYq67crJKNSEbhLZtK0rrb3ExoOWVBYNsGWJf9O079yUcwX7bpiDYtmVE2lw3SGS6IAMp6k8b9ZvPloq8yaiythG9rWRHw0lgTnXg3ybIFvLDYgwc3gOzJOkUlhYDX3+lRbPjUc4YhmEYhomW0ePR9pSjOK8TLV+OxsbwTMxbXYsFaS1o8LrFUQryf74c371ZiWObK9HSNgXFj61VecQF7PE2oCVtQWDP7eJFKPKEj66SyK4aexIv19RY9hLTbmLYH17GybFVSnQexIHzg0gpWmQLVPk7gzh/5KAxL8Tw+jldaJDrimn3JSNdQmK6CtknXra3jVKsl0L+IK70ANnjwwjn/CqsH/epte2UUMLTxZpt+m+LqXaL+FUNTymqgm17/xY8Tul/PIlBlWRiCX9ZqdDEtDyuHdhgrXfJPi/BouKh2H8A532TMcOvMqJaROaPQcsHXuwJFLHOmoeSCZ1oPua+T2IsZwzDMAzDRE3yCG0hpOdMT0Vn8xHcVEk6udOLgVEZzS7E8toqFPcfgndnYM/s9Q9X4fo3xt++llZg7N24w5hV3MDRnV4c6i9GldsuQNFVXy/a1GwgFpki2yE412CGw25yEFsOCNGpxPXBrZ/ikqcIi1Q0dmF5EVLaP1WiUQjpUFH02mqUCvH/6Vbz18S23xICNH+GFLRt35oSVotuSztGF66YotQn9tfcN+8ZIV2zMTGKyLCjkuBmiNsmW4cpzqGL6bhbdgJXRqwWEe8uHO1WiS4yp0xE6tW2gJHumMoZwzAMwzBRkyRCuxBzK0lI1+P4VZWkI6PZN3GlYxRGs4sKkKv+jJj0sS4BpJOLEs1Lu3B8tvorCJ5SlOYDg+cPOKO6UtjqFgczUmuyA2faU1BUTmJvIRYVAScbohCUIcT/wetdSBlXIKPkGT1CtJqCMkyFIVJ2PKci6Oq4/G0qyQ9VRuQ5sihEwQT1Z1AKMedeoOVkIJkdgCjKGcMwDMMw0ZMEQluI7EcrkNvRhM+C2EIomp3a8U9cGI2dIM/vgTfaJvm+Hnyv/jTQrSde7NJsASRaQ0LR2z+S53d9AMGpWxzUpEW9d5xVEW6yjeA8DkRjgfBkQJeJDl9zWy8Gx07EmnKh3kXlqnec+A3K77nirAwMmYPYUquORxx79srRJ7YLxqVg8Fu92kHWDi8azo3BgtpVmJelknWoUjdwBV8FiXb7EUU5YxiGYRgmekZYaNsi2+4U6UJFs1vORhilS0oibZJfi/wVUzBwYZ8mgEj8hLCekGh1i1o35DvefQmTV2od85QPuMrqABkAb72MDK97oghdB3TbiWFtmDxdrUsdCPVouLRjTMYDVidDw2oyeKLeYTWZOK4LZ7xiW0LGV0/PdgnLOLH/CsJUReKL/L3A/urIWYiJY4Gu6/7VjhvHdsF7eADFP6zFclFPsYlmSL8hlDOGYRiGYaJmRIV26rT7DFtFXoVjrOy5VhN5JgoXjOJotosLH6uIpGtkh/ErzJEgapBy/Hf48qN9KkecgbIlmPh1A7zWSCUulGC2RW0QvBvw8gmg9FlzlA2K+hodIC3riJico3uoTpEeEsQqSbHjuQZcylfrPpuBTx2dB6ljYAO65qxX2zU6XT5uerZJjJKlBWek8N5xVkjT/JSAwjJ6XCOO1BkdIyMdX9zq8OgYPSSacbHFsctKjfn7Q/iYTbgOrtRK8kELxszXKm00pN+YTrSFGNIvpnLGMAzDMEzU/FtOTs7/qb+RmZmJgYEBNccQjzzyCN5//301F29o2LX/xp2HKtF+UiUNBRoObyXQUBN+iL9oIeEpR//gMbqHDRoh5oFvX7YrJhFAHSVL+huC2D3iVM4YhmEYhomKJOkMycSEdwMa2sPYQIbC4k1YNyfKTpBMTFDFhkaI2R6FyCaotYQ91QzDMAyTXLDQvkWQI22MrYpPpz/zoy3PlqJr9xDGgWaGyBpU09jk7nG/GYZhGIYZlbB1JAyJtY4wDMMwDMMwtyoc0WYYhmEYhmGYBMBCm2EYhmEYhmESAAtthmEYhmEYhkkALLQZhmEYhmEYJgGw0GYYhmEYhmGYBMBCOylYi3z6Yt8zv8EdKoUZOouWrMD7/1WBJ8TfT9T8GO+vnYZFRtYIk4dt//Vj/HWJB8iZhr+Kv7fNUFkRsQ6V/3sJL3yqpte3qvTYmfW6vd1nXlynUuPFVvzM3Gcx/ewplRwRsZ4zJlridv88tRcv/O87yFGzZjmI7voPFeNeGZ7fioUI93PZO3iG7p+g93zing2hoOfGUM9xLOXMWFesQ1NNnkp1oZ4XQfODILedJO8MOi/y2ScxnoXGca/A8/aNFXfkOXCdN0qz98XFjAprn/TryhiMuNDOnW9/er26shypKt3Eke/4PDsTDzyPNWLaw0vUXJT4vUhHCfIBnKAHQSK3rWivm4zND4jpyY0qJXZOPWlsc3erSogrG/EX2t8HfovP+1USc2tDwrAmG5//6TFcU0lM4sh58Wncj8PYLu8z17Mhlue0FPh7MUvNujm18zDSa/6JymUqYZg4sO9DPPL7v+EPp3wqZXgIJMKHT5h34DlxzI/8vgltKiUhCNH8y1n9qK/rUAkGB/Y14/qsFRzoGAIjK7QnVGIumlD/3p/FVI8WFGPp/EKVCaROW63li6mpE7kVlchV+aORzLJVqH3IPkaDN9C+uRLHXvk1vlcpzNA50C3UnK9XPozaesSDuNeHA0bWCNNPu4Lr3eKfaz5chw+936osJgh8zoab2O+fdaj8z/nAkVfRuFclMbGx9zG8EqJynZvtQd+5fwx/pYb2q64L9/9n9EI+4c/pa1/ipyRMXYKRCUUeti3LQ9veJrylUmyE0H+3GeOXBQgkfduLQfGsviIKoH5dTUj3rCrLVHO3H0n1wRoS1kvvvoLPGo/gppinaHZxfz0++1J9WtpTjqWV6Wh5rxGdRkrCiecHawofqsWCCZ045N2DCyrtjod3YebcFGOmrQ7H3nnD+FtClpKZ6HmzB3k/n4MxlNR3AqdNQV76KsqKT+N093JrGwPHf4cvP9on/5bbztpjb/Ou32Daz8eiY/PT+F7/XR2/fQgARTk2zke6mrW5iN0PLMMpiqDUwPhb5cioipVGTcizcXZrFyrM7fQfxvb/0KJfcvmpasaHz7feF4eXNjW9VaBAzdn48MW7H+JF9eMUofjlLLOJrAP1v1cPHYpW/6QEOPUhfrpPvBgE1LRXPYmWuYwZEWw7Nqh5+FfI+mQy/vKaSpIY6VPP/RavPL89SJoxf3+aket3vhXUFFzRpW9HQNfiwS5tebp+lejWrknOi//EunLznKlyoOZsgu3/UPHg+bULRaFqRsZPzHOvXS+J85oPatfOuJ4Z+ES/dr5m/OGNL9ULn7a/ArOt1lLXtlV5sO6iy032S52aUgsv4w89JVZZcvx2SCI4Ltq+eCGatO39G547Q3/R8U5C76k0zBa/O3iqCf+aUiGOQS+HruPS9zse+JUXEyo3jwJ16vqbzxG9LAa9713rStxpxny+zDOg1h9zeWcZ1fKC7K9cPrtRiNtWUW6fBv7UiKyN5vaDlfHABP1t6554D6gJvG26J1dOMf7uO+K6NyWB7n9BuOe0mguM/7k0CPQsjvd9beJ6XjvuTQP5rB7b7Fd+jeey8Xfg+y74vS23OaXd+i1zW3SP1Wc58wj38sHvTWPZJ3EQn4xdYe2fnu+/X4H2n85LCXoDvFeCvrsEdBwP9nyI17HQWsb528HPp465ncieZSaFWF67ALlXD8H7sal+bh+S2qPdebkTqdOrlV0kE4ULipHa0TpsIjt+ZGLeaiGy01rQoIls4vuPVuHY5kqcPj6oUtxMQbEUx5ViuTpcT5+D3FKVRRTUGGKa8t88Acz9BcbfpfJCYP5ui6h2kjiX69MUTmQTZnSl7qIh2MzmSvPh/doXaMdUTNe8e7Nmipdn6xfaw30qVm7MRpNc77f4HPOx2vQGm83OW9V2KWKyMXjzZeSopjdRKx+UDyFqhqNJe2CZzWYq7w9CsFSbzYIUIdnbgZRZCw1/nFjWENn0MItg2wljO06d8yH93n/XokpTkJXmw8X9xos358UfCaFgXifX+Y4VIVTWlXeJl7ex/e1HsrFy2CxFHswWYrf3XeN811/OQ7XlLaSXVgXGixeVcS2aAjR9iuXlS8vIb/OUoFrlL1qyELN7hQi1rqUmdOllJ373unhRmXltkyqcHkYxL19alC/LTUkUliL9uD7EF748PKh7NYWIt/ZLbLvAEWXKw2z6XfmbFcg4RufFg3uKjfWfqBEvcuu4xLYzXPsdI3Svh42uKhHYJwTnZlPghrzvN+JsK5A/U/MePzVbCMGLOGsJ1keRLoSoVcZ1m5KrjNKzK9+0PHzVhb607DAtpR6xL1S5NLc9FRWR3j/iuFbrvy0mtyDNrwm+7eC2LhLD5Mk2KtDp5b9SHm11XOGe0yFRdq+th9Enhbm5bqCAh/H8cVybmCExqd+7YnKJ7FC8VWesU39ZJThQYjbovW0jRXaGEPhiGV2QBifcvQlxT66QQpXyyfpSUGbbTpz3ZrD9D0Kod5eCftt8Jrl/m87LoiketF0IXel+S+SnTMmL0ipzAXu8DWhJW4Da1fOEIrq9SB6h7SnHnOmp6Gw2otmSq42of68JqCB/djUmfl2P+sOjrTZENbkqFPeLmtzOo1Cx+SgYRPubT8OoO76BHiGMU8ZpnmqKcJvi+Jt96O5LwZ3Do3BCsBF7j+gP3q2YPsWHz3fqzZ4UGTEf+EooZhthm5zF053Nzq/9Xb58DOG+Bi/V1aHOPXk3iXp67DxR6Gw2I19amycfi8xzeqZJPKCA2Qum4fmyYE1sw8+15xvRnjYds0yvJImQ1kbrHF57fpn2gnSe71ghYdVeZ7+8/fYlBAs3vu1/LcX0Uq1aIALa9tqVGXoJIEO8MGgmJw/3oBmvW5EXUQGil4u4xjr2+h04I15s47N0sTwpoDhetKQEBb5m1FsvX1HRImGrv4AoAmdGhsSG25CGiVHcm/Z++XCg1YeUsWZzhPgtPeLkt20fvjik8h37SORhBlUOrfV9ePHYUF6cwViHnCzxWPrGHXXVuMsW2brgDH3fG37gvimzrQq3FPRH/m6Uu6d+JD3KO/2ivYQQ4Q9qyxKvLRPC1YOpi4WgFdetTyXL6LaqJEo7RpetbtvrTJE5lPvHGXhwM7RtO/s+ULQ7uBhOLNe+6QKy8rTKdWzPafP+su/dODKjBLM9+j0QmEWmyHYLfFEZ/6XVKfHHWgSZCHdvCi43WdHgAy3tGPRkGFH7nGl40HFvRkfYdxehPZMcvy1JE4/OCKx5ZBNxrBcpN3B0pxeH+otRVbtcKKPbhyQR2oWYW1kMnK3H8asqiZhQKQT2fehrJI92EwamVwfsMJnUFBUMu6fcIcRHiGv7z9ovRZfoC4p6UNMLzo7O2BEbgx3YUFODGvdUuwUH1RJDx4OJGUDBMvshSr2n3Q+UA/sO4osM8bDubYowyjEcUMRPCQeBFL+ntYoNRQut83nJ0YwdG4awyq+xt/1CwCbnwBzc+rj/tRTTBq9aYCiYL4FxGUgJ+VIkhLjWriFFwqyX4L4PjQi5Wtcv6juC3n+KtIUqo0HJ8WC8ENvmMclJa+aOHWpJUX8GIb+c7AxmJNom9H0v2PsPXLSEN1XeL6IpoLAOTHDx34ru/mzkiIrhrJlC9Hbb0e2QFYZIkT5miqCr4xqNHcjD4dcqENtzumCsuNcSdH8togLq8hD7IZ4bsycBg60d/vtAYlVFjc3IsM6Q782YiOzd5Tge6WHXAkXy2RABsq9MdEEDf3JRcht5tpNAaAuR/WgFcjuabC+2JBOFJbm4efYzXJDl+AKOC7Hd6SlG8WgaeeT8HniHuclk8FvDoz2iaC9FP9EXjO4Oq7nZjs7YkxH9SmxEmyDfmvkQNSan/YOa9+5pbYp7k3usnDp9UdlHDBFiC5mt+NlG6pxmn9PtR+IbKbJGQrGmyKJq8Yho+6G/RF0vRTlFETEym6BN24njepuRc4V8gQ8D5KM0LEv2voUUDX7o66opimb50JBoVX8GgcrK7tapAe1Fwe97QrMoyMq7bkULT/pdutXDqCAabMe1bg+yfiDum6wu7D0N8dyifB+6v1KLxMpry6zj2d09H+tuNbH9g2yk93dpts7YntOyc2SCkJ31wkHPjXebxcsrulE2Yr83YyPcuyskUkBHgBTkRsfH6NAttF7sOhZ9+/5oZYSFti2yg1lCUtM0aTphiqgH3USf5S0ZLQxPk8kdD/8C+emt6DmpEoixd6uxudci3+xQqfF99yDGFC4Z2vjdMooRzCKwHY2fXET+g/9ERdZh7HVFrxxID6PHEuNSMJY/HWTIqDhEtOUDJQ8z/B6gRhO921PnQPmyP9nXgRd304NY+bVNgm57GCBvPEWVhAhJ15vJFVZ0Tp3vqLCiVYYX1o5YK/FTMzQPfXwj2nmyx7wVtaFmW08JnoxLZcgY/cTkgGx2tf3c9NvVszxoOxaNYCWvKEWehjAmrlaZeKImiqjZtQ78y6f72OMNiVa3qPXn1JNGP4F12njPoe97A2lLmlKJZx7MdlrRXM+iWa/r0XBlxyj/kV1GyWqS5oqI3yXOCXnLxbbSZ/4IWWlduBaNBYNsJxSxDjOGdWdX4kRkQEI+pwWh9lvaakLbXoicu7IdgZJYn9Py/ppUkZih5CJ9Lqg+OQXLorw/h3xvOt8dhmg3/g5PBO+usNAzzoOMcWo2GNRSGK5FwA8S2bFYaEc3Iyq0U6fdZ7y884R48Rsr+wYuNDahU8+rGIOWxp0qwj36uPCxFw3nxmCBNbzfEox/phFlLzQaI4AU1Mi/yx5bq/IjIH0OZtI6chvX0LLZ9HNTh8f/QTvM/OX47sMTcI8p41wmyt/e+xh2HgHu36iaRN3jrUrhJx5mATtGUecitZ7br0nRH9kRytxugG3HhOGntZvZ7Acp2QVkJxKr+U1MZocS1Zvc8sGJB/Enl6nTmv4gDr7txEPe+GysrMm2OkEaKM+82XS9UeQ7ItpmpypjdAOz+d76cI30s07FSrmMMUJCu5Ejufb8fUYHSLUNOQ1jxM4+10bnKbs3vLgWKhJtXUsxRfbyNkWwORmdlKxt00tYDnVl5hu/PRxWIsN7aVtiHuwR8yovPD68+IbRAdI+tgC2mBgwBLMmagMiKuL/IcrRlEdFeVH3dkT3vWGRSsdZnNJFsOtZRCPn6J0H/cqo7HRp9ysg8ZtfPh3ddN9Qa1zWVOQ7IrRDh0YcsY+HbFtd2O0a4SQ4Ye7NSAj3nA7JRvxFt72YHS0drMOse+1ASVzwu7/EZHXss+9NaQUTglzmW5VH6khp5JNQpQ6A9LddxgM9F4IIVLNPzk8iu0diuzed7w7qtOiwpdD7R+1rgTgHtE8Rv7siQol1RwdJf8gLHtBSE4LMsiWY+HXDbTniCJFUw/slI/Ec3i/u0PB+C3rs4f6SDnpJOIeBMwiWzoQmUcNoDRfx3n9j9AAaVSN5vPKMeZ39hpuLEwGHoGRGDoqIBxzOkRl9GKO9wDXsn4U1JGpyDAIwWkieUUeYW45Zrz8aWSdIhmFuIbaj8U+HgTA2kCEhRN3KKDtBMgnEHJKRvwB6i2BG1QNF+IUIl0OassiOFhbaTNyhiJNs6sw6jO1x/Ew4Y2A144bxgiYPZvO3axQJ5tZFjrQxtC8GBsT0EbssH8zIMms12f64ZfKWQtpl0vz6cdCQi8Nlj7vVYOtIGJLaOsIwDMMwDMMkLRzRZhiGYRiGYZgEwEKbYRiGYRiGYRIAC22GYRiGYRiGSQAstBmGYRiGYRgmAbDQZhiGYRiGYZgEwEJ7RDG+DJlfqmYTTdFy1K6eB+2j9gzDMAzDMEyCGHGhnTvf/vR6dWU5UlW6Sbh8JlIyMa8kF53NR3FDpTAMwzAMwzCJY2SF9oRKzEUT6t/7s5jq0YJiLJ1fqDKB1GmrMTetBZ/J/D/jeL8zfzSSWbYKtQ+NwDFk/QATxRk+cV7NExThHol9YRiGYRiGuQ0YWaF9tRH1hy+omRvo/PomkJapotaFKJ6eis7mIxCpks6zLbiZNwW5an60UfhQLaruHcChj81jNlmL/BcaUSanV+FRqbq1xPOYmb8L4+9S2VFQWFoMfP2VM5p9/gRa0hawnYRhGIZhGCYBJLlH+yb6TJVN+G5gAGOQaivRUUIm5q2uxYK0FjR498Ats8evWI7v3qzEsc2/Q3vfFOQ9vETlGIxf0Yi87t+J/Eq0tKUgf8lalRMhWfNQMqETzcfcppEbOLrTi0P9xaiqXS6qNgzDMAzDMEy8SB6h7SnHHEcE+wI6OlJRPN2Wf7nzK0ZhNLsQy2urUNx/CN6dgf3R1z9chevf0F/70HdhEGOypsh0i7Y6fPnRPvmnr6UVGHs37pBzkZE5ZSJSr7b5CXyTCx970XBuDBbUrsK8LJXIMAzDMAzDxESSCO1CzK0sBs7W4/hVlSToPNyEzrwKqzNk3mUxjwHc9KkFRgNFBTFXDq63vKH+Epx8Gsde+TW+V7PhKcSce4GWk8Fkto6o2JRyXJthGIZhGCYeJIHQFiL70QrkdjThsy/d8d4LOK46QsrOkDczMcbXJ6T2KOL8Hni9DSPnhSahP3AFX3Wr+QBY3nGvF14//zjDMAzDMAwzFEZYaNsi2+4UGQRPOZZWTsSVQ3bnyNHDSHmhww/pRyI7mHecYRiGYRiGGTojKrRTp91n2Co0ewhNcyfIbDm8n5VemY6W93biwmiyjbiwvNDDNaQeDek3phNt+pB+OkXLsQDBveMMwzAMwzDM0Pm3nJyc/1N/IzMzEwMDo8qYkXAeeeQRvP/++2pudEHR6pL+BuzyG22EYRiGYRiGSTRJ0hmSSQQUQWeRzTAMwzAMMzKw0GYYhmEYhmGYBMBCm2EYhmEYhmESAAtthmEYhmEYhkkALLQZhmEYhmEYJgGw0GYYhmEYhmGYBMBCm2EYhmEYhmESAAtthmEYhmEYhkkALLRHlCUY/0wj8kvV7IiwBi/V1aHOuwkLVcpwsGab+E36XTG9vTGRv5yJeatrsbxIzZa+irJnfoM71CzDMAzDMEyiGFmh7SnHUu3T69WV5UhVWSaOz7A/Wml8sv12467fYNoLjSh7bK1KiBxd0Mpp2xqVM7LseK4GNTU1aGhXCYmiaA6K0YITwT5DHwTPY+J8v7AL4+9SCQzDMAzDMFEyskLbdwSfvfdn1KvpeH8xls4vVJmCCZVYOn0Ax838jlzMDSDGRxOZZatQ+5B2jGG44+FdKKsButtUggOK1q7CvCw162LhxrdRNfYkXhaClkStnJ7boXJNdmADpdduwUGVMrooxPLa4OegcFIuOpuPIvLvY65FvqjUjO0+gQGV4qBoeVTXj2EYhmGY25ekso4M9N9UfxGZKCzJxc2zx9GpUjrPtuCmZyJyPSphlFH4UC2q7h3AoY8vqBQTQ9yVyelVWId3128wNWsPjr3ya3ynkpzcwNHmART/ULNGWCzEoqIUDJ4/EFRAkxAPFel25LuWozyyfOgR85dqZZZiITZ5tfWitabUvmSvK6aA9pKseVhVuwBjzu3D0W6VpiPySyZ0oi1ANFtWYNQ5n/bwEpVKkezl+O7NSrSfUQluzp9AS9oC1K6eJ0oowzAMwzBMcJJIaGci9+5UdF42RWgm0j03caXDjEUWYm5lMVLFf+mjLqRt+IQXpLWgwbsHbpk9foUh7o5t/h3a+6YgzxR+3/waX77zhvF3MM7vgfeDFoyZX4tVZbr0O4gD5weRMmd9UA/0wa2Pyyj3yycGVYrG4k1YNwc4+UfN4uE7iZe1iDht+4FvX7a2MXmRLaYXbqwG3jIj6S/jJEqxLmIv9hq8tDLb+m2aHt/qqi5QZPmHxRg47MWuY4Hj1YWlxcC5E37nG+lzUEwVmM3inH/YijFza6zKje+dVbj+jZoJiKjc7PTiUH8xqmqXi1LJMAzDMAwTmJEX2hMqlf+6WnppW66qdItMFFZSfgXQRPYRYEz6aIolkrWhCsX9h+DdGdjCcP1DU9ztQ9+FQYzJmiLTI6b7KHZ5D2Hg3iqHrUEK6T+eBIQgjjaqvLC8CCm+8ziw35jfcfYS4MlAgTFr0N5gCeCDR85jUMs/uHUDtqh1LdE/zrF2GFJQVB54b6X9Zv4YtHzgxZ6g3utCFEwQFbXWAGe87wROmxWYk6dxHTm4M0ov9oWPvWg4NwYLQthWGIZhGIa5vRl5oX210fJo1zenY6mjw2Mqiiurkd6sPNpXM5GaBgz0Re64HXGKCoa3A+eEEqfw278Fj2tR5fV1LyGS7pAHr3cJYV2ERYuN+TXTJwthfQZuh3dQFm/C25r1Y/2cFJURCTuwQa8gOPY5Ez+4O3yTRmZZCXKvNge2lMQVUUZLOa7NMAzDMIw/SWQdEVxtRSfGIFW2499Anw+4ebZeCGyZKzDsJH26lTvZIWuHtyGxvl7Lq9wgfmtXEHF5EFveOolBZGOiEs8haesVy6ag9FlDKFflX0KDX0fKYKzBS8+WAicMW4lpLYkKq4JA62ajyhLbhnXDeziYN50wxLhtQ4o/lt/eK/bFz3PPMAzDMAyTZEI7ddp9yPVdQacQ2CSoOr++idTpS1GoDLTO/NFEAn29JLLDeJVNpB0EXbhiWTqCs6bKKZRrajZEHs1WdF1Xvmrp944mou1ERtfdBPWmC4Y4pF+kkMgO5rdnGIZhGIYx+becnJz/U38jMzMTAwMBBzVLDOTPrtCMFb4WfNZ4BHrAmsbRXjpdWQUC5CeaRx55BO+//76aix3yF1elNasoKH2w5r9x56FKtJ808mk0jJnUUU96iGk0khqMN7Js2upUPnWyXALsCxTFpg/RVGGymjO4hAZLMNOoIOtR6h7Bpb3BGAKQrB/PlgphrmOvT6OOrB/3qT1coFw+A5/q+Za4voSTJ7JRai0faN+AQSHspeebRhxZqecO4uQfH9c83zrkgS9B3wf2OSAhXNLfELjiQR+sWdCD06/8Gt/LBDrH1BnV8MnL8z/XXSkYRLvKl50wJ7VxFJthGIZhmLCMrNAeBcRbaI8WaNg+GlFEH+2D0qqghHiyIiP86WjmaDPDMAzDMCNMcnm0mSRhISaOVX9arMGMfGDw24Bfzkke5AgsLLIZhmEYhhl5OKIdhts1oh3IOmJZOxiGYRiGYZiwsNAOw20rtBmGYRiGYZiYYOsIwzAMwzAMwyQAFtoMwzAMwzAMkwBYaDMMwzAMwzBMAmChzTAMwzAMwzAJgIU2wzAMwzAMwyQAFtpJAX2dsBFlz/wGd6gUZugsWrIC7/9XBZ4Qfz9R82O8v3YaFhlZI0wetv3Xj/HXJR4gZxr+Kv7eNkNlRcQ6VP7vJbzwqZpe36rSY2fW6/Z2n3lxnUqNF1vxM3OfxfSzp1RyRMR6zoYHWeZq8tScAaXJ/Q5IvI7LKBORn9Nolx9ecl7855DLXyz3faDrd/vhwfNr9XJolNH35bQCz+eo5Ljj/l0ndC2T8Z4PxvDc98xoYmSFtqccSx/9f6g2p8pyqI+tO8idT/mrURis7DJDxvNYI6Y9vETNRclTe/HC/76DhD1/E4V8wBkv5LiTyG0r2usmY/MDYnpyo0qJnVNPGtvc3aoS4spG/IX294Hf4vN+lXQrMaMCv5zVj/q6DpVgcGBfM67PWpHQF+ms13+F+7vfw19eUwmjnGvPN6Kv/FdJWxEYbmQFwFVhCJSWGDrw3O//hkd+34REfqbsiZoVmN3bhOfOqASFrCwJIVo9CShYJv5OmopQ6IrBcNz3zOhiZIW27wg+e+/PqFfT8f5iLJ1fqDKJQswVAjyvvwU3VcpoJ7NsFWof0o+ReAPtmytx7JVf43uVwgydA91Czfl65cuhrccH9PpwwMgaYfppV3C9W/xzzYfr8KH3W5XFBCHZz1keti3LQ9veJrylUmyEUHm3GeOXBap4xeG4REV35ZSL2B3HCtfIIyplWw8jvWYvZqmUSEne+54JiqikVk/q8KukksiuzmjGH6TIF/kk+F3LJC8x3PdFywPoA2a0k1QfrEmdthpL0/6J+sPGB7Rz569G6tmduIByLK2ciCuN4m9RPoeTeH6wpvChWiyY0IlD2ifC73h4F2bOVd9fbKvDsXfeMP6WkKVkJnre7EHez+dgDCX1ncBpU5CXvoqy4tM43b3c2sbA8d/hy4/2yb/ltrP22D9iQc0AACPlSURBVNu86zeY9vOx6Nj8NL7Xf1fHbx8CsOwdPLNxPtLVrI146T+wDKco0l0D42+VI6PfVhpZCWbj7NYuVJjb6T+M7f/xGK7JhQVy+alqxofPt96Hxr1qdshQs10FCtScjQ9fvPshXlQ/ThGjX84ym0/oIa9EFEWrf1ICnPoQP91nFET5QqAXxe8vY0YE244Navb/FbI+meyKYBrpU8/9Fq88vz1ImjF/f5qR63e+FWQhqejStyOga/Fgl7Y8Xb9KdGvXhJr815Wb50yVAzVnE2z/hwpFlhaKQtWMjJ+Y5167XhLXNb/cpF7Yat3WfsyelSfT60EvfXEL7P2biq7RMisw2zwsa10bWVbGNocUAVRGHuyxy0x8CHcu6Ro9inw1Z19vc733gBoz3329XOu2vme1ntB1Xo1X0ZT9KyHyZZJsYbH3wbWuRL9/nfl9R1xlTRGwHMaM63pqZcW8jmYZIOxyQLjW9QkR+MaXSshTGZuEM+/24kHxfJBPVUe++ZxQM4pB6zkSvJzJ/ZrS7tiWX5oQq++Lyp6Jvt+07JM4iE/GrghyXP7PRGc+QcuUoDfAc0zuS6BnpcAs969jobVMoHOaccz9e0b6Pa10ftKwba0H9drxG8TznOnPaNpu8GdKoOtI2NfSZmj3fSbmra5CMVrQsPMobqhUZnSTRB7tTOTenYrOy6YEBToPD7+wTgx08wiRnSZuHk1kE99/tArHNlfi9PFBleJmCoqlOK4Uy9Xhevoc5JaqLKKgxhDTlP/mCWDuLzD+LpUXAvN3W9oMcS7XpymcyCb2PoZXyApQd9F4gUtbAE3qZf3aF2jHVEzXmn9nzRSiufUL7WU+FSs3ZqPJtBRgPlab3kwS8jXZ4uWstlvXhfs3Rh/h8kc1hb7bjEH58KRmUZq0F4hpA1B5fziVhmqzmfbal/jp3g6kzFpo+BXNaIx8CEew7YSxHafO+ZB+779rNp4pyErz4eJ+Q6jkvPgj4E/mdXKd71gRQnxdeZcQa8b2tx/JxsphsxR5MFuIm953jXP9hS8PD2r+yCdqhACyrkUT2iZVaE26Yt0pvfgDXTORTi/FP5zyoaDQeAGbTdrmdfwio8LlvfRg0RQP2i4EF9nEWyI/ZUpefJv6l/07pqZdxNkQIjtdiFjjeovJVanKr6GKkioL/VNRoZWFWa+LSrC53gPvoX3Kow4rR3r5r6QINq61D/kP2td61utCRJMwp3W3HkafSGuvM0U2iXx9v94LahM5dfqiqzzHihJm1vU0yoNdIROoMkB5shyU2faMRUtEBXu3uZ4oCyjBk46ykIfqn2TgE7XdNk8Jqs1yZj0n1Lr0ThPC0K6shytnoRAiuPCyWldM4vlU4IqkpsxaEeS46JxUYLwQidZvR/O+DfWsVNBvy4qo328LcvJwj6cDZxwim/DhQKtPrvtXcf+OV6k6oc7ZgZZ2DHrysUgrPAVjPRhs7TBENgVMlqUJcW2eM1HZFqLaPmfBnylv1ZlpRqXB+P2/BRTTQ7vvb+DoTi8O9RejqnY5OLZ9azDyQntCpfJoV8taXMtVlX7LUIjltaKG2n8I3iHVUAfR/ubT4tFDvIEeIYxTxmmeaopwm+L4m33o7kvBncOjcEKwEXvpBTzT7Ky3FdOn+PD5Tr2Jm6JcZhRNCcVsI0SWs3g6cORVO4L92t+lGDCE+xq8VFeHOvfk3YSFcuHYeEKILN0GQH67Nv2hfaZJvDCA2Qum4fmyYJaB4Ye8re1p0zFrmUp4arYQPI3WObz2/DL7fLrOd6xQJaq9zo6I+u1LCBZufNv/WorppVq1QAS07TUrM+oFPdYM29OLUb8+4qV+GRifZYuYtmNm1KsDnzhelnmY4WjS9uHFY+4XZxoyPBFYPr7tFS/+jACtHTHwg2yk93ehU83q5LxYiXxRAd4ZIhpsi1//snDqST26vRFnW4W4vkurlAkhbUaar+0/i760bOTKObrPxbZPq/t87z9wsV9blyoH0PfL/ZzQ+KpL267Bmm3+5aSu7m1sWqwWCMWMEswWos5tUXCgiV9DrNnX7MC+Jq3C7F/OKO2Ld82y5ixn9EzB5csqz1hXFBxVjiIoZ0K0/9LqlPhjLYJMiAq+fkzih9tEuZyovwOCHRedEzTj9QAiMRLCPisJiuyr/XOfU4zLQIqy+rg5sE+If1EBxqQ8pNDxOwR8mHN27Ut8ctmDe4rN82Qsb97fi4rzRSE/aF/PM81STM/QPNWhnikRE8N9f+FjLxrOjcGC2lWYl6USmVHLyAvtq42WR7u+OR1LH610PFxHPUUFw348DiE+QsgX8JTZRhTaJfqCkpUnI1i52R4ZNTNHqXjhU83ygB3YUFODGvdUuwUH1RJDx4OJGarjjfVi87eDHNh3EF9kiJdUgA48IwcJIg+mLjZEjRS/puAhqJVAG/nDtnnEyjrkiBdBfo297Rf8rAPBObj1cf9rKaYNXrVArFATsSZSAjX7BiTHg/HiBV2tras3z0vkMhEgvZgu8RMjOXdlq7/8ofsH3R1+tqCIIauQVlZMi0h4WkE2aUs4y6i73aoiKwdp87FO23bQcri3A33IRo5WWdvxnH85qal5HFv2qwVCsChLPECCiLqIUCNEmGXBKXZDI/3ikyapiKnRCmJHVyMoZyRWVeSUJooM65BFwVo3oH0tEUT2rLSOk6AWQa0VQV6TUIjlXxfHOniqSbYg/FJsX57DCM6ZI5o8YxIKrIqOEd2maLm935oFJZ7E5b5PRXEpx7VHO0lkHRFcbUUnxiA1EYV+pDi/B15vA1rSFqB29TxkquREMvit4dEeUWQ0y4hC+4m+YGjigLybRvOyPRk+0MRGtAm9SdCYnPYPara8p1U8/KNq4k08dnM7RRZ1W8FW/GzjfEA7p9TkH0+skVCsKTJPfTwi2kGRTcQUdbOvZf1llRcRZnO/NuleUfkijQApDPpxZcjK159r33Spv/zp7Irh2krbFrVQ2Ncy8pFotuNat/jflEcNIS3LnNYyRTisZmoK1JlTXLd0dOGatm4sEW3ZUXLI5GGb6pthlgO32A2F8dumMBSizi+KHKachYC8x7YthabEjhDiJtyzMhSRXBMSxdfFe+HF3c0YdIjWMOeMIvsqui4j7y57F3mqHeuKKe5Bkxjue+rPVXXvAA55vfB+rJtNmdFIUgnt1Gn3Idd3BZ3x1QBJwPD4ru54+BfIT29Fz0mVQIy9W43NvRb5ZodKje+7BzGmcMnQxu+WzbvBLALb0fjJReQ/+E9UZB3G3oBeUoV4ua8u91hiXArG8qdRGXC7cYhoS4HkbCo0MJoJ3R5HB8pv+ck+4+EP069tEnTbwwB546m5/anZSD/yd63536DvGxVZVOc7KqxmfMNna0esDetB/hBGiSASHtEW19Sydshrp/4Ox7UO/MsnxFHIIcVoBAEPMsap2WCEaCIfMgGsFSZGa5LTVx0dPnR/pf58ikY2UX+HQ5SrChoFRRPRjs6MsnxG2DcggDUmloi2IbzcvurokCNFEKIC92TEEW2Psphpos5RWYuknIVBK1tP1EQR0ZbWBtvqIX3PEZ+eCJ6V4QhrraCouXH/kt0jxRStEZ0zsu/QvSmexRnNqNdEtIx2u5/bUeHDlV5RCVB9OYIyxPteDpoQoD8XM3oZWaFt+bONaendV/BZ4xFrKD8ahcQYX7sYqdSEUjm6x9O2fFfW8D1LMP6ZRpS90GiMAFJQI/8ue2ytyo+A9DmYSevIbVxDy2bTz00dHv8H7TDzl+O7D0/APaaMc5kof3vvY9h5BLh/o9kU7BJb8sUqLta5fwRoxvbY622cjz595ILXlqkOkOZ2A2w7JjrwnOw0ZDcdmg9d8gbKTj1Ws6KYTH8g2RBkhFQ1fyov4Oyf6B9zCL7txEOe12ysrMm2m+slygtr2js2inxHRJs6zxl5JKpM24714RBxPXa3TsVKuYwxYkW7kSO59vx9RgdItQ05JcP46tb1UdeirBdfRBzR9uHFN4xOVlY5EJOzBUOJDb2DVwAoouZoQo8HqsVI78RoQZ2V5RB5Q7geYt2mVu3efLALn0ca0ZbrmuXEnuwP0NB46kYHSD0/UIWAWsH6Aj43hgp1Vm6S4xvb1zNSkdiBeurIZ97TP8nAvyKOaBv+YafFQkyW5ziSchYcwxdte7gf7BHzKi8s0poB6/6gDpOOFh/LdkXi3byPInxWRoISzHrnZQMa5cT4rdke43eNTpem7SSyc/bWIWOIvfHue+9Mk+oAaa8beVkwoL4f1LE62G8TQ7rvi5ZjAYban4tJVpJqeL9kJJ7D+8UdGt5vQY893F/SQQLOOQycQbB0JjTxHh5vuBnt+x8IEgUVQmQGaXqWQ0LSaBS2NzVuyCEwXcNojiRkO5EjCWn7I9Om42I093qg7YxajNFOnEPYGWnG8HW3XPNtdMjgBTQRrUP3Fo0alIB7J9Ek8r5nRh3J5dFmbimMob4i6ATJMKMWswUjUETM8PZeT9TINGZLQxw/xR8TZPdQf5rQCEJur3VojP4EfdooNqMbGplG/Wkih7XTrCi3M2eaUH85iA2EPM7xtlwNCwm+75lRBwttJu7QxyaoSXhl1mFsv6W+WpccWBaQZBFYYTGtKfroMbcQcsjHND+xQGMv0xjFiRyZ5tSTv8XnWbH4seOIw2JkTMb46pGLZhqakMbZvnVaPNxWMjFJEZaAznejlLfqDBuI3yfLaZSSCDuFJhPDcd8zowu2joQhqa0jDMMwDMMwTNLCEW2GYRiGYRiGSQAstBmGYRiGYRgmAbDQZhiGYRiGYZgEwEKbYRiGYRiGYRIAC22GYRiGYRiGSQAstJmRpfYl1NXVieklrFFJOmu2UZ6YtgXKTWYWYpO3Di/VqlkFHY87LVJCnovFm/C2PI9vY9NilTZkMjFvdS2WF6lZhmEYhmGGxMgO7+cpx1L5eXWFr8XxCXZ64RdWVqPYHPC/own1h4f36/88vF8iWYOX6qqA3TXY4FVJOiTCVwINNRuwQyWNFkgUV6EBNc+59pwE8bNFOP/Hx7Flv0qLChLw65FxIMQ5W9SLl2u34KBKipqi5agt6UMDfwaYYRiGYWJiZCPaviP47L0/o15Nx/uLsXR+ocoEUqctxcSv61V+EzrzKrB0WqbKHZ1klq1C7UP2MYaDll9VNrqPOSiLJyIbl3AmkGAULByfDbSfGXUim8RuVf4lNLhFNrF/Cx7f3YXSJzYJyTwUDuLA+UFkjw+ytvcMLnkyUKBmA1OI5bWrMC9LzboonJSLzuZoRDZtb7n4l2EYhmEYnaSyjgz027Fs4uaXO/HZl+br/gI6OoT4Thu9orPwoVpU3TuAQx+bUfklGP/MLoy/ay3yX2hEmZxehf7F3hvHmjFwb1VgcU7Ry21rsHDj28p+UYe3NzoFmJ7nsBXIdTdJe4NMr1XWA68mAGmZQOtqGHaGwLaPkYGi5GJ/LCuF65gIx3HpVg5j3U3qnL29cY19fqxjNywh1vp+Ng6Rv2gyLu0OEYX31uMkSlE9RAtJTGTNw6raBRhzbh+Odqs0HZFfMqETbefVPFH6KsoeW4s7Ht6lymgjpj28RGUSF3Di3BgsCCHeGYZhGOZ2JImEdiZy705F5+XhtYYMD4bndUFaCxq8e4Qs0UlB/s+X47s3K3FscyVa2qagWIgamwvY421AS9oC1K6eJ7bkIr8K68d9ipqaGtTsvoSUOdW26BVisxrbjTwxvXxCaCY9kppfKi0IDe0pKF2ZgU9rGnDJU4RFJCpJqK7Mxsk/GuvWUBT22WQS1KGYjKpn6Xho3+mYdFErxPT0M9Y5oXM2eaV+XJNRSudTnssq6/wUlRtnbc229SjtaVDrv4yTY6uclZvFi1DkCR6lNzCi0pOnD/PZJEvID4sxcNiLXccCx6sLS4uBcydcZVRQUIOZWXtkGT32pihIc38hKogqT3Dj2C54Dw+g+Ifs7WYYhmEYk5EX2hMqUf3o/xNTNYrRgparKt2NWG5u3k20nB1tQpya1atQ3H8I3iCe1+sfrsL1b4y/fS2twNi7cYcxq7iBozu9ONRfjCp3E73vJF42LQpkG0A2JprR1/1bsGGr7dQ9eOQ8BnVbgVi3XgnCwRP1jgjswnKhlk5st33EFIX1TcYMVxR2x3MkOIfooS7IQIqvF21q1k3BuBQMfhssNxSDooJg7tMOnGmHZrXYgQ26pcN9zmjdBpWvnR+DNZjhsIQcxJYDQpAXLbIrL2GOyeTg9S5xnSc6I+0RQus6ftNBG3oDXCdpWZo/Bi0feLFHj1Y7KETBhJu40hqglPadwOl33jD+/mYfuvtScGeOMWtxfg+8H7RgzPzaW9fuxDAMwzBRMPJC+2qj5dGub07H0kcrkauyLKjTZEUuOpt24oJPpY0Wigr8jycc6WNdQlsnFyURixiXzeHZUqSonHCQyE2Zs95et249SnVPSyyYtg6KLAfotGfaXWacrcHjWkUhXlijd8ipCpNVelikp3wyqqx1xbTSubb0lUdCW6+z0hMN3g2oOZCB9eL33VYhKf5rX0bvIto/M1KfiR/cbXU5DkpmWQlyrzYHtpQEIGWcbh9xknrvHPZsMwzDMLc9SeXRxtVWdGIMUnVBp0Ymwdl6HA8W7U5mKMoXyvoRiL4efK/+NNCtJ8Gb/d1ImwNO4mXTJvHHkxhUeZEweOJlZZGwp4AjXUQLdQik7Z2d4e+fFhzc+rj8rTPTAwnJ2CARLzsqWsfUgEsqLzL0ddWkVRZkpDoSIox8B0JWRJT9xb8iQj7zdcBbtG9mVN9oEQlt7TDEeDTWrcFv96m/FJo1xetnkWIYhmGY24+kEtqp0+5Dru8KOs2otSay7U6Ro5EQ1g8Ha5G/YgoGLuzThDaJ7NDWk5D0XFEicCE2PRF5RHvHWfIorws7JnNMnSHDRHXbvh1EyrghxXxDowncNduiiGjvP4DzvsmoCjWmd4SRahn5tq5N9IS21HThSqChA0NZO4rmSOvWiaC2Eps7Hv4F8tNb0XNSJRAkssNaUxiGYRjm9mJkhbblzzampXdfcYyjnTvdGGM7dXq1ttxqFMbLwjDMXPjYiwYancE1gsj4FeaIIzVIOf47fPmRHSnMLFuCiV83wGuNVBI5OxpOYjC/Stkc1iPjfBQRbbInyA6QyiIhp9HSGTI4B7d+KjtHku2CjumBb09GEdE2bBnUAdI+J66ouxLjD4SMxC/EoqIUXDqrecWHi+6j2OU9hIF7lzhGCKEh/W5+/VXwilz6HMxUI47MnHsNLZufhu3iKsTy+cAh766IbScMwzAMczswsh+sGQUk9oM1NLzff+POQ5Vo16ODtwvy4y00OkjgzpRkkZAjqgQajzqZoeEDQ31oh/Jj+KgMnZd12B7Ev07WkRk4E00HVRry74fpaA5m96Dh/Rb04PQrv3ZZmhiGYRiGCUVyebSZ24v9V9DlGPHDSSwjc4wo3g1oaA9iMTGHTXxrqF9uNKLhXdeDrF07A5Oj9X7LKDd7qhmGYRgm3rDQZkaQHdhg2VMC2FJIsPYom0coX3QSsuM5w2JifwzHYE1VKbp2D+3z64Yf3ujg6hx2UGCO5LJyMi4diOHz6wzDMAzDxA22joQhsdYRhmEYhmEY5laFI9oMwzAMwzAMkwBYaDMMwzAMwzBMAmChzTAMwzAMwzAJgIU2wzAMwzAMwyQAFtoMwzAMwzAMkwBYaDMjC328RX5hMfBXJ40h7Ubf8H403vUmb53/8H7ieNxpkRLyXJjD+9W9Hfaz+eGhz/7XYnmRmmUYhmEYZkiM7PB+nnIsrTQ+sy7xtTg+wS4/0V6Rq2YEHU2oPzy8n9Xg4f0SCX3FsArYXYMN7nGhiXBfWExiSBRXocH/q5bya5hFOP/HoY2lbQj49cg4EOKcxfDVSUnRctSW9KFh59Hgn2RnGIZhGCYsIxvR9h3BZ+/9GfVqOt5fjKXzC1Wm4GqjlVf/Xj1a0iqwdFqmyhydZJatQu1D2jGGgZZfVTa6jzkoiyciG5dwJpBgFCwcnw20nxl1IpvEblX+JTQE+nT8/i14nD7S88SmIX7x8iAOnB9E9vgga3vP4JInAwVqNjCFWF67CvOy1KyLwkm56GyORmTT9paLfxmGYRiG0Ukq68hAvxXLDsAN3OxXf45SCh+qRdW9Azj0sRmVX4Lxz+zC+LvWIv+FRpTJ6VV4VC5x41gzBu6tCizOKXq5bQ0Wbnxb2S/q8PZGpwDT8xy2ArnuJmlvkOm1ynrg1QQgLRNoXQ3DzhDY9jEyUJRc7I9lpXAdE+E4Lt3KYay7SZ2ztzeusc+PdeyGJcRa38/GIfIXTcal3SGi8N56nEQpqodoIYmJrHlYVbsAY87tw9FulaYj8ksmdKLtvJonSl9F2WNrccfDu1QZbcS0h5eoTOICTpwbgwUhxDvDMAzD3I4kkdDORO7dqei8HMwaUoi8vJu40jEaG7MNz+uCtBY0ePcIWaKTgvyfL8d3b1bi2OZKtLRNQbEQNTYXsMfbgJa0BahdPU9syUV+FdaP+xQ1NTWo2X0JKXOqbdErxGY1tht5Ynr5hNBMeiQ1v1RaEBraU1C6MgOf1jTgkqcIi0hUklBdmY2TfzTWrZGfSk8mQR2Kyah6lo6H9p2OSRe1QkxPP2OdEzpnk1fqxzUZpXQ+5bmsss5PUblx1tZsW4/Snga1vvGZdUflZvEiFHmCR+kNjKj05OnDfDbJEvLDYgwc9mLXscD3UWFpMXDuhKuMCgpqMDNrjyyjx94UBWnuL0QFUeUJbhzbBe/hART/kL3dDMMwDGMy8kKbfNiP/j8xVaMYLWi5qtIVqdNWq/wK5Hb8Exd8KmPUQM3qVSjuPwRvEM/r9Q9X4fo3xt++llZg7N24w5hV3MDRnV4c6i9GlbuJ3ncSL5sWBbINIBsTzejr/i3YsNV26h48ch6Duq1ArFuvBOHgiXpHBHZhuVBLJ7bbPmKKwvomY4YrCrvjORKcQ/RQF2QgxdeLNjXrpmBcCga/DZYbikFRQTD3aQfOtEOzWuzABt3S4T5ntG6DytfOj8EazHBYQg5iywEhyIsW2ZWXMMdkcvB6l7jOE52R9gihdR2/6aANvQGuk7QszR+Dlg+82KNHqx0UomCCqMy2BiilfSdw+p03jL+/2YfuvhTcmWPMWpzfA+8HLRgzv/bWtTsxDMMwTBSMvNDWfdjN6Vj6aCW07o+4+eVOK/+z/vtQXVlud54cDRQVOI4nItLHuoS2Ti5KIhYxLpvDs6VIUTnhIJGbMme9vW7depTqnpZYMG0dFFkO0GnPtLvMOFuDx7WKQrywRu+QUxUmq/SwSE/5ZFRZ64pppXNt6SuPhLZeZ6UnGrwbUHMgA+vF77utQlL8176M3kW0f2akPhM/uDv8XZNZVoLcq82BLSUBSBmn20ecpN47hz3bDMMwzG1PUnm0cbUVnRiD1CCC7mbHFdz0pIslRhEU5Qtl/QhEXw++V38a6NaT4M3+bqTNASfxsmmT+ONJDKq8SBg88bKySNhTwJEuooU6BNL2zs7w908LDm59XP7WmemBhGRskIiXHRWtY2rAJZUXGfq6atIqCzJSHQkRRr4DISsiyv7iXxEhn/k64C3aNzOqb7SIhLZ2GGI8uHXLn8Fv96m/FJo1xetnkWIYhmGY24+kEtqp0+5Dru8KOoPYQ3KnFyO1g8T4aCOE9cPBWuSvmIKBC/s0oU0iO7T1JCQ9V5QIXIhNT0Qe0d5xljzK68KOyRxTZ8gwUd22bweRMm5IMd/QaAJ3zbYoItr7D+C8bzKqQo3pHWGkWka+rWsTPaEtNV24EmjowFDWjqI50rp1IqitxOaOh3+B/PRW9JxUCQSJ7LDWFIZhGIa5vRhZoW35s41p6d1XHONo2/5sY5qL4R9HO55c+NiLBhqdwTWCyPgV5ogjNUg5/jt8+ZEdKcwsW4KJXzfAa41UEjk7Gk5iML9K2RzWI+N8FBFtsifIDpDKIiGn0dIZMjgHt34qO0eS7YKO6YFvT0YR0TZsGdQB0j4nrqi7EuMPhIzEL8SiohRcOqt5xYeL7qPY5T2EgXuXOEYIoSH9bn79VfCKXPoczFQjjsycew0tm5+GXR8uxPL5wCHvrohtJwzDMAxzOzCyH6wZBST2gzU0vN9/485DlWjXo4O3C/LjLTQ6SODOlGSRkCOqBBqPOpmh4QNDfWiH8mP4qAydl3XYHsS/TtaRGTgTTQdVGvLvh+loDmb3oOH9FvTg9Cu/dlmaGIZhGIYJRXJ5tJnbi/1X0OUY8cNJLCNzjCjeDWhoD2IxMYdNfGuoX240ouFd14OsXTsDk6P1fssoN3uqGYZhGCbesNBmRpAd2GDZUwLYUkiw9iibRyhfdBKy4znDYmJ/DMdgTVUpunYP7fPrhh/e6ODqHHZQYI7ksnIyLh2I4fPrDMMwDMPEDbaOhCGx1hGGYRiGYRjmVoUj2gzDMAzDMAyTADiiHYY777xT/cUwDMMwDMMwkcMRbYZhGIZhGIZJABzRDoMZ0f7uu+/k/xmGYRiGYRgmEjiizTAMwzAMwzAJgIV23KFPptdieZGadXPXbzDthVfhUbMGa5FPX9175je4Q6UwDMMwDMMwo5uRFdrm2L/m5N0U5OMkC7HJS8u8jU1BPm6SNBTNQTFacOK8mmcYhmEYhmFuS0ZWaO/fgsdralCjJvlxkgAfJlm4cR1Key7hkpofWQqxvHYV5mWpWReFk3LR2XwUN9R8ZLyB9s2VOBb1J64peh58XxiGYRiGYZiRI6msI23fDqq/NBZvwro5wMmGMyphBMmah1W1CzDm3D4c7VZpOiK/ZEIn2tzR7NJXUUbWEJp+PgdjVDJxx8O77LzH1qpUA5nnspM4027gaPMAin8YwqrCMAzDMAzDjAhJJLQXYlFRCi6d3aHmiYXY9EQpcGL7kD5ZHVeKlqP2h8UYOOzFrmOB49WFpcXAuRO4oOYl5MlekYP2NytxjKLWb56APq7L9x+tkumnj/tXMr4/cw4D6fci/S6VILgjKwUDF/bZke/ze+D9oAVj5tdiVVmmSmQYhmEYhmFGmpEX2rUvKY/2epTiJOq9Kp2orZZp27ceVAkjQ0bpStTOH4OWD7zYE9R7XYiCCTdxpdUpwj1L5gDH/wfXv1EJ0fDNr9HRloKsGUtUwlqMLWhFx0f71Lyi+yh2eQ9h4N4q1D5UqBIZhmEYhmGYkWTkhbZ3g+XRrjmQgfV1L8Fwaa/BSyuzcfKtLRhhmS0EtG72CExmWQlyrzYHtpTEgK+lFWMKlxhWkdKZGN92Gj6ZE4QJJezZZhiGYRiGSQKSyqMN7xlcQjYm0sgitTMwGSkofdYclaTKng/QYTJx9OKLD/4/eA+H8kJn4gd3p6LzssM0Eh9OnsZ1ZR/xFE/B9ZY3VIaG5R1vgNe7K+5in2EYhmEYhomepBLaCzc+gMm+8zhAfmw90i2nBiHCB3Hyj+Lv53Qf9zARygsdYki/77sH7Yg0jZft6gwZnjfQ05aCO3PWYuzYE+g8qZJNSGSH8Y4zDMMwDMMww8/ICm3Ln21M64vO4+XakbaKhMDyQi9x2DNoSL+bX38VcEi/7z/6H7RjDmbKkUWW47s363Bd5QFLMP4ZY8SRmXNTgIKagKOP+PadQMqKGqTonSAlmZi3ZCKuhPSOMwzDMAzDMCPBv+Xk5Pyf+huZmZkYGNDHxGDuvPNO+f/vvvtO/t8PGVFOR7N3j3O0EYZhGIZhGOa2hoV2GMIKbYZhGIZhGIYJQHJ1hmQYhmEYhmGYWwSOaIfBjGgzDMMwDMMwTDRwRJthGIZhGIZhEgBHtBmGYRiGYRgmAXBEm2EYhmEYhmESAAtthmEYhmEYhkkALLQZhmEYhmEYJgGw0GYYhmEYhmGYBMBCm2EYhmEYhmESAAtthmEYhmEYhkkALLQZhmEYhmEYJgGw0GYYhmEYhmGYBMBCm2EYhmEYhmESAAtthmEYhmEYhkkALLQZhmEYhmEYJgGw0GYYhmEYhmGYBMBCm2EYhmEYhmESAAtthmEYhmEYhkkALLQZhmEYhmEYJgGw0GYYhmEYhmGYBMBCm2EYhmEYhmESAAtthmEYhmEYhkkALLQZhmEYhmEYJgGw0GYYhmEYhmGYBMBCm2EYhmEYhmESAAtthmEYhmEYhkkALLQZhmEYhmEYJgGw0GYYhmEYhmGYBMBCm2EYhmEYhmESAAtthmEYhmEYhkkALLQZhmEYhmEYJgGw0GYYhmEYhmGYBMBCm2EYhmEYhmESAAtthmEYhmEYhok7wP8PtvJ+wttNiU4AAAAASUVORK5CYII=;" vertex="1" parent="1">
                    <mxGeometry x="610.0029411764707" y="1409.004117647059" width="730" height="596" as="geometry"/>
                </mxCell>
                <mxCell id="65" style="edgeStyle=orthogonalEdgeStyle;html=1;entryX=0.638;entryY=-0.012;entryDx=0;entryDy=0;entryPerimeter=0;strokeColor=#33FF33;strokeWidth=2;fontSize=25;fontColor=#000000;elbow=vertical;" edge="1" parent="1" source="56" target="63">
                    <mxGeometry relative="1" as="geometry">
                        <Array as="points">
                            <mxPoint x="905" y="1871"/>
                            <mxPoint x="1537" y="1871"/>
                        </Array>
                    </mxGeometry>
                </mxCell>
                <mxCell id="56" value="" style="rounded=1;whiteSpace=wrap;html=1;fontSize=31;fillColor=none;strokeColor=#33FF33;strokeWidth=3;" vertex="1" parent="1">
                    <mxGeometry x="836" y="1892" width="139" height="30" as="geometry"/>
                </mxCell>
                <mxCell id="62" style="edgeStyle=orthogonalEdgeStyle;html=1;entryX=0.5;entryY=0;entryDx=0;entryDy=0;strokeColor=#007FFF;strokeWidth=2;fontSize=31;fontColor=#000000;elbow=vertical;" edge="1" parent="1" source="57" target="61">
                    <mxGeometry relative="1" as="geometry"/>
                </mxCell>
                <mxCell id="57" value="" style="rounded=1;whiteSpace=wrap;html=1;fontSize=31;fillColor=none;strokeColor=#007FFF;strokeWidth=3;" vertex="1" parent="1">
                    <mxGeometry x="761" y="1935" width="105" height="24" as="geometry"/>
                </mxCell>
                <mxCell id="59" style="edgeStyle=orthogonalEdgeStyle;html=1;entryX=0;entryY=0.5;entryDx=0;entryDy=0;strokeColor=#FFFF00;strokeWidth=2;fontSize=31;fontColor=#000000;elbow=vertical;" edge="1" parent="1" source="52" target="56">
                    <mxGeometry relative="1" as="geometry">
                        <Array as="points">
                            <mxPoint x="246" y="1419"/>
                            <mxPoint x="453" y="1419"/>
                            <mxPoint x="453" y="1907"/>
                        </Array>
                    </mxGeometry>
                </mxCell>
                <mxCell id="60" style="edgeStyle=orthogonalEdgeStyle;html=1;entryX=0;entryY=0.5;entryDx=0;entryDy=0;strokeColor=#FFFF00;strokeWidth=2;fontSize=31;fontColor=#000000;elbow=vertical;" edge="1" parent="1" source="52" target="57">
                    <mxGeometry relative="1" as="geometry">
                        <Array as="points">
                            <mxPoint x="214" y="1564"/>
                            <mxPoint x="563" y="1564"/>
                            <mxPoint x="563" y="1947"/>
                        </Array>
                    </mxGeometry>
                </mxCell>
                <mxCell id="61" value="Forma para imprimir la variable de tipo signal" style="rounded=1;whiteSpace=wrap;html=1;fontSize=31;fillColor=none;strokeColor=#007FFF;strokeWidth=3;" vertex="1" parent="1">
                    <mxGeometry x="713" y="2062" width="365" height="121" as="geometry"/>
                </mxCell>
                <mxCell id="63" value="&lt;p style=&quot;line-height: 89%;&quot;&gt;&lt;font style=&quot;font-size: 25px;&quot;&gt;Con el property binding es como se logra cambiar el valor, esto desencadenado por algun evento designado en el elemento en este caso (change)&lt;/font&gt;&lt;/p&gt;" style="rounded=1;whiteSpace=wrap;html=1;fontSize=31;fillColor=none;strokeColor=#33FF33;strokeWidth=3;" vertex="1" parent="1">
                    <mxGeometry x="1203" y="1973" width="524" height="167" as="geometry"/>
                </mxCell>
                <mxCell id="66" value="&lt;p style=&quot;line-height: 100%;&quot;&gt;&lt;font style=&quot;font-size: 15px;&quot;&gt;Como si se estuviera metiendo la variable en una funcion&lt;br&gt;y se tuviera que actualizar por medio de esta&lt;/font&gt;&lt;/p&gt;" style="text;html=1;align=left;verticalAlign=middle;resizable=0;points=[];autosize=1;strokeColor=none;fillColor=none;fontSize=17;fontColor=#FFFFFF;" vertex="1" parent="1">
                    <mxGeometry x="495" y="733" width="399" height="80" as="geometry"/>
                </mxCell>
            </root>
        </mxGraphModel>
    </diagram>
</mxfile>